SplineFontDB: 3.0
FontName: UniversElse-Bold
FullName: Univers Else Bold 
FamilyName: Univers Else
Weight: Bold
Copyright: Processed by Pierre Marchand with Fonzie and FontForge 2.0 (http://fontforge.sf.net)
Version: 001.000
ItalicAngle: 0
UnderlinePosition: -250
UnderlineWidth: 50
Ascent: 800
Descent: 200
LayerCount: 2
Layer: 0 0 "Back" 
Layer: 1 0 "Fore" 
XUID: [1021 658 791704704 16613841]
UniqueID: 4103072
FSType: 0
OS2Version: 3
OS2_WeightWidthSlopeOnly: 0
OS2_UseTypoMetrics: 1
CreationTime: 1288561628
ModificationTime: 1291856632
PfmFamily: 17
TTFWeight: 700
TTFWidth: 5
LineGap: 90
VLineGap: 0
Panose: 2 0 8 3 0 0 0 0 0 0
OS2TypoAscent: 0
OS2TypoAOffset: 1
OS2TypoDescent: 0
OS2TypoDOffset: 1
OS2TypoLinegap: 90
OS2WinAscent: 0
OS2WinAOffset: 1
OS2WinDescent: 0
OS2WinDOffset: 1
HheadAscent: 0
HheadAOffset: 1
HheadDescent: 0
HheadDOffset: 1
OS2SubXSize: 650
OS2SubYSize: 700
OS2SubXOff: 0
OS2SubYOff: 140
OS2SupXSize: 650
OS2SupYSize: 700
OS2SupXOff: 0
OS2SupYOff: 480
OS2StrikeYSize: 49
OS2StrikeYPos: 258
OS2Vendor: 'PfEd'
OS2CodePages: 00000001.00000000
OS2UnicodeRanges: 80000007.00000002.00000000.00000000
DEI: 0
LangName: 1033 "" "" "Bold " "" "" "Version 001.000" 
Encoding: UnicodeBmp
UnicodeInterp: none
NameList: Adobe Glyph List
DisplaySize: -48
AntiAlias: 1
FitToEm: 1
WinInfo: 60 20 16
BeginPrivate: 11
BlueValues 23 [-10 3 501 536 723 742]
OtherBlues 11 [-178 -178]
BlueScale 9 0.0282857
BlueShift 1 6
BlueFuzz 1 1
StdHW 4 [50]
StdVW 5 [126]
StemSnapH 34 [27 50 69 76 81 86 95 100 105 109]
StemSnapV 35 [50 99 109 113 117 126 130 134 139]
ForceBold 4 true
ExpansionFactor 4 0.06
EndPrivate
BeginChars: 65538 206

StartChar: .notdef
Encoding: 65536 -1 0
Width: 500
Flags: W
LayerCount: 2
Fore
SplineSet
100 50 m 1
 400 50 l 1
 400 483 l 1
 100 483 l 1
 100 50 l 1
50 0 m 1
 50 533 l 1
 450 533 l 1
 450 0 l 1
 50 0 l 1
EndSplineSet
Validated: 1
EndChar

StartChar: uni0021
Encoding: 33 33 2
Width: 316
GlyphClass: 2
Flags: W
LayerCount: 2
Fore
SplineSet
121 107 m 0
 126.348 110.056 128.777 111.36 132.747 111.36 c 0
 133.974 111.36 135.348 111.235 137 110.999 c 0
 141 109.999 152 108.999 162 108.999 c 0
 172 107.999 183 105.999 187 104.999 c 0
 191 103.999 196 100.999 199 98.999 c 2
 202 97.999 205 95.999 205 94.999 c 2
 206 93.999 207 89.999 207 84.999 c 0
 207 80.999 207 74.999 208 71.999 c 0
 209 70.499 209.5 68.749 209.5 66.249 c 0
 209.5 63.749 209 60.499 208 55.999 c 0
 207 49.999 206 42.999 206 40.999 c 0
 206 38.999 206 32.999 205 26.999 c 0
 204 20.999 202 13.999 201 11.999 c 0
 199 8.99902 197 5.99902 195 4.99902 c 1
 193 2.99902 187 1.99902 172 1.99902 c 0
 162 1.99902 151 0.999023 148 -0.000976562 c 0
 145.879 -0.708008 143.258 -1.41504 140.844 -1.41504 c 0
 139.844 -1.41504 138.879 -1.29395 138 -1.00098 c 2
 136 -1.00098 130 -0.000976562 126 0.999023 c 2
 122 0.999023 118 2.99902 116 4.99902 c 0
 114 6.99902 111 10.999 109 14.999 c 0
 107 18.999 104 25.999 104 28.999 c 2
 103 32.999 103 36.999 104 39.999 c 1
 104 49.9648 102.586 48.541 102.586 54.2354 c 0
 102.586 57.5996 103.293 61.0498 104 66 c 1
 106 71 107 78 107 83 c 0
 107 88 108 93 109 97 c 1
 111 101 115 104 121 107 c 0
117 665 m 0
 119.828 665.707 127.158 666.413 138.279 666.413 c 0
 142.886 666.413 148.144 666.292 154.001 665.999 c 0
 181.001 665.999 185.001 665.999 191.001 662.999 c 0
 196.001 660.999 198.001 658.999 201.001 653.999 c 1
 202.001 649.999 203.001 645.999 203.001 641.999 c 1
 202.001 638.999 203.001 632.999 206.001 625.999 c 0
 207.903 619.659 208.6 616.535 208.6 613.823 c 0
 208.6 612.258 208.367 610.829 208.001 608.999 c 0
 207.001 605.999 207.001 599.999 207.001 595.999 c 1
 208.001 591.999 207.001 586.999 207.001 584.999 c 1
 206.001 582.999 205.001 558.999 205.001 531.999 c 0
 204.001 489.999 203.001 481.999 201.001 475.999 c 0
 199.001 469.999 198.001 461.999 198.001 414.999 c 0
 197.001 384.999 197.001 359.999 196.001 358.999 c 0
 195.001 357.999 196.001 354.999 196.001 352.999 c 1
 197.001 349.999 198.001 333.999 198.001 316.999 c 0
 199.001 296.999 199.001 283.999 200.001 281.999 c 0
 202.001 278.999 202.001 276.999 201.001 273.999 c 0
 200.001 270.999 198.001 258.999 198.001 246.999 c 0
 197.001 231.999 196.001 221.999 194.001 216.999 c 0
 193.001 212.999 191.001 206.999 190.001 204.999 c 0
 189.001 202.999 186.001 198.999 183.001 195.999 c 0
 180.001 192.999 176.001 190.999 167.001 188.999 c 0
 155.001 186.999 154.001 186.999 143.001 189.999 c 0
 137.001 190.999 130.001 192.999 129.001 193.999 c 0
 128.001 194.999 126.001 198.999 124.001 202.999 c 0
 122.001 205.999 119.001 211.999 117.001 213.999 c 0
 114.001 217.999 112.001 221.999 112.001 227.999 c 2
 111.001 231.999 111.001 237.999 110.001 240.999 c 1
 110.001 243.999 111.001 248.999 111.001 251.999 c 2
 112.001 255.999 113.001 270.999 113.001 293.999 c 0
 113.001 321.999 112.001 331.999 110.001 338.999 c 0
 108.001 346.999 108.001 348.999 109.001 353.999 c 0
 110.001 356.999 111.001 365.999 111.001 373.999 c 0
 111.001 381.999 110.001 391.999 109.001 396.999 c 1
 107.001 401.999 107.001 413.999 106.001 430.999 c 0
 106.001 448.999 107.001 456.999 108.001 459.999 c 0
 109.001 461.999 110.001 465.999 109.001 470.999 c 0
 109.001 474.999 107.001 483.999 106.001 489.999 c 0
 104.829 496.442 104.344 500.827 104.344 506.973 c 0
 104.344 511.318 104.586 516.544 105 524 c 0
 106 535 106 547 106 551 c 1
 105 555 104 560 103 564 c 1
 101 567 101 577 101 593 c 0
 100 606 100 624 100 633 c 0
 100 645 101 652 102 655 c 0
 103 658 105 661 107 662 c 0
 109 663 113 664 117 665 c 0
EndSplineSet
Validated: 33
EndChar

StartChar: uni0022
Encoding: 34 34 3
Width: 414
GlyphClass: 2
Flags: W
LayerCount: 2
Fore
SplineSet
82 735 m 1
 82.5 735.5 87 735.75 93.75 735.75 c 0
 100.5 735.75 109.5 735.5 119 735 c 0
 144 735 155 734 158 733 c 1
 160 731 163 727 165 723 c 0
 167 719 169 713 169 709 c 0
 169 706 168 702 167 701 c 1
 166 699 166 692 166 681 c 0
 166 670 165 664 164 662 c 1
 163 661 161 656 160 652 c 0
 158 647 157 641 157 637 c 0
 157 633 157 627 156 625 c 0
 155 623 154 607 154 591 c 0
 153 570 152 558 151 554 c 0
 150 550 148 545 148 541 c 1
 147 538 146 533 145 530 c 1
 143 527 140 524 137 522 c 0
 134 519.75 132.125 518.625 126.312 518.625 c 0
 124.375 518.625 122 518.75 119 519 c 0
 112 520 104 521 101 522 c 1
 98 524 94 527 91 531 c 1
 86 536 85 538 84 549 c 0
 84 556 83 566 84 572 c 1
 84 578 83 583 82 587 c 1
 80 591 79 601 79 617 c 0
 78 631 77 643 76 648 c 0
 74 654 74 659 74 667 c 0
 75 676 75 680 73 686 c 0
 71 690 70 694 69 695 c 0
 68 696 67 700 65 705 c 1
 64 710 63 716 64 718 c 2
 64 721 66 724 68 726 c 0
 70 728 73 731 75 732 c 0
 77 733 80 735 82 735 c 1
273 738 m 2
 277 740 283 740 298 740 c 0
 311 740 321 739 326 737 c 0
 330 736 334 735 336 735 c 0
 338 735 341 733 343 730 c 0
 347 726 347 725 347 713 c 0
 347 704 346 698 345 694 c 1
 343 691 343 684 343 674 c 0
 343 661 342 658 339 649 c 0
 335 640 335 637 335 622 c 2
 335 588 l 2
 334 576 333 569 332 565 c 1
 330 562 329 556 329 547 c 0
 329 538 329 532 327 529 c 0
 326 527 323 524 322 523 c 1
 312 518 l 2
 308 516 304 515 299 514 c 1
 293 514 289 515 282 519 c 0
 277 521 272 525 270 528 c 0
 268 532 267 535 267 554 c 0
 267 573 266 577 263 583 c 0
 260 589 260 591 261 603 c 0
 262 613 261 618 260 623 c 0
 259 626 257 630 256 633 c 0
 255 635 254 648 252 662 c 0
 251 676 250 693 249 700 c 1
 249 708 249 714 251 718 c 0
 252 721 255 726 260 730 c 0
 263 733 269 737 273 738 c 2
EndSplineSet
Validated: 33
EndChar

StartChar: uni0023
Encoding: 35 35 4
Width: 507
GlyphClass: 2
Flags: W
LayerCount: 2
Fore
SplineSet
309 397 m 0
 306 399 302 399.999 292 399.999 c 1
 285 398.999 274 397.999 268 396.999 c 0
 262 395.999 253 393.999 247 393.999 c 2
 239 391.999 236 391.999 232 393.999 c 1
 228 394.999 224 394.999 222 394.999 c 1
 220 393.999 217 390.999 214 387.999 c 1
 211 382.999 210 379.999 209 368.999 c 0
 209 361.999 207 352.999 206 349.999 c 0
 204 345.999 202 335.999 200 326.999 c 0
 199 317.999 196 307.999 195 302.999 c 1
 193 298.999 192 293.999 192 290.999 c 0
 192 288.999 194 282.999 196 277.999 c 0
 200 269.999 202 267.999 206 265.999 c 1
 209.535 265.292 214.57 264.585 228.53 264.585 c 0
 234.312 264.585 241.626 264.706 250.999 264.999 c 0
 287.999 264.999 289.999 264.999 293.999 268.999 c 0
 296.999 270.999 299.999 274.999 301.999 279.999 c 0
 303.999 283.999 304.999 290.999 304.999 293.999 c 0
 304.999 296.999 305.999 303.999 307.999 307.999 c 1
 308.999 312.999 310.999 321.999 310.999 328.999 c 1
 311.999 334.999 312.999 341.999 313.999 344.999 c 1
 315.999 347.999 316.999 354.999 317.999 359.999 c 0
 318.999 365.999 319.999 373.999 321.999 377.999 c 0
 322.898 380.696 323.394 382.181 323.394 383.361 c 0
 323.394 384.808 322.651 385.798 321 388 c 0
 320 390 317 392 316 393 c 1
 314 394 311 396 309 397 c 0
178 654.999 m 0
 183 656.999 188 657.999 189 657.999 c 0
 191 657.999 203 656.999 216 654.999 c 0
 229 653.999 242 650.999 244 649.999 c 0
 247 648.999 251 645.999 254 642.999 c 0
 258 637.999 259 636.999 258 630.999 c 0
 258 626.999 257 620.999 255 617.999 c 0
 253 613.999 251 606.999 250 600.999 c 0
 249 594.999 248 585.999 247 580.999 c 0
 246 574.999 244 562.999 244 552.999 c 0
 243 534.999 243 533.999 238 523.999 c 0
 233 512.999 233 512.999 234 501.999 c 0
 235 495.999 237 488.999 238 486.999 c 1
 240 484.999 242 482.999 247 482.999 c 2
 251 481.999 259 481.999 265 481.999 c 2
 294 481.999 l 2
 304 481.999 314 481.999 317 482.999 c 2
 320 482.999 327 486.999 333 490.999 c 0
 339 494.999 345 498.999 345 500.999 c 2
 346 501.999 347 514.999 348 528.999 c 0
 348 546.999 349 557.999 351 563.999 c 0
 353 569.999 356 579.999 359 586.999 c 0
 363 597.999 364 601.999 365 616.999 c 0
 365 625.999 366 635.999 367 638.999 c 0
 368 640.999 372 644.999 376 647.999 c 1
 380 651.999 385 653.999 393 655.999 c 0
 402 657.999 404 657.999 409 655.999 c 0
 412 654.999 417 653.999 420 653.999 c 0
 423 653.999 428 654.999 431 655.999 c 0
 435 656.999 440 657.999 443 657.999 c 0
 446 657.999 451 656.999 456 653.999 c 0
 460 651.999 465 647.999 466 645.999 c 0
 467 643.999 468 639.999 469 635.999 c 0
 470 630.999 469 627.999 466 620.999 c 0
 464 615.999 462 607.999 461 602.999 c 0
 460 597.999 459 587.999 458 579.999 c 0
 457 571.999 455 558.999 453 551.999 c 0
 451 544.999 448 531.999 447 523.999 c 2
 445 516.999 444 506.999 445 503.999 c 2
 445 499.999 447 493.999 449 489.999 c 0
 451 485.999 453 482.999 456 481.999 c 0
 458 480.999 463 479.999 467 478.999 c 0
 473 477.999 474 477.999 479 479.999 c 0
 483 481.999 488 482.999 496 482.999 c 0
 506 482.999 506 481.999 511 477.999 c 0
 514 474.999 517 469.999 519 466.999 c 1
 520 462.999 521 452.999 521 439.999 c 0
 521.366 433.776 521.599 429.43 521.599 426.174 c 0
 521.599 420.535 520.902 418.169 519 414.999 c 2
 518 411.999 515 406.999 513 404.999 c 0
 511 402.999 506 399.999 503 397.999 c 0
 499 395.999 492 394.999 488 394.999 c 0
 483 394.999 471 394.999 461 395.999 c 0
 448 396.999 440 396.999 436 395.999 c 1
 432 393.999 429 391.999 425 385.999 c 0
 422 381.999 418 374.999 417 371.999 c 0
 416 367.999 414 362.999 413 360.999 c 0
 411 357.999 411 355.999 412 349.999 c 0
 413 344.999 413 340.999 411 334.999 c 0
 410 330.999 409 322.999 409 316.999 c 0
 409 311.999 409 306.999 408 305.999 c 1
 407 305.999 406 302.999 405 298.999 c 0
 404 295.999 404 290.999 404 287.999 c 1
 405 285.999 408 279.999 413 275.999 c 2
 417 270.999 422 266.999 424 265.999 c 0
 427 264.999 436 263.999 445 263.999 c 0
 458 263.999 463 263.999 466 261.999 c 0
 468 260.999 471 257.999 472 254.999 c 2
 474 252.999 475 246.999 476 242.999 c 1
 476 237.999 478 231.999 480 227.999 c 0
 482 224.999 484 217.999 485 212.999 c 0
 486 205.999 486 203.999 484 198.999 c 1
 482 196.999 481 193.999 481 192.999 c 0
 481 191.999 479 189.999 477 186.999 c 0
 475 184.999 470 181.999 467 179.999 c 1
 463 178.999 457 176.999 453 175.999 c 0
 449 174.999 444 174.999 441 174.999 c 1
 437 175.999 432 177.999 429 178.999 c 0
 424 180.999 420 181.999 417 181.999 c 1
 415 180.999 409 179.999 403 178.999 c 0
 395 177.999 393 176.999 388 171.999 c 0
 385 168.999 383 163.999 382 160.999 c 1
 382 158.999 381 154.999 380 152.999 c 1
 379 151.999 376 145.999 374 139.999 c 2
 371 134.999 369 127.999 370 125.999 c 1
 370 113.999 l 2
 370 109.999 369 97.999 368 87.999 c 0
 367 72.999 366 66.999 362 56.999 c 0
 360 49.999 358 41.999 358 39.999 c 0
 358 36.999 356 30.999 354 26.999 c 0
 352 22.999 349 17.999 347 16.999 c 0
 345 15.999 340 13.999 337 12.999 c 0
 333 11.999 329 10.999 329 9.99902 c 0
 329 8.99902 323 8.99902 317 8.99902 c 0
 310 8.99902 305 8.99902 302 10.999 c 0
 298 12.999 293 13.999 283 13.999 c 0
 273 13.999 269 13.999 266 16.999 c 1
 264 17.999 260 22.999 258 27.999 c 0
 256 31.999 254 37.999 254 40.999 c 2
 253 42.999 254 45.999 255 46.999 c 1
 255 47.999 256 50.999 257 52.999 c 0
 258 54.999 259 61.999 259 68.999 c 0
 260 77.999 262 82.999 265 89.999 c 1
 268 93.999 270 98.999 270 99.999 c 0
 270 100.999 271 103.999 272 107.999 c 1
 274 110.999 276 116.999 277 121.999 c 0
 278 125.999 278 133.999 278 139.999 c 0
 278 144.999 279 150.999 280 154.999 c 1
 282 158.999 282 161.999 281 164.999 c 0
 280 166.999 277 170.999 274 172.999 c 0
 271 175.999 267 177.999 260 177.999 c 1
 255 178.999 239 178.999 224 178.999 c 0
 202 178.999 196 178.999 191 175.999 c 1
 188 174.999 183 172.999 181 172.999 c 1
 178 171.999 176 169.999 174 165.999 c 1
 173 161.999 171 155.999 170 150.999 c 0
 170 146.999 168 139.999 166 135.999 c 1
 165 131.999 163 124.999 162 120.999 c 1
 162 116.999 160 109.999 159 105.999 c 0
 157 100.999 156 94.999 156 90.999 c 0
 156 86.999 155 80.999 154 77.999 c 0
 153 74.999 151 64.999 151 55.999 c 0
 150 45.999 149 35.999 148 32.999 c 0
 147 30.999 145 25.999 143 22.999 c 0
 140 19.999 136 16.999 134 14.999 c 1
 131 13.999 126 12.999 122 11.999 c 1
 119 11.999 106 11.999 94 13.999 c 0
 81 14.999 68 15.999 65 14.999 c 0
 59 13.999 58 14.999 52 19.999 c 0
 47 24.999 46 27.999 45 31.999 c 1
 45 34.999 45 40.999 46 45.999 c 0
 47 49.999 49 53.999 49 54.999 c 1
 50 55.999 52 60.999 53 66.999 c 0
 55 73.999 57 80.999 58 83.999 c 0
 59 87.999 59 96.999 59 106.999 c 0
 58 122.999 58 123.999 62 131.999 c 0
 64 135.999 66 141.999 67 143.999 c 0
 68 145.999 69 152.999 69 158.999 c 0
 69 169.999 68 170.999 65 174.999 c 1
 61 177.999 61 177.999 36 177.999 c 0
 15 177.999 11 178.999 6 180.999 c 1
 4 182.999 -1 185.999 -3 187.999 c 1
 -8 190.999 -8 190.999 -8 206.999 c 0
 -8 215.999 -8 222.999 -6 224.999 c 1
 -6 226.999 -5 233.999 -5 239.999 c 1
 -4 246.999 -4 253.999 -2 255.999 c 1
 -1 257.999 1 260.999 4 261.999 c 1
 7 263.999 12 263.999 37 263.999 c 0
 54 263.999 70 264.999 73 265.999 c 0
 77 266.999 82 269.999 86 273.999 c 0
 90 278.999 92 281.999 95 290.999 c 1
 96 296.999 99 306.999 101 312.999 c 1
 102 318.999 104 326.999 104 330.999 c 0
 104 334.999 105 342.999 107 348.999 c 2
 108 354.999 110 361.999 111 364.999 c 0
 112 369.999 112 372.999 110 376.999 c 0
 109 378.999 107 383.999 105 387.999 c 0
 103 390.999 100 393.999 97 394.999 c 0
 95 395.999 89 396.999 85 396.999 c 0
 80 396.999 72 395.999 66 394.999 c 0
 57 393.999 55 393.999 49 396.999 c 0
 46 398.999 41 401.999 39 403.999 c 0
 35 406.999 35 406.999 35 436.999 c 0
 35 458.999 35 467.999 37 470.999 c 1
 38 473.999 41 476.999 43 478.999 c 0
 47 482.999 48 482.999 64 483.999 c 0
 73 483.999 87 482.999 94 482.999 c 0
 104 481.999 110 481.999 115 483.999 c 0
 118 484.999 124 487.999 127 490.999 c 0
 131 493.999 133 497.999 134 502.999 c 0
 135 505.999 136 512.999 136 517.999 c 0
 136 522.999 137 529.999 139 534.999 c 0
 140 538.999 142 544.999 142 547.999 c 0
 142 549.999 143 553.999 143 555.999 c 1
 144 557.999 145 565.999 146 574.999 c 0
 146 584.999 147 593.999 148 597.999 c 0
 149 601.999 152 610.999 154 617.999 c 0
 156 624.999 158 632.999 158 634.999 c 0
 158 636.999 159 640.999 160 643.999 c 0
 161 645.999 164 648.999 166 649.999 c 2
 167 650.999 173 652.999 178 654.999 c 0
EndSplineSet
Validated: 33
EndChar

StartChar: uni0024
Encoding: 36 36 5
Width: 500
GlyphClass: 2
Flags: W
LayerCount: 2
Fore
SplineSet
292 254 m 2
 290 255 286 256.001 282 256.001 c 0
 278 256.001 275 255.001 273 253.001 c 1
 271 252.001 269 246.001 267 241.001 c 0
 265 236.001 264 227.001 263 221.001 c 1
 263 215.001 263 207.001 264 201.001 c 0
 266 194.001 266 191.001 265 188.001 c 0
 264 186.001 264 177.001 264 168.001 c 2
 264 145.001 l 2
 264 142.001 264 133.001 263 127.001 c 0
 262.732 124.321 262.608 122.072 262.608 120.062 c 0
 262.608 114.569 263.536 110.856 265 105 c 0
 267 99 268 93 269 90 c 0
 270 87 271 85 272 84 c 1
 274 83 278 82 281 82 c 0
 282.072 81.7324 283.216 81.6084 284.45 81.6084 c 0
 287.823 81.6084 291.876 82.5361 297 84 c 0
 303 86 310 89 314 90 c 0
 319 91 323 94 332 103 c 0
 339 111 345 118 348 124 c 0
 352 132 352 134 353 157 c 0
 353 180 353 182 350 196 c 0
 347 208 345 212 339 220 c 0
 335 225 330 230 327 233 c 0
 325 235 320 237 316 237 c 1
 312 238 309 240 303 246 c 0
 299 250 294 254 292 254 c 2
226 546.001 m 0
 223 547.001 218 548 210 548 c 0
 200 548 197 548 191 544 c 0
 187 542 181 538 179 536 c 2
 166 523 l 2
 162 519 158 515 157 513 c 1
 155 512 153 508 152 505 c 2
 148 493 l 2
 146 489 146 480 146 468 c 0
 146 451 146 448 150 435 c 0
 153 427 156 418 158 415 c 2
 159 412 164 406 167 403 c 0
 172 398 177 396 186 392 c 1
 195 390 202 388 207 388 c 0
 212 388 218 389 222 390 c 2
 225 390 230 393 231 394 c 0
 234 397 234 400 235 420 c 0
 235.366 427.32 235.599 432.363 235.599 436.208 c 0
 235.599 442.866 234.902 445.929 233 451.001 c 0
 230 460.001 229 463.001 231 474.001 c 2
 231 481.001 232 492.001 232 497.001 c 0
 232 503.001 233 510.001 234 514.001 c 0
 236 520.001 236 525.001 236 531.001 c 1
 235 536.001 234 540.001 233 541.001 c 2
 232 543.001 229 545.001 226 546.001 c 0
241 704 m 0
 245 707 247.999 708 251.999 708 c 0
 256.999 708 258.999 707 261.999 704 c 0
 263.999 702 267.999 695 268.999 690 c 2
 271.999 682 272.999 676 272.999 665 c 0
 272.999 657 273.999 647 274.999 643 c 0
 275.999 638 277.999 635 280.999 633 c 0
 283.999 630 285.999 630 296.999 630 c 0
 306.999 630 309.999 630 314.999 628 c 1
 317.999 626 324.999 624 329.999 624 c 1
 334.999 623 339.999 622 340.999 622 c 1
 341.999 621 348.999 619 355.999 617 c 0
 362.999 615 370.999 613 371.999 613 c 0
 372.999 613 375.999 611 378.999 610 c 1
 393.999 600 l 2
 398.999 597 405.999 592 408.999 590 c 0
 412.999 587 420.999 579 427.999 571 c 0
 434.999 564 440.999 556 440.999 554 c 1
 441.999 551 443.999 546 445.999 542 c 0
 447.999 539 451.999 531 453.999 524 c 0
 455.999 518 457.999 512 457.999 511 c 0
 457.999 510 459.999 506 462.999 502 c 0
 465.999 498 467.999 494 467.999 492 c 0
 467.999 490 466.999 487 464.999 484 c 2
 463.999 481 460.999 477 458.999 474 c 0
 456.999 472 452.999 470 449.999 469 c 0
 447.999 468 441.999 467 436.999 467 c 1
 432.999 466 425.999 465 422.999 464 c 0
 418.999 462 412.999 461 407.999 461 c 0
 402.999 461 398.999 462 397.999 463 c 1
 397.999 463 393.999 465 389.999 466 c 0
 385.999 467 380.999 469 378.999 470 c 0
 376.999 471 372.999 472 369.999 473 c 1
 367.999 473 363.999 475 361.999 477 c 0
 359.999 480 356.999 486 354.999 492 c 0
 352.999 498 350.999 504 348.999 506 c 1
 347.999 508 344.999 514 342.999 519 c 0
 339.999 525 335.999 531 331.999 535 c 0
 325.999 541 323.999 542 316.999 543 c 0
 312.999 543 307.999 544 303.999 545 c 0
 300.999 546 295.999 547 292.999 548 c 0
 289.999 549 285.999 549 282.999 548 c 0
 280.999 547 276.999 544 274.999 541 c 0
 272.999 538 269.999 532 268.999 527 c 0
 267.999 522 265.999 515 264.999 511 c 1
 264.999 507 263.999 500 263.999 496 c 0
 263.999 492 264.999 485 265.999 482 c 0
 267.999 477 267.999 472 267.999 464 c 1
 266.999 458 265.999 446 264.999 438 c 0
 262.999 427 262.999 417 262.999 406 c 0
 263.999 396 263.999 387 264.999 384 c 2
 264.999 382 266.999 377 268.999 374 c 1
 270.999 369 273.999 367 279.999 364 c 0
 284.999 362 292.999 360 297.999 359 c 1
 304.999 359 311.999 357 317.999 354 c 0
 323.999 351 333.999 346 341.999 343 c 0
 351.999 338 357.999 336 363.999 335 c 0
 367.999 335 373.999 334 376.999 333 c 1
 378.999 331 381.999 330 381.999 329 c 1
 382.999 329 387.999 326 392.999 324 c 0
 398.999 322 403.999 319 405.999 317 c 1
 406.999 315 412.999 311 418.999 308 c 1
 426.999 302 428.999 300 431.999 292 c 0
 433.999 287 436.999 281 439.999 278 c 0
 442.999 275 446.999 271 447.999 268 c 2
 449.999 266 452.999 258 455.999 251 c 1
 457.999 243 460.999 236 462.999 234 c 1
 463.999 232 464.999 227 465.999 224 c 0
 466.999 221 466.999 216 467.999 213 c 1
 467.999 210 468.999 199 469.999 188 c 0
 470.499 181 470.749 175.5 470.749 170.625 c 0
 470.749 165.75 470.499 161.5 469.999 157 c 0
 468.999 151 466.999 145 466.999 143 c 1
 465.999 142 462.999 134 458.999 126 c 0
 454.999 119 451.999 110 450.999 106 c 0
 449.999 103 447.999 98 445.999 96 c 0
 443.999 94 439.999 88 437.999 84 c 0
 434.999 80 423.999 68 412.999 57 c 0
 401.999 46 390.999 37 389.999 37 c 0
 388.999 37 382.999 35 377.999 34 c 0
 371.999 32 366.999 29 362.999 25 c 1
 358.999 22 354.999 19 352.999 19 c 1
 350.999 18 344.999 17 338.999 15 c 0
 332.999 13 324.999 11 320.999 9 c 0
 315.999 6 311.999 6 299.999 6 c 0
 292.999 6 283.999 5 281.999 5 c 1
 278.999 4 274.999 2 271.999 -1 c 0
 268.999 -3 264.999 -10 261.999 -16 c 0
 257.999 -25 257.999 -26 258.999 -36 c 0
 259.999 -41 259.999 -47 258.999 -48 c 1
 258.999 -50 257.999 -56 257.999 -63 c 0
 257.999 -70 256.999 -77 255.999 -81 c 1
 253.999 -85 251.999 -88 248.999 -89 c 0
 246.999 -90 242.999 -91 240.999 -91 c 0
 238.999 -91 234.999 -90 232.999 -88 c 0
 231.999 -87 228.999 -83 226.999 -79 c 0
 224.999 -75 223.999 -69 223.999 -64 c 0
 223.999 -59 224.999 -53 225.999 -50 c 0
 226.999 -47 226.999 -37 227.999 -27 c 0
 227.999 -9 227.999 -9 223.999 -5 c 0
 220.999 -2 216.999 0 214.999 1 c 0
 212.999 2 208.999 2 204.999 1 c 0
 201.999 0 198.999 -1 197.999 -2 c 1
 197.999 -3 195.999 -3 193.999 -3 c 0
 191.999 -3 188.999 -2 187.999 -2 c 1
 185.999 -1 180.999 1 174.999 3 c 1
 169.999 6 160.999 8 154.999 8 c 1
 149.999 9 143.999 9 141.999 10 c 2
 139.999 10 135.999 13 131.999 17 c 1
 127.999 20 120.999 25 116.999 26 c 0
 111.999 28 106.999 31 105.999 32 c 0
 103.999 34 98.999 36 94.999 37 c 0
 88.999 38 84.999 40 80.999 44 c 1
 77.999 48 75.999 51 75.999 52 c 0
 75.999 53 69.999 59 63.999 65 c 0
 53.999 74 49.999 79 45.999 88 c 0
 42.999 94 39.999 102 38.999 106 c 0
 37.999 110 36.999 114 35.999 115 c 0
 34.999 116 31.999 123 27.999 130 c 0
 21.1064 142.062 20.999 144 21.999 151 c 1
 21.999 156 22.999 163 23.999 167 c 0
 24.999 172 25.999 177 26.999 179 c 0
 27.999 181 30.999 184 31.999 185 c 0
 33.9014 186.902 35.8037 187.599 43.8213 187.599 c 0
 48.4502 187.599 55.1172 187.366 65 187 c 0
 75.667 187 87.2227 186.556 95.5186 186.556 c 0
 99.667 186.556 103 186.667 105 187 c 0
 112 187 118 186 120 185 c 0
 122 184 124 182 125 181 c 0
 126 180 129 176 130 172 c 2
 132 169 133 162 134 158 c 0
 135 153 138 143 141 135 c 0
 144 127 146 120 146 119 c 0
 146 118 153 112 161 104 c 0
 169 97 178 89 182 87 c 0
 187 84 190 84 200 84 c 0
 208 84 214 84 217 86 c 0
 219 87 221 90 222 92 c 0
 223 94 224 97 224 100 c 0
 224 102 225 107 227 111 c 0
 229 117 229 123 229 159 c 0
 229 195 229 200 227 205 c 1
 224 209 224 212 225 221 c 0
 225 228 226 236 227 241 c 0
 228 246 228 251 227 254 c 0
 226 257 224 261 223 262 c 2
 222 264 219 267 215 268 c 2
 212 270 202 273 194 275 c 0
 186 277 178 279 176 280 c 1
 175 281 168 284 161 286 c 0
 154 289 146 292 143 294 c 2
 133 299 l 1
 132 300 129 302 128 303 c 2
 126 304 122 307 117 309 c 0
 113 310 109 313 107 315 c 0
 106 316 101 319 96 321 c 0
 92 323 86 327 83 330 c 0
 80 333 75 339 72 343 c 0
 69 347 65 352 62 355 c 0
 60 357 56 364 53 369 c 1
 51 374 47 382 46 386 c 0
 45 390 44 394 43 395 c 1
 43 395 42 398 42 400 c 0
 42 403 41 410 39 417 c 0
 37 426 36 435 36 449 c 0
 36 460 37 470 38 473 c 2
 38 475 40 482 41 489 c 0
 42 501 43 503 49 512 c 0
 52 517 56 524 57 527 c 2
 59 530 60 534 61 536 c 0
 62 538 66 543 69 548 c 0
 72 552 76 559 79 565 c 0
 81 570 86 576 88 579 c 1
 91 581 96 585 101 587 c 1
 105 590 110 592 111 593 c 0
 112 594 118 597 123 600 c 0
 128 603 134 607 137 608 c 1
 139 610 144 612 146 612 c 1
 149 613 153 614 156 616 c 0
 158 617 163 619 166 621 c 1
 170 622 175 623 179 624 c 1
 182 624 187 626 190 627 c 0
 193 628 199 629 203 629 c 0
 207 629 213 630 215 631 c 2
 217 631 221 634 223 635 c 1
 224 637 227 641 228 643 c 0
 230 647 231 651 230 667 c 0
 230 684 231 688 233 693 c 0
 234 697 238 702 241 704 c 0
EndSplineSet
Validated: 33
EndChar

StartChar: uni0025
Encoding: 37 37 6
Width: 816
GlyphClass: 2
Flags: W
LayerCount: 2
Fore
SplineSet
644 274 m 0
 638 277 633 277.999 625 278.999 c 0
 620 278.999 613 278.999 611 277.999 c 0
 609 276.999 602 272.999 594 267.999 c 1
 587 261.999 578 255.999 576 252.999 c 0
 573 248.999 570 243.999 569 240.999 c 0
 568 237.999 567 229.999 567 222.999 c 0
 567 216.999 567 209.999 566 208.999 c 1
 565 206.999 564 198.999 563 189.999 c 0
 562 180.999 561 172.999 560 171.999 c 0
 559 170.999 558 166.999 558 164.999 c 2
 557 161.999 558 158.999 559 155.999 c 0
 560 152.999 561 144.999 562 130.999 c 0
 562 119.999 564 107.999 565 103.999 c 0
 566 100.999 568 93.999 568 90.999 c 0
 569 84.999 570 81.999 577 74.999 c 0
 582 70.999 589 64.999 593 61.999 c 0
 597 59.999 602 56.999 605 54.999 c 0
 608 52.999 613 52.999 624 52.999 c 0
 632 52.999 641 52.999 644 53.999 c 0
 648 54.999 653 57.999 656 59.999 c 0
 660 61.999 664 66.999 667 72.999 c 0
 669 76.999 673 84.999 676 89.999 c 0
 678 93.999 681 99.999 681 103.999 c 1
 682 106.999 683 112.999 685 116.999 c 0
 687 123.999 687 125.999 685 132.999 c 0
 683 138.999 683 141.999 685 145.999 c 0
 686 147.999 687 158.999 688 168.999 c 0
 688.565 174.658 690.348 194.519 690.348 197.344 c 0
 690.348 201.303 688.876 206.146 685 217 c 0
 681 227 678 235 677 236 c 0
 676 237 675 242 674 246 c 1
 674 250 672 255 671 257 c 1
 669 259 665 263 661 265 c 2
 658 268 654 270 654 270 c 1
 653 270 649 272 644 274 c 0
589 331.999 m 0
 592.17 333.901 594.937 334.598 604.438 334.598 c 0
 609.923 334.598 617.652 334.365 628.999 333.999 c 0
 657.999 333.999 664.999 333.999 670.999 331.999 c 0
 674.999 329.999 680.999 327.999 683.999 326.999 c 1
 685.999 326.999 692.999 323.999 697.999 321.999 c 0
 702.999 319.999 709.999 315.999 713.999 313.999 c 0
 717.999 310.999 725.999 303.999 732.999 296.999 c 0
 741.999 287.999 745.999 282.999 749.999 273.999 c 0
 752.999 267.999 755.999 261.999 755.999 260.999 c 0
 755.999 259.999 756.999 255.999 758.999 251.999 c 0
 760.999 247.999 764.999 237.999 767.999 230.999 c 0
 770.342 223.384 771.312 219.887 771.312 216.889 c 0
 771.312 214.769 770.827 212.898 769.999 209.999 c 0
 768.999 205.999 767.999 199.999 767.999 195.999 c 0
 767.999 191.999 768.999 184.999 768.999 180.999 c 0
 768.999 175.999 768.999 157.999 767.999 140.999 c 0
 767.999 115.999 766.999 106.999 764.999 100.999 c 0
 763.999 96.999 760.999 89.999 758.999 85.999 c 0
 756.999 81.999 752.999 74.999 750.999 69.999 c 0
 748.999 65.999 745.999 59.999 744.999 55.999 c 0
 743.999 52.999 742.999 48.999 741.999 46.999 c 0
 740.999 44.999 736.999 39.999 733.999 35.999 c 1
 729.999 31.999 725.999 28.999 724.999 28.999 c 0
 723.999 28.999 722.999 27.999 721.999 26.999 c 0
 720.999 25.999 718.999 24.999 716.999 23.999 c 1
 714.999 23.999 709.999 20.999 705.999 18.999 c 0
 701.999 16.999 696.999 13.999 694.999 11.999 c 1
 691.999 10.999 684.999 8.99902 677.999 7.99902 c 0
 667.999 5.99902 663.999 4.99902 654.999 -0.000976562 c 0
 645.999 -6.00098 643.999 -6.00098 631.999 -7.00098 c 0
 629.588 -7.26855 627.104 -7.39258 624.568 -7.39258 c 0
 617.641 -7.39258 610.32 -6.46484 603 -5.00098 c 0
 595 -4.00098 584 -2.00098 578 -1.00098 c 1
 573 0.999023 567 2.99902 566 3.99902 c 0
 565 4.99902 560 7.99902 555 9.99902 c 1
 550 12.999 545 15.999 544 16.999 c 2
 542 17.999 540 18.999 538 20.999 c 0
 537 21.999 533 24.999 529 26.999 c 0
 526 28.999 521 31.999 520 34.999 c 2
 518 36.999 512 47.999 507 58.999 c 0
 501 70.999 495 83.999 492 88.999 c 1
 490 93.999 487 100.999 486 103.999 c 1
 486 107.999 484 111.999 484 111.999 c 1
 483 112.999 482 118.999 482 125.999 c 1
 481 131.999 480 139.999 479 141.999 c 0
 477 144.999 476 150.999 476 158.999 c 0
 476 167.999 477 174.999 479 180.999 c 0
 481 185.999 482 191.999 482 195.999 c 0
 482 199.999 483 206.999 485 212.999 c 0
 487 218.999 489 225.999 490 228.999 c 1
 492 231.999 493 239.999 494 246.999 c 0
 495 257.999 495 260.999 499 265.999 c 0
 502 269.999 505 274.999 506 277.999 c 1
 508 280.999 515 288.999 521 294.999 c 0
 528 300.999 535 306.999 538 307.999 c 0
 540 308.999 544 312.999 547 315.999 c 0
 552 320.999 556 322.999 565 324.999 c 0
 572 326.999 579 328.999 580 328.999 c 0
 582 328.999 585 329.999 589 331.999 c 0
216.999 639.999 m 0
 211.999 640.999 203.999 642.999 199.999 642.999 c 0
 194.999 642.999 188.999 642.999 184.999 641.999 c 2
 180.999 641.999 173.999 639.999 169.999 638.999 c 1
 165.999 636.999 159.999 634.999 157.999 632.999 c 0
 154.999 630.999 151.999 627.999 150.999 624.999 c 0
 149.999 622.999 146.999 617.999 144.999 613.999 c 0
 141.999 609.999 137.999 601.999 134.999 596.999 c 0
 130.999 587.999 130.999 587.999 131.999 571.999 c 0
 132.875 557.99 131.999 554.999 129.999 547.999 c 0
 128.499 544.499 127.749 542.499 127.749 540.624 c 0
 127.749 538.749 128.499 536.999 129.999 533.999 c 1
 130.999 529.999 131.999 519.999 132.999 510.999 c 0
 133.999 501.999 132.999 494.999 132.999 492.999 c 1
 131.999 490.999 130.999 484.999 131.999 475.999 c 0
 132.999 464.999 133.999 459.999 136.999 453.999 c 1
 139.999 449.999 143.999 442.999 147.999 438.999 c 2
 150.999 434.999 154.999 429.999 155.999 428.999 c 0
 156.999 427.999 160.999 424.999 164.999 421.999 c 0
 170.999 417.999 171.999 417.999 186.999 417.999 c 0
 198.999 417.999 204.999 418.999 214.999 421.999 c 0
 225.999 425.999 227.999 426.999 232.999 431.999 c 1
 234.999 435.999 238.999 441.999 241.999 446.999 c 1
 243.999 451.999 245.999 459.999 246.999 464.999 c 0
 247.999 470.999 248.999 478.999 250.999 482.999 c 1
 251.999 486.999 252.999 494.999 252.999 499.999 c 0
 252.999 505.999 253.999 512.999 253.999 516.999 c 1
 255.999 521.999 255.999 525.999 253.999 535.999 c 0
 252.999 541.999 251.999 556.999 251.999 567.999 c 0
 250.999 584.999 250.999 588.999 244.999 605.999 c 0
 239.999 622.999 237.999 625.999 232.999 630.999 c 0
 227.999 635.999 223.999 637.999 216.999 639.999 c 0
172.999 698.999 m 1
 175.12 699.706 178.24 700.413 186.604 700.413 c 0
 190.069 700.413 194.434 700.292 199.999 699.999 c 0
 212.999 699.999 224.999 697.999 226.999 696.999 c 0
 229.999 695.999 234.999 694.999 238.999 693.999 c 1
 242.999 693.999 250.999 691.999 255.999 689.999 c 2
 261.999 688.999 270.999 684.999 275.999 682.999 c 1
 280.999 679.999 289.999 673.999 295.999 668.999 c 0
 302.999 663.999 308.999 658.999 310.999 656.999 c 1
 312.999 655.999 314.999 650.999 315.999 647.999 c 0
 316.999 643.999 319.999 636.999 322.999 631.999 c 0
 326.999 624.999 327.999 621.999 327.999 613.999 c 0
 327.999 608.999 327.999 603.999 328.999 602.999 c 1
 329.999 600.999 330.999 595.999 331.999 591.999 c 0
 332.999 587.999 334.999 582.999 335.999 580.999 c 0
 336.999 577.999 336.999 567.999 336.999 542.999 c 0
 336.999 518.999 335.999 504.999 334.999 495.999 c 1
 332.999 488.999 330.999 475.999 329.999 468.999 c 0
 328.999 460.999 327.999 451.999 326.999 448.999 c 2
 326.999 445.999 324.999 440.999 322.999 437.999 c 2
 321.999 434.999 316.999 428.999 312.999 422.999 c 1
 307.999 417.999 302.999 409.999 300.999 406.999 c 0
 297.999 403.999 295.999 400.999 294.999 400.999 c 0
 293.999 400.999 288.999 396.999 283.999 391.999 c 0
 277.999 386.999 271.999 381.999 268.999 379.999 c 1
 265.999 378.999 259.999 375.999 254.999 373.999 c 0
 249.999 371.999 240.999 367.999 233.999 365.999 c 0
 222.999 361.999 220.999 360.999 193.999 360.999 c 0
 168.999 360.999 164.999 361.999 155.999 364.999 c 0
 150.999 365.999 145.999 367.999 144.999 368.999 c 0
 143.999 369.999 135.999 371.999 126.999 373.999 c 0
 109.999 378.999 109.999 378.999 99.999 388.999 c 0
 93.999 393.999 86.999 399.999 84.999 400.999 c 0
 82.999 401.999 79.999 404.999 78.999 405.999 c 1
 77.999 407.999 75.999 410.999 75.999 413.999 c 1
 74.999 415.999 72.999 419.999 70.999 422.999 c 0
 68.999 425.999 65.999 431.999 64.999 435.999 c 2
 62.999 439.999 59.999 446.999 57.999 450.999 c 0
 53.999 457.999 53.999 461.999 52.999 477.999 c 0
 51.999 490.999 50.999 497.999 48.999 503.999 c 1
 45.999 509.999 45.999 513.999 45.999 539.999 c 0
 45.999 564.999 46.999 569.999 48.999 573.999 c 0
 50.999 576.999 51.999 583.999 52.999 588.999 c 0
 53.999 593.999 54.999 601.999 55.999 604.999 c 1
 57.999 607.999 59.999 612.999 61.999 616.999 c 0
 62.999 619.999 64.999 622.999 65.999 624.999 c 1
 66.999 625.999 68.999 630.999 70.999 634.999 c 0
 72.999 639.999 74.999 643.999 74.999 644.999 c 0
 74.999 645.999 80.999 652.999 88.999 661.999 c 0
 96.999 669.999 107.999 678.999 113.999 682.999 c 0
 121.999 687.999 126.999 689.999 134.999 691.999 c 0
 140.999 692.999 150.999 693.999 156.999 694.999 c 0
 162.999 695.999 169.999 696.999 172.999 698.999 c 1
559.998 700.999 m 0
 563.998 702.999 569.998 704.999 572.998 704.999 c 0
 576.998 704.999 578.998 703.999 583.998 698.999 c 0
 587.998 694.999 590.998 690.999 590.998 688.999 c 0
 590.998 686.999 587.998 680.999 584.998 673.999 c 2
 575.998 651.999 l 1
 574.998 645.999 571.998 639.999 570.998 636.999 c 1
 568.998 633.999 566.998 629.999 565.998 628.999 c 0
 564.998 627.999 563.998 625.999 562.998 622.999 c 1
 562.998 620.999 560.998 614.999 557.998 607.999 c 0
 555.998 601.999 551.998 594.999 549.998 592.999 c 1
 548.998 590.999 544.998 584.999 542.998 579.999 c 0
 540.998 574.999 537.998 568.999 535.998 566.999 c 0
 534.998 565.999 533.998 562.999 533.998 560.999 c 0
 533.998 558.999 532.998 555.999 530.998 553.999 c 1
 529.998 551.999 527.998 547.999 526.998 544.999 c 0
 524.998 540.999 521.998 533.999 519.998 528.999 c 2
 516.998 523.999 514.998 518.999 513.998 517.999 c 0
 512.998 516.999 506.998 504.999 499.998 491.999 c 0
 492.998 478.999 486.998 462.999 484.998 457.999 c 0
 482.998 451.999 478.998 444.999 476.998 440.999 c 0
 473.998 436.999 469.998 429.999 466.998 424.999 c 1
 464.998 418.999 461.998 413.999 461.998 412.999 c 1
 460.998 411.999 458.998 407.999 456.998 403.999 c 0
 454.998 400.999 451.998 396.999 451.998 394.999 c 1
 450.998 392.999 449.998 388.999 447.998 385.999 c 1
 446.998 382.999 444.998 376.999 444.998 372.999 c 1
 443.998 368.999 441.998 363.999 438.998 360.999 c 0
 436.998 357.999 433.998 351.999 431.998 347.999 c 1
 430.998 343.999 426.998 336.999 423.998 332.999 c 0
 420.998 328.999 416.998 321.999 414.998 316.999 c 2
 411.998 311.999 409.998 304.999 408.998 301.999 c 1
 408.998 298.999 406.998 294.999 405.998 292.999 c 0
 404.998 289.999 400.998 285.999 397.998 281.999 c 0
 394.998 277.999 391.998 273.999 391.998 270.999 c 1
 390.998 268.999 388.998 263.999 386.998 261.999 c 0
 384.998 258.999 380.998 253.999 379.998 250.999 c 2
 374.998 240.999 l 2
 373.998 238.999 370.998 233.999 368.998 228.999 c 1
 365.998 224.999 362.998 217.999 361.998 213.999 c 0
 360.998 209.999 358.998 202.999 356.998 197.999 c 0
 355.998 193.999 352.998 187.999 349.998 184.999 c 2
 342.998 174.999 l 1
 341.998 171.999 339.998 165.999 338.998 159.999 c 2
 336.998 153.999 335.998 147.999 334.998 145.999 c 1
 333.998 144.999 331.998 141.999 330.998 140.999 c 0
 329.998 139.999 325.998 132.999 322.998 124.999 c 0
 318.998 116.999 314.998 109.999 313.998 108.999 c 1
 313.998 106.999 311.998 103.999 310.998 100.999 c 0
 309.998 97.999 306.998 93.999 303.998 90.999 c 1
 301.998 86.999 297.998 79.999 294.998 73.999 c 1
 292.998 66.999 288.998 56.999 285.998 50.999 c 0
 282.998 44.999 279.998 38.999 278.998 37.999 c 0
 277.998 36.999 276.998 33.999 275.998 30.999 c 0
 274.998 28.999 272.998 25.999 271.998 25.999 c 1
 270.998 24.999 269.998 22.999 269.998 19.999 c 1
 268.998 17.999 266.998 12.999 263.998 9.99902 c 0
 260.998 5.99902 256.998 0.999023 254.998 -3.00098 c 0
 252.998 -7.00098 248.998 -11.001 245.998 -12.001 c 2
 243.998 -14.001 239.998 -15.001 236.998 -15.001 c 0
 234.998 -15.001 228.998 -14.001 224.998 -12.001 c 0
 217.998 -10.001 216.998 -9.00098 214.998 -4.00098 c 0
 213.998 -1.00098 212.998 4.99902 213.998 7.99902 c 2
 213.998 11.999 215.998 16.999 217.998 19.999 c 0
 219.998 22.999 221.998 27.999 222.998 30.999 c 1
 222.998 33.999 226.998 39.999 230.998 44.999 c 0
 234.998 49.999 242.998 64.999 248.998 76.999 c 0
 254.998 88.999 261.998 102.999 263.998 107.999 c 0
 265.998 112.999 268.998 118.999 269.998 122.999 c 1
 271.998 125.999 274.998 132.999 277.998 137.999 c 2
 279.998 142.999 282.998 148.999 283.998 150.999 c 1
 284.998 151.999 286.998 154.999 287.998 156.999 c 2
 289.998 158.999 290.998 161.999 291.998 164.999 c 1
 291.998 166.999 294.998 171.999 297.998 175.999 c 0
 300.998 179.999 302.998 185.999 303.998 189.999 c 0
 304.998 192.999 305.998 197.999 307.998 199.999 c 1
 308.998 201.999 309.998 203.999 309.998 204.999 c 0
 309.998 205.999 310.998 209.999 312.998 213.999 c 0
 314.998 216.999 316.998 220.999 317.998 220.999 c 1
 318.998 221.999 319.998 223.999 320.998 226.999 c 1
 322.998 228.999 324.998 234.999 327.998 237.999 c 1
 329.998 241.999 332.998 248.999 333.998 251.999 c 0
 334.998 255.999 337.998 261.999 339.998 265.999 c 0
 342.998 269.999 344.998 273.999 344.998 273.999 c 1
 344.998 274.999 345.998 276.999 346.998 277.999 c 1
 348.998 278.999 349.998 282.999 350.998 286.999 c 0
 351.998 290.999 357.998 302.999 362.998 313.999 c 0
 368.998 325.999 372.998 335.999 372.998 335.999 c 1
 372.998 336.999 375.998 340.999 378.998 344.999 c 0
 382.998 349.999 385.998 354.999 386.998 357.999 c 0
 387.998 360.999 388.998 364.999 389.998 366.999 c 1
 389.998 367.999 393.998 376.999 397.998 384.999 c 0
 401.998 392.999 406.998 402.999 409.998 405.999 c 1
 411.998 409.999 414.998 413.999 415.998 416.999 c 1
 417.998 418.999 418.998 422.999 419.998 425.999 c 0
 420.998 428.999 422.998 434.999 423.998 439.999 c 1
 425.998 444.999 429.998 452.999 432.998 457.999 c 0
 435.998 463.999 440.998 472.999 442.998 478.999 c 0
 444.998 483.999 448.998 490.999 450.998 493.999 c 0
 453.998 496.999 455.998 500.999 456.998 502.999 c 0
 457.998 504.999 458.998 508.999 458.998 510.999 c 0
 458.998 513.999 458.998 516.999 459.998 518.999 c 0
 460.998 520.999 463.998 524.999 466.998 528.999 c 0
 469.998 531.999 474.998 541.999 478.998 550.999 c 0
 481.998 558.999 485.998 568.999 486.998 570.999 c 2
 492.998 582.999 l 1
 495.998 586.999 497.998 590.999 497.998 591.999 c 1
 502.998 598.999 l 2
 505.998 601.999 510.998 609.999 513.998 616.999 c 0
 516.998 623.999 521.998 636.999 524.998 646.999 c 0
 528.998 657.999 531.998 664.999 535.998 668.999 c 0
 537.998 671.999 540.998 676.999 541.998 679.999 c 0
 542.998 682.999 544.998 687.999 547.998 690.999 c 0
 549.998 693.999 554.998 697.999 559.998 700.999 c 0
EndSplineSet
Validated: 33
EndChar

StartChar: uni0026
Encoding: 38 38 7
Width: 673
GlyphClass: 2
Flags: W
LayerCount: 2
Fore
SplineSet
235 313 m 0
 232 314 227.998 314 225.998 314 c 0
 224.998 314 219.998 313 214.998 311 c 0
 210.998 310 205.998 308 203.998 308 c 1
 202.998 307 199.998 306 198.998 304 c 1
 196.998 303 193.998 299 190.998 295 c 0
 187.998 290 179.998 281 172.998 273 c 0
 162.998 263 159.998 258 158.998 254 c 0
 157.998 251 155.998 246 152.998 241 c 0
 150.998 237 148.998 232 148.998 228 c 0
 148.998 225 147.998 219 145.998 214 c 0
 144.534 209.607 143.606 205.751 143.606 202.038 c 0
 143.606 197.03 146.056 184.543 146.999 176.999 c 0
 147.999 164.999 149.999 159.999 152.999 153.999 c 1
 155.999 149.999 157.999 145.999 157.999 145.999 c 1
 157.999 145.999 159.999 140.999 162.999 134.999 c 0
 165.999 128.999 170.999 120.999 173.999 116.999 c 1
 177.999 112.999 182.999 106.999 185.999 103.999 c 0
 189.999 100.999 195.999 96.999 198.999 94.999 c 0
 202.999 92.999 207.999 89.999 209.999 88.999 c 0
 212.999 86.999 217.999 83.999 221.999 82.999 c 1
 225.999 82.999 232.999 80.999 236.999 78.999 c 2
 240.999 77.999 247.999 75.999 250.999 74.999 c 0
 254.999 73.999 257.999 73.999 261.999 75.999 c 0
 264.999 76.999 269.999 77.999 273.999 77.999 c 0
 277.999 77.999 283.999 76.999 285.999 75.999 c 0
 288.999 73.999 293.999 72.999 297.999 72.999 c 0
 300.999 72.999 306.999 74.999 311.999 75.999 c 1
 316.999 77.999 321.999 80.999 325.999 84.999 c 0
 329.999 88.999 332.999 90.999 337.999 91.999 c 0
 341.999 92.999 350.999 96.999 358.999 100.999 c 2
 383.999 111.999 l 2
 389.999 114.999 396.999 118.999 399.999 120.999 c 1
 401.999 123.999 404.999 128.999 405.999 131.999 c 0
 406.898 134.696 407.394 136.383 407.394 137.695 c 0
 407.394 139.303 406.651 140.349 405 142 c 2
 404 144 401 147 398 148 c 0
 396 149 390 154 385 159 c 0
 381 164 377 168 377 169 c 0
 377 170 374 175 370 180 c 0
 366 185 363 190 362 190 c 1
 362 190 354 196 346 204 c 0
 337 212 327 220 323 223 c 0
 318 226 314 230 309 238 c 0
 305 244 299 251 294 254 c 0
 290 257 284 263 281 268 c 0
 278 272 272 278 268 281 c 0
 265 283 260 287 259 288 c 1
 258 290 255 293 254 296 c 0
 253 299 250 303 247 306 c 0
 244 309 239 312 235 313 c 0
292.998 612 m 0
 286.998 613 275.998 614 267.998 614 c 0
 256.998 614 251.998 613 242.998 611 c 0
 236.998 609 231.998 607 229.998 607 c 0
 228.998 607 224.998 605 221.998 603 c 0
 217.998 601 213.998 597 211.998 595 c 0
 209.998 593 206.998 589 205.998 586 c 1
 205.998 583 204.998 579 204.998 577 c 0
 204.998 574 202.998 568 200.998 563 c 0
 197.998 554 197.998 553 198.998 539 c 0
 199.998 531 200.998 523 201.998 521 c 0
 202.998 519 206.998 513 209.998 507 c 0
 212.998 501 216.998 494 217.998 492 c 0
 218.998 490 223.998 484 226.998 478 c 1
 230.998 473 234.998 467 235.998 466 c 2
 236.998 464 241.998 461 245.998 458 c 0
 250.998 455 254.998 452 255.998 451 c 1
 255.998 450 259.998 447 263.998 444 c 0
 268.998 440 272.998 438 275.998 438 c 0
 277.998 438 281.998 440 284.998 442 c 0
 287.998 444 290.998 445 291.998 445 c 1
 291.998 445 294.998 447 297.998 450 c 0
 300.998 452 304.998 458 306.998 462 c 0
 309.998 469 312.998 472 318.998 475 c 0
 323.998 478 326.998 482 329.998 487 c 0
 331.998 491 333.998 496 335.998 498 c 1
 336.998 500 341.998 509 345.998 517 c 0
 352.998 530 353.998 534 354.998 542 c 0
 354.998 549 353.998 553 349.998 566 c 0
 346.998 574 343.998 584 341.998 586 c 2
 340.998 589 337.998 593 335.998 595 c 0
 333.998 597 329.998 600 327.998 601 c 0
 324.998 603 319.998 605 316.998 607 c 0
 312.998 609 308.998 610 306.998 610 c 0
 304.998 610 297.998 611 292.998 612 c 0
253.998 689 m 2
 257.998 690 266.998 690 273.998 691 c 1
 282.998 691 290.998 690 300.998 687 c 0
 308.998 685 318.998 683 322.998 683 c 0
 326.998 683 332.998 682 336.998 680 c 0
 341.998 678 347.998 677 360.998 676 c 0
 372.998 676 378.998 675 381.998 673 c 0
 384.998 671 387.998 670 387.998 669 c 0
 387.998 668 390.998 666 392.998 665 c 0
 395.998 664 398.998 662 401.998 661 c 0
 403.998 660 409.998 655 415.998 650 c 0
 420.998 646 427.998 639 430.998 635 c 0
 433.998 630 439.998 623 444.998 619 c 0
 449.998 614 453.998 609 453.998 609 c 1
 453.998 608 454.998 605 455.998 602 c 1
 457.998 599 458.998 595 458.998 593 c 0
 458.998 592 460.998 586 461.998 580 c 1
 463.998 574 465.998 566 467.998 562 c 1
 468.998 558 469.998 550 470.998 545 c 1
 470.998 537 470.998 534 467.998 529 c 1
 466.998 526 464.998 520 463.998 515 c 1
 463.998 510 461.998 506 458.998 501 c 1
 455.998 498 452.998 493 452.998 490 c 1
 451.998 488 450.998 483 448.998 480 c 1
 444.998 468 l 2
 442.998 463 437.998 457 421.998 440 c 0
 402.998 421 400.998 418 387.998 412 c 0
 380.998 408 371.998 402 367.998 399 c 1
 363.998 395 358.998 391 355.998 390 c 0
 351.998 388 347.998 385 346.998 384 c 2
 344.998 383 342.998 379 341.998 376 c 0
 340.998 373 340.998 370 340.998 368 c 1
 341.998 366 344.998 361 348.998 355 c 0
 351.998 350 358.998 342 363.998 338 c 0
 367.998 334 372.998 331 372.998 331 c 1
 373.998 331 375.998 329 378.998 327 c 0
 380.998 325 384.998 323 385.998 321 c 2
 387.998 319 390.998 315 393.998 310 c 0
 396.998 306 403.998 298 409.998 293 c 2
 414.998 287 421.998 281 424.998 278 c 2
 447.998 254 l 2
 462.998 238 466.998 235 471.998 234 c 0
 475.998 233 480.998 232 483.998 232 c 0
 488.998 232 490.998 232 493.998 235 c 0
 495.998 237 498.998 241 499.998 243 c 0
 500.998 245 502.998 252 503.998 257 c 0
 504.998 263 506.998 271 508.998 275 c 0
 510.998 279 512.998 286 513.998 290 c 1
 513.998 295 515.998 302 516.998 305 c 0
 518.998 311 517.998 312 515.998 318 c 0
 513.998 325 513.998 325 515.998 330 c 0
 517.998 335 518.998 342 518.998 367 c 0
 519.998 391 519.998 400 521.998 404 c 0
 522.998 406 525.998 410 528.998 411 c 2
 532.998 414 535.998 414 545.998 414 c 0
 551.998 414 558.998 415 561.998 416 c 0
 564.998 417 570.998 417 574.998 417 c 0
 578.998 417 585.998 416 589.998 415 c 0
 593.998 414 601.998 413 608.998 412 c 0
 615.998 411 622.998 409 627.998 407 c 1
 632.998 404 635.998 402 637.998 397 c 1
 640.998 392 641.998 388 641.998 379 c 0
 641.998 371 640.998 367 637.998 363 c 0
 634.998 358 634.998 355 634.998 339 c 0
 633.998 325 632.998 320 630.998 315 c 0
 629.998 311 627.998 307 627.998 304 c 0
 627.998 302 626.998 297 625.998 294 c 0
 624.998 291 622.998 286 622.998 282 c 0
 621.998 277 619.998 269 618.998 262 c 0
 617.998 256 615.998 248 613.998 245 c 0
 612.998 243 610.998 237 610.998 233 c 0
 609.998 226 609.998 224 602.998 216 c 0
 596.998 210 594.998 206 593.998 201 c 0
 592.998 197 590.998 193 585.998 187 c 0
 579.998 181 576.998 176 572.998 166 c 0
 569.998 158 567.998 150 566.998 148 c 1
 566.998 146 567.998 141 568.998 137 c 1
 571.998 131 576.998 125 593.998 108 c 0
 605.998 96 617.998 81 621.998 76 c 0
 626.998 69 630.998 64 639.998 58 c 0
 645.998 53 653.998 46 657.998 43 c 1
 660.998 39 665.998 34 666.998 32 c 0
 667.998 30 669.998 26 669.998 24 c 0
 669.998 21 667.998 18 664.998 15 c 0
 661.998 12 656.998 8 652.998 6 c 0
 648.998 4 643.998 3 640.998 3 c 0
 637.998 3 633.998 4 631.998 4 c 1
 630.998 5 625.998 7 620.998 8 c 0
 616.998 9 607.998 10 600.998 10 c 0
 594.998 10 580.998 10 571.998 9 c 0
 555.998 8 552.998 9 545.998 11 c 0
 540.998 13 534.998 16 532.998 17 c 1
 530.998 19 527.998 21 526.998 23 c 1
 524.998 24 521.998 29 519.998 32 c 0
 517.998 36 511.998 43 506.998 48 c 0
 501.998 53 495.998 59 492.998 60 c 2
 489.998 62 484.998 64 481.998 65 c 0
 475.998 66 475.998 66 467.998 61 c 0
 463.998 58 457.998 53 454.998 50 c 0
 450.998 47 445.998 44 442.998 43 c 0
 439.998 42 434.998 39 430.998 38 c 1
 427.998 36 421.998 32 417.998 30 c 1
 414.998 27 408.998 24 405.998 23 c 0
 401.998 22 395.998 19 390.998 17 c 0
 386.998 15 381.998 13 381.998 13 c 1
 380.998 13 368.998 10 355.998 5 c 0
 342.998 1 328.998 -3 324.998 -4 c 0
 320.998 -5 310.998 -6 301.998 -6 c 0
 292.998 -6 284.998 -7 281.998 -8 c 0
 276.998 -10 272.998 -10 257.998 -10 c 0
 245.998 -9 237.998 -8 233.998 -6 c 0
 230.998 -5 221.996 -4.0498 200.998 -3 c 0
 180.998 -2 171.998 -1 167.998 0 c 1
 164.998 2 158.998 5 155.998 7 c 0
 151.998 10 146.998 13 143.998 14 c 2
 140.998 16 135.998 18 131.998 19 c 0
 128.998 20 123.998 22 120.998 23 c 0
 117.998 24 112.998 26 109.998 28 c 0
 106.998 30 102.998 32 101.998 33 c 0
 100.998 34 97.998 35 95.998 37 c 2
 93.998 38 88.998 42 85.998 45 c 0
 81.998 49 70.998 61 60.998 72 c 0
 42.998 90 40.998 92 34.998 105 c 0
 29.998 117 28.998 121 28.998 129 c 0
 28.998 136 27.998 140 23.998 147 c 0
 19.998 156 19.998 156 19.998 181 c 0
 19.998 195 20.998 212 20.998 219 c 1
 21.998 226 22.998 235 23.998 239 c 0
 24.998 243 28.998 253 32.998 261 c 0
 36.998 269 40.998 279 42.998 282 c 2
 43.998 286 49.998 293 59.998 303 c 0
 69.998 314 75.998 321 78.998 327 c 0
 81.998 334 86.998 340 101.998 354 c 0
 117.998 370 121.998 373 128.998 376 c 0
 133.998 378 139.998 381 141.998 383 c 0
 144.998 385 147.998 389 149.998 391 c 1
 150.998 393 151.998 396 150.998 400 c 2
 150.998 403 148.998 407 147.998 410 c 0
 146.998 412 143.998 418 139.998 422 c 2
 136.998 426 130.998 432 126.998 435 c 0
 122.998 437 117.998 442 115.998 445 c 0
 113.998 449 111.998 452 111.998 452 c 1
 111.998 453 110.998 455 109.998 456 c 0
 107.998 458 104.998 463 100.998 468 c 0
 97.998 473 93.998 479 92.998 481 c 0
 90.998 484 88.998 490 86.998 495 c 0
 84.998 500 81.998 509 80.998 514 c 2
 77.998 521 77.998 526 77.998 541 c 0
 77.998 557 78.998 561 82.998 572 c 0
 85.998 580 88.998 588 90.998 591 c 0
 93.998 595 94.998 599 95.998 605 c 0
 96.998 613 96.998 614 112.998 631 c 0
 121.998 640 130.998 649 132.998 650 c 0
 134.998 651 141.998 655 147.998 659 c 0
 154.998 663 162.998 667 164.998 668 c 0
 167.998 669 174.998 670 179.998 671 c 0
 185.998 672 191.998 674 198.998 677 c 0
 205.998 681 210.998 682 219.998 683 c 0
 226.998 683 234.998 685 238.998 686 c 0
 242.998 687 249.998 689 253.998 689 c 2
EndSplineSet
Validated: 33
EndChar

StartChar: uni0027
Encoding: 39 39 8
Width: 291
GlyphClass: 2
Flags: W
LayerCount: 2
Fore
SplineSet
149 718 m 0
 156.778 718.707 168.058 719.414 177.532 719.414 c 0
 181.457 719.414 185.072 719.293 188.001 719 c 0
 199.001 719 210.001 718 213.001 717 c 0
 216.001 716 220.001 714 222.001 711 c 0
 224.001 709 226.001 705 226.001 703 c 0
 226.001 701 223.001 695 221.001 689 c 1
 218.001 684 214.001 676 213.001 672 c 2
 211.001 668 209.001 663 209.001 660 c 1
 208.001 658 207.001 653 205.001 650 c 0
 203.001 647 202.001 644 201.001 643 c 1
 200.001 643 199.001 639 198.001 635 c 0
 197.001 630 194.001 624 191.001 620 c 0
 188.001 617 186.001 613 186.001 612 c 0
 186.001 611 184.001 607 181.001 604 c 0
 178.001 600 174.001 594 172.001 590 c 0
 170.001 586 168.001 582 168.001 581 c 0
 168.001 580 167.001 579 166.001 578 c 0
 165.001 577 164.001 572 162.001 568 c 1
 161.001 563 159.001 556 158.001 552 c 0
 157.001 548 153.001 541 151.001 536 c 1
 148.001 531 141.001 521 135.001 515 c 0
 125.001 504 123.001 502 117.001 501 c 0
 115.829 500.707 114.229 500.586 112.324 500.586 c 0
 107.729 500.586 101.364 501.293 95 502 c 0
 85 503 77 505 73 507 c 0
 70 508 66 511 65 513 c 2
 63.5361 514.464 62.6084 515.928 62.6084 519.746 c 0
 62.6084 521.144 62.7324 522.856 63 525 c 0
 63 531 64 536 65 537 c 0
 66 538 67 542 68 545 c 0
 69 549 72 557 75 562 c 0
 78 568 80 576 81 579 c 1
 81 583 83 589 85 594 c 1
 86 599 87 605 88 608 c 1
 88 611 89 617 90 622 c 1
 92 626 93 633 93 636 c 0
 93 641 95 646 98 653 c 0
 100 658 104 669 107 678 c 0
 109 686 112 695 113 697 c 0
 114 700 115 702 115 703 c 0
 115 704 117 706 119 709 c 0
 121 711 124 713 126 714 c 1
 128 716 138 717 149 718 c 0
EndSplineSet
Validated: 1
EndChar

StartChar: uni0028
Encoding: 40 40 9
Width: 278
GlyphClass: 2
Flags: W
LayerCount: 2
Fore
SplineSet
165 782 m 0
 168.66 783.464 172.32 784.392 178.727 784.392 c 0
 181.071 784.392 183.784 784.268 187 784 c 0
 198 783 204 782 209 780 c 1
 212 778 217 775 220 772 c 0
 222 769 224 766 224 764 c 0
 224 762 222 754 219 746 c 0
 217 737 214 728 212 724 c 0
 210 721 209 715 208 711 c 1
 208 707 206 698 204 692 c 0
 202 686 199 676 199 669 c 1
 198 663 195 652 193 645 c 0
 190 638 188 630 187 629 c 2
 186 627 184 624 182 622 c 1
 181 620 180 614 179 610 c 1
 179 605 177 598 176 594 c 0
 175 589 172 581 171 576 c 0
 169 570 168 562 168 552 c 0
 168 545 167 536 167 532 c 1
 166 528 164 522 163 517 c 1
 160 509 160 507 162 498 c 0
 164 490 164 486 162 480 c 0
 161 476 159 471 158 468 c 1
 156 465 155 459 155 447 c 2
 155 408 l 2
 155 396 156 382 156 378 c 0
 157 373 157 367 156 361 c 1
 156 356 155 335 155 314 c 0
 156 286 156 274 158 272 c 1
 159 270 161 264 162 259 c 0
 163 253 164 244 164 237 c 1
 165 231 166 225 166 224 c 1
 167 223 169 219 170 214 c 0
 171 210 173 203 173 199 c 0
 173 194 176 188 179 182 c 0
 184 173 184 171 184 161 c 0
 184 154 185 145 186 141 c 1
 188 137 189 126 190 118 c 0
 191 109 192 102 193 99 c 1
 195 97 197 92 199 88 c 0
 200 85 203 77 205 71 c 1
 206 65 208 56 209 51 c 0
 210 47 212 42 213 41 c 0
 214 40 216 35 218 31 c 0
 220 26 222 20 223 18 c 0
 224 15 226 9 227 4 c 0
 228 0 228 -6 228 -9 c 0
 228 -14 227 -16 223 -20 c 0
 218 -26 218 -26 202 -27 c 0
 192 -28 179 -28 172 -28 c 0
 162 -27 157 -26 154 -24 c 0
 152 -23 148 -19 146 -15 c 0
 144 -11 141 -6 139 -3 c 0
 137 -1 135 4 135 7 c 1
 134 10 133 15 132 18 c 1
 132 20 130 24 130 26 c 1
 129 27 127 31 126 34 c 0
 125 38 122 45 121 50 c 2
 119 55 115 68 112 79 c 0
 108 90 102 106 99 115 c 0
 96 124 94 136 93 142 c 0
 92 150 91 155 89 157 c 0
 87 159 84 164 82 169 c 0
 79 175 78 179 78 190 c 0
 78 200 78 205 75 212 c 0
 73 217 71 224 70 228 c 0
 69 232 69 242 69 250 c 0
 69 259 68 267 66 273 c 0
 64 279 62 286 61 291 c 0
 60 295 57 304 55 309 c 0
 53 315 52 322 52 324 c 0
 52 327 53 332 54 337 c 0
 55 341 56 352 56 361 c 0
 57 374 56 378 54 382 c 0
 53 385 52 388 52 389 c 0
 52 391 53 395 55 399 c 0
 57 405 58 411 58 424 c 0
 58 436 58 443 60 446 c 1
 61 449 63 458 63 466 c 0
 64 474 65 482 66 485 c 1
 68 488 69 497 70 508 c 0
 70 519 72 530 73 535 c 0
 74 539 75 546 75 550 c 0
 75 553 76 559 78 561 c 1
 79 563 80 570 80 576 c 0
 81 585 82 589 85 596 c 0
 88 601 91 608 92 612 c 0
 93 616 96 621 98 624 c 0
 101 628 103 632 103 638 c 1
 104 642 106 648 107 651 c 1
 109 654 110 659 110 664 c 1
 109 669 110 675 112 678 c 0
 114 682 115 687 116 690 c 1
 116 692 117 695 118 696 c 0
 119 697 120 700 121 703 c 0
 122 706 124 712 127 716 c 1
 129 722 131 727 131 736 c 1
 132 742 134 751 136 756 c 0
 138 763 141 766 148 772 c 0
 154 777 161 781 165 782 c 0
EndSplineSet
Validated: 33
EndChar

StartChar: uni0029
Encoding: 41 41 10
Width: 267
GlyphClass: 2
Flags: W
LayerCount: 2
Fore
SplineSet
73 762 m 1
 73.5 762.5 75.501 762.749 78.376 762.749 c 0
 81.251 762.749 85.001 762.499 89.001 761.999 c 0
 97.001 761.999 106.001 760.999 109.001 759.999 c 0
 113.001 758.999 117.001 755.999 125.001 747.999 c 0
 131.001 740.999 136.001 734.999 137.001 732.999 c 0
 138.001 730.999 140.001 725.999 140.001 721.999 c 1
 141.001 717.999 143.001 708.999 146.001 703.999 c 0
 149.001 697.999 153.001 688.999 154.001 684.999 c 2
 156.001 680.999 157.001 673.999 157.001 670.999 c 0
 157.001 665.999 159.001 657.999 162.001 649.999 c 2
 171.001 626.999 l 1
 178.001 608.999 l 1
 179.001 603.999 181.001 595.999 181.001 590.999 c 1
 182.001 584.999 184.001 578.999 187.001 571.999 c 0
 191.001 564.999 193.001 559.999 193.001 554.999 c 0
 193.001 551.999 195.001 542.999 197.001 535.999 c 0
 199.001 527.999 202.001 520.999 203.001 518.999 c 0
 204.001 516.999 204.001 511.999 204.001 503.999 c 0
 203.001 493.999 203.001 491.999 206.001 482.999 c 0
 209.001 474.999 210.001 467.999 211.001 452.999 c 0
 211.001 441.999 212.001 425.999 212.001 416.999 c 0
 212.001 408.999 213.001 394.999 214.001 386.999 c 0
 215.001 378.999 216.001 370.999 217.001 370.999 c 1
 217.001 352.999 l 1
 217.001 323.999 l 2
 217.001 316.999 215.001 306.999 214.001 300.999 c 0
 213.001 295.999 211.001 286.999 211.001 281.999 c 1
 210.001 275.999 209.001 267.999 208.001 263.999 c 0
 207.001 260.999 205.001 246.999 205.001 232.999 c 0
 204.001 211.999 203.001 206.999 201.001 202.999 c 0
 199.001 199.999 197.001 195.999 196.001 192.999 c 0
 195.001 190.999 193.001 182.999 193.001 173.999 c 0
 192.001 165.999 190.001 156.999 189.001 152.999 c 0
 188.001 149.999 185.001 142.999 183.001 139.999 c 1
 181.001 134.999 179.001 126.999 177.001 116.999 c 0
 176.001 107.999 172.001 93.999 170.001 85.999 c 0
 167.001 77.999 163.001 67.999 162.001 63.999 c 2
 160.001 59.999 158.001 52.999 158.001 47.999 c 1
 157.001 42.999 156.001 36.999 155.001 34.999 c 0
 154.001 32.999 152.001 28.999 150.001 26.999 c 1
 149.001 23.999 147.001 18.999 146.001 15.999 c 1
 146.001 11.999 143.001 4.99902 140.001 -1.00098 c 0
 138.001 -6.00098 134.001 -15.001 133.001 -19.001 c 0
 132.001 -24.001 129.001 -31.001 127.001 -35.001 c 0
 124.001 -40.001 120.001 -44.001 115.001 -47.001 c 0
 110.417 -50.0566 108.168 -51.3613 104.24 -51.3613 c 0
 103.026 -51.3613 101.652 -51.2363 100 -51 c 0
 95 -51 88 -51 83 -50 c 0
 78 -49 71 -48 67 -48 c 0
 63 -48 58 -47 56 -47 c 0
 54 -47 52 -46 51 -43 c 1
 49 -40 48 -35 48 -31 c 0
 48 -27 49 -23 50 -22 c 1
 50 -21 52 -17 53 -13 c 0
 54 -10 55 -5 57 -2 c 0
 58 0 59 5 59 8 c 1
 60 11 62 18 63 24 c 1
 65 30 67 36 69 39 c 0
 70 41 72 45 73 48 c 1
 76 51 76 54 76 62 c 0
 76 70 77 74 82 83 c 0
 85 90 87 99 88 102 c 0
 89 106 90 112 92 115 c 0
 94 118 95 124 95 133 c 0
 96 141 97 149 99 154 c 0
 100 158 101 163 101 165 c 0
 101 167 103 172 104 176 c 2
 107 182 107 187 107 200 c 0
 107 212 108 219 110 223 c 1
 111 227 112 237 113 246 c 0
 114 255 115 265 117 268 c 1
 118 273 119 280 119 300 c 0
 119 321 118 327 116 334 c 0
 115 338 113 345 113 349 c 0
 113 353 114 359 116 362 c 1
 117 366 119 372 119 378 c 1
 120 383 121 389 121 392 c 0
 121 394 119.959 405.996 119 417 c 0
 117.955 428.996 117 441 116 444 c 0
 115 447 114 458 113 468 c 0
 112 482 111 489 110 492 c 0
 108 496 107.099 503.01 106 514 c 0
 105 524 104 533 104 535 c 1
 103 537 101 544 99 550 c 0
 97 556 95 565 93 571 c 1
 92 577 90 584 90 588 c 1
 89 591 86 599 83 605 c 0
 78 614 78 616 78 631 c 0
 77 641 76 648 75 651 c 1
 73 654 72 661 72 666 c 0
 71 674 70 678 63 692 c 0
 56 706 54 710 54 716 c 0
 54 720 53 728 52 732 c 0
 51 736 49 743 49 746 c 0
 48 751 49 752 52 755 c 0
 54 757 58 759 64 760 c 0
 69 761 73 762 73 762 c 1
EndSplineSet
Validated: 33
EndChar

StartChar: uni002A
Encoding: 42 42 11
Width: 509
GlyphClass: 2
Flags: W
LayerCount: 2
Fore
SplineSet
317 724 m 1
 324 724 l 1
 327 723 333 721 339 718 c 0
 344 715 350 712 352 710 c 1
 353 708 355 707 356 707 c 0
 357 707 361 704 364 701 c 0
 369 697 370 695 370 691 c 0
 370 688 368 682 366 677 c 0
 362 670 357 663 344 651 c 0
 334 641 324 630 320 625 c 0
 316 620 311 613 308 609 c 0
 305 606 301 600 300 597 c 0
 298 593 297 589 297 587 c 0
 297 585 298 582 300 580 c 0
 304 577 306 577 321 576 c 0
 331 576 342 577 346 577 c 1
 350 578 356 579 361 580 c 0
 365 581 373 584 380 586 c 0
 386 588 395 590 399 590 c 2
 403 591 411 590 416 589 c 0
 421 588 428 587 431 585 c 2
 434 584 437 581 439 579 c 1
 440 577 441 573 441 571 c 0
 441 569 439 564 438 561 c 0
 436 556 435 551 435 542 c 0
 435 532 434 529 432 525 c 0
 429 520 429 520 420 521 c 0
 415 521 399 522 385 524 c 0
 371 525 354 526 349 526 c 0
 342 526 336 527 333 529 c 1
 330 530 325 531 321 531 c 0
 315 531 313 530 310 527 c 0
 308 524 307 521 307 517 c 0
 307 513 308 507 311 502 c 2
 313 497 317 490 320 487 c 0
 323 483 326 480 326 479 c 0
 326 478 330 473 336 467 c 0
 341 461 348 453 351 450 c 0
 354 447 359 441 361 438 c 0
 363 434 366 430 367 428 c 1
 369 426 370 422 370 419 c 0
 370 416 369 412 366 409 c 0
 364 406 359 402 355 398 c 1
 351 395 343 391 338 389 c 0
 332 387 325 385 322 385 c 0
 319 385 314 386 312 387 c 0
 309 388 306 391 305 393 c 0
 304 395 303 400 302 404 c 0
 301 408 300 414 298 416 c 2
 297 418 295 421 293 423 c 1
 292 425 289 430 288 433 c 2
 286 436 284 441 284 445 c 1
 283 448 281 454 279 458 c 0
 276 462 274 469 272 473 c 2
 271 477 268 482 266 484 c 0
 263 487 259 489 252 490 c 2
 246 492 242 492 240 491 c 0
 238 490 236 487 235 485 c 2
 233 483 232 478 231 474 c 0
 230 470 226 459 222 451 c 0
 218 443 214 434 214 432 c 1
 213 430 212 427 211 425 c 1
 210 424 208 419 206 415 c 1
 205 411 203 406 202 403 c 0
 201 401 198 397 195 394 c 0
 193 392 189 389 186 388 c 0
 182 387 178 387 171 389 c 0
 166 390 160 392 158 393 c 0
 156 394 152 397 149 399 c 0
 146 402 142 406 141 408 c 2
 139 410 138 414 138 417 c 0
 138 420 139 425 141 430 c 1
 144 435 148 441 153 445 c 0
 157 449 163 457 167 462 c 0
 170 467 174 473 177 476 c 0
 179 479 183 484 185 488 c 2
 195 502 l 1
 199 506 201 510 202 514 c 1
 202 525 l 1
 201 527 199 530 198 531 c 0
 195 533 190 533 171 532 c 0
 157 531 146 530 144 529 c 0
 142 528 134 527 127 526 c 0
 120 525 112 524 110 523 c 0
 107 521 101 520 96 519 c 0
 91 518 85 518 82 518 c 1
 74 522 l 1
 72 524 68 529 66 534 c 0
 62 542 61 545 61 556 c 0
 61 565 62 570 64 575 c 0
 66 579 69 584 72 586 c 2
 75 590 77 591 82 591 c 0
 85 591 91 592 95 593 c 0
 100 594 103 594 106 593 c 0
 108 592 111 590 114 589 c 1
 117 589 122 588 125 588 c 0
 128 588 137 586 144 583 c 0
 156 578 158 577 164 578 c 0
 168 579 175 579 181 579 c 0
 187 579 193 580 195 581 c 0
 198 582 200 584 201 586 c 0
 202 588 202 592 202 595 c 0
 202 598 202 603 201 605 c 0
 200 607 197 611 195 614 c 0
 192 617 186 622 181 626 c 0
 173 631 172 633 168 643 c 0
 165 652 163 655 158 659 c 0
 155 661 150 665 148 667 c 0
 146 670 143 676 141 682 c 0
 138 692 137 693 140 696 c 1
 141 699 143 701 145 702 c 2
 146 703 149 705 152 706 c 1
 154 708 157 710 158 711 c 2
 158 711 162 714 165 716 c 0
 168 718 173 721 175 722 c 1
 177 722 181 723 183 723 c 0
 186 723 190 722 193 721 c 0
 197 720 201 717 202 715 c 2
 204 713 207 708 208 705 c 2
 210 702 211 695 212 690 c 0
 213 682 214 678 219 669 c 0
 223 663 227 653 229 648 c 0
 231 643 235 635 237 631 c 0
 240 627 244 622 247 620 c 0
 249 618 254 617 256 617 c 0
 259 617 263 618 265 620 c 0
 268 622 271 626 273 634 c 2
 276 640 278 651 279 658 c 0
 280 668 281 672 286 680 c 0
 289 685 294 694 296 699 c 1
 299 704 302 709 304 711 c 1
 306 712 307 714 307 715 c 0
 307 716 308 718 310 720 c 1
 312 721 315 723 317 724 c 1
EndSplineSet
Validated: 33
EndChar

StartChar: uni002B
Encoding: 43 43 12
Width: 533
GlyphClass: 2
Flags: W
LayerCount: 2
Fore
SplineSet
247.996 498 m 0
 249.996 499 261 499 275 499 c 0
 298 499 298 499 305 493 c 0
 309 490 314 486 315 483 c 0
 317 479 317 473 317 459 c 0
 317 446 318 437 320 430 c 0
 322 419 322 419 319 409 c 0
 316 400 316 397 316 364 c 0
 316 344 317 326 317 323 c 1
 318 320 321 315 325 312 c 1
 331 306 331 306 352 306 c 0
 368 306 374 307 380 309 c 0
 386 311 391 312 404 311 c 0
 417 311 421 310 433 306 c 0
 446 301 447 301 453 302 c 0
 456 303 463 305 469 307 c 0
 476 309 479 309 487 307 c 0
 492 306 498 304 501 303 c 0
 503 302 506 299 507 296 c 2
 509 294 510 291 510 289 c 0
 510 288 509 282 507 277 c 0
 505 272 504 267 505 265 c 1
 505 263 506 253 506 241 c 0
 506 220 506 220 501 213 c 0
 498 210 494 206 492 205 c 0
 490 204 483 203 474 203 c 0
 464 203 457 202 452 200 c 0
 446 198 444 198 437 200 c 0
 433 201 415 202 396 203 c 0
 376 203 361 204 358 205 c 0
 356 206 351 207 347 207 c 0
 343 207 338 206 336 205 c 0
 333 203 330 201 328 200 c 0
 325 199 322 197 320 195 c 0
 316 192 316 192 316 137 c 0
 316 89 316 80 318 73 c 0
 320 66 321 63 319 59 c 0
 318 56 317 48 316 42 c 0
 315 33 314 28 312 25 c 2
 305 18 l 1
 300 15 296.998 15.0557 267 14 c 0
 259.092 13.7217 252.9 13.5859 247.996 13.5859 c 0
 236.157 13.5859 231.829 14.293 229.001 15 c 0
 226.001 16 222.001 19 220.001 21 c 0
 218.001 24 216.001 27 215.001 29 c 0
 214.001 31 212.001 36 211.001 40 c 1
 211.001 43 209.001 47 208.001 48 c 1
 208.001 49 207.001 53 207.001 57 c 0
 207.001 62 208.001 70 210.001 75 c 1
 211.001 80 213.001 88 214.001 92 c 0
 216.001 98 216.001 101 214.001 108 c 0
 213.001 113 212.001 118 212.001 120 c 0
 212.001 122 213.001 127 215.001 132 c 0
 217.001 139 217.001 143 217.001 150 c 1
 216.001 155 215.001 163 215.001 168 c 0
 215.001 173 214.001 179 213.001 181 c 0
 212.001 183 212.001 187 212.001 189 c 0
 212.001 192 210.001 195 208.001 197 c 0
 205.001 200 202.001 200 188.001 201 c 0
 180.001 202 162.001 203 148.001 203 c 0
 135.001 203 105.001 203 83.001 202 c 0
 42.001 202 41.001 202 36.001 205 c 1
 33.001 206 29.001 210 27.001 212 c 1
 24.001 217 24.001 217 24.001 254 c 0
 24.001 289 24.001 292 27.001 296 c 1
 28.001 299 33.001 303 37.001 306 c 1
 43.001 309 47.001 311 53.001 311 c 1
 59.001 312 62.001 311 67.001 309 c 0
 73.001 306 76.001 305 83.001 306 c 1
 88.001 306 94.001 308 97.001 309 c 0
 99.001 310 104.001 312 106.001 312 c 0
 108.001 312 112.001 310 115.001 309 c 0
 119.001 307 126.004 307.08 155.001 306 c 0
 162.324 305.728 168.616 305.586 173.955 305.586 c 0
 186.844 305.586 194.172 306.293 197 307 c 0
 201 308 205 310 208 312 c 0
 212 316 212 316 212 328 c 0
 212 335 211 342 210 345 c 0
 209 348 209 351 209 353 c 0
 209 355 211 360 212 365 c 0
 214 372 214 378 213 391 c 0
 213 400 212 411 211 415 c 0
 209 420 209 425 210 440 c 0
 211 451 212 466 212 473 c 0
 212 484 213 488 215 491 c 0
 216 493 219 496 222 496 c 2
 224 497 230 498 235 497 c 1
 240 497 245.996 497 247.996 498 c 0
EndSplineSet
Validated: 33
EndChar

StartChar: uni002C
Encoding: 44 44 13
Width: 202
GlyphClass: 2
Flags: W
LayerCount: 2
Fore
SplineSet
121 115 m 1
 126 116 131 117 137 117 c 0
 142 117 150 115 154 114 c 0
 159 113 165 111 168 111 c 1
 171 110 175 108 178 106 c 0
 181 103 182 100 182 97 c 0
 182 94 181 89 179 85 c 0
 177 82 175 76 173 73 c 2
 168 63 l 1
 167 62 165 59 164 57 c 2
 163 56 159 49 157 42 c 0
 155 36 153 29 153 28 c 0
 153 27 149 21 145 16 c 0
 141 11 137 3 136 -1 c 0
 134 -6 132 -11 131 -14 c 1
 129 -16 126 -21 125 -25 c 2
 123 -28 121 -33 120 -37 c 0
 119 -40 116 -46 112 -49 c 1
 108 -53 105 -59 103 -61 c 1
 102 -64 101 -69 100 -72 c 1
 100 -75 98 -79 97 -82 c 0
 96 -84 93 -88 91 -89 c 1
 89 -91 86 -93 85 -94 c 1
 83 -95 77 -97 71 -98 c 0
 65 -99 53 -99 43 -99 c 0
 27 -99 26 -99 23 -96 c 0
 21 -93 20 -89 20 -78 c 0
 20 -65 21 -62 24 -55 c 0
 26 -50 29 -43 31 -40 c 1
 32 -36 35 -28 38 -22 c 1
 40 -15 43 -7 44 -3 c 0
 45 2 46 9 48 15 c 0
 49 20 52 29 54 34 c 0
 56 40 58 47 59 50 c 0
 60 53 61 58 62 61 c 1
 62 64 63 70 64 75 c 1
 66 79 67 84 67 86 c 0
 67 88 69 93 70 96 c 0
 72 100 75 105 78 107 c 2
 80 110 84 112 86 113 c 1
 102 113 l 2
 111 112 115 112 121 115 c 1
EndSplineSet
Validated: 33
EndChar

StartChar: uni002D
Encoding: 45 45 14
Width: 297
GlyphClass: 2
Flags: MW
HStem: 222.395 91.606
VStem: 39.5 221.5<265 283.001>
LayerCount: 2
Fore
SplineSet
59 314 m 2
 69 314.001 l 1
 73 313.001 77 312.001 80 311.001 c 0
 83 310.001 91 310.001 99 310.001 c 0
 107 311.001 115 311.001 118 312.001 c 0
 121 313.001 151 314.001 184 314.001 c 0
 241 314.001 244 314.001 249 311.001 c 0
 252 309.001 256 306.001 258 304.001 c 0
 261 300.001 261 299.001 261 267.001 c 0
 260 240.001 260 234.001 258 231.001 c 0
 256 229.001 253 226.001 251 225.001 c 1
 248 222.001 243 222.001 209 222.001 c 0
 178 222.001 170 221.001 165 219.001 c 0
 162 218.001 158 217.001 156 217.001 c 0
 154 217.001 148 218.001 144 220.001 c 0
 139.046 221.652 136.213 222.396 129.495 222.396 c 0
 124.01 222.396 115.935 221.899 102 221 c 2
 63 221 l 1
 60 222 56 223 54 224 c 0
 52 225 49 230 47 234 c 0
 45 238 44 243 44 244 c 0
 44 246 43 251 41 257 c 0
 40 261.5 39.5 264 39.5 266 c 0
 39.5 268 40 269.5 41 272 c 1
 43 275 44 282 45 287 c 1
 45 300 l 2
 45 302 47 306 50 309 c 0
 53 311 57 314 59 314 c 2
EndSplineSet
Validated: 1
EndChar

StartChar: uni002E
Encoding: 46 46 15
Width: 245
GlyphClass: 2
Flags: W
LayerCount: 2
Fore
SplineSet
83 115 m 0
 85 117 88 116.999 94 116.999 c 1
 99 115.999 114 114.999 128 113.999 c 0
 149 112.999 155 111.999 160 108.999 c 0
 163 106.999 167 103.999 169 101.999 c 0
 171 98.999 172 94.999 173 82.999 c 0
 173 73.999 174 64.999 175 61.999 c 0
 176 58.999 177 51.999 177 44.999 c 0
 177.366 41.7051 177.599 39.2148 177.599 37.0869 c 0
 177.599 33.4014 176.902 30.8037 175 27 c 0
 174 24 171 19 169 18 c 2
 168 16 163 13 160 12 c 0
 154 9 150 9 137 9 c 0
 127 9 120 8 116 6 c 2
 112 5 108 4 106 3 c 1
 103 3 98 3 95 4 c 0
 91 5 84 8 80 11 c 0
 76 14 72 17 70 19 c 0
 68 21 66 24 66 27 c 2
 65.5 28 65.25 30.25 65.25 32.875 c 0
 65.25 35.5 65.5 38.5 66 41 c 0
 67 46 69 61 69 75 c 0
 70 93 71 100 73 104 c 0
 74 106 76 109 77 110 c 0
 78 111 81 113 83 115 c 0
EndSplineSet
Validated: 1
EndChar

StartChar: uni002F
Encoding: 47 47 16
Width: 363
GlyphClass: 2
Flags: W
LayerCount: 2
Fore
SplineSet
287 664 m 2
 290 665 297.001 666 301.001 666 c 0
 307.001 666 311.001 665 321.001 660 c 0
 327.001 657 334.001 652 336.001 650 c 0
 338.001 648 339.001 644 339.001 642 c 0
 339.001 640 338.001 634 335.001 629 c 1
 333.001 624 331.001 619 331.001 617 c 0
 331.001 616 329.001 612 327.001 609 c 0
 325.001 605 323.001 599 322.001 592 c 0
 321.001 583 319.001 578 314.001 568 c 0
 310.001 562 306.001 553 305.001 549 c 0
 304.001 545 302.001 539 301.001 536 c 1
 299.001 533 298.001 530 297.001 530 c 1
 296.001 529 295.001 526 294.001 521 c 0
 293.001 517 292.001 513 291.001 512 c 0
 290.001 511 289.001 506 288.001 501 c 2
 286.001 497 283.001 489 281.001 484 c 1
 278.001 479 276.001 473 275.001 469 c 1
 275.001 464 272.001 456 270.001 450 c 1
 267.001 444 263.001 438 262.001 436 c 1
 260.001 434 258.001 429 258.001 426 c 1
 257.001 423 255.001 414 252.001 406 c 0
 249.001 398 247.001 390 247.001 387 c 0
 247.001 385 244.001 377 240.001 370 c 0
 237.001 363 233.001 356 232.001 353 c 1
 230.001 351 229.001 348 229.001 346 c 0
 229.001 344 227.001 339 224.001 335 c 0
 221.001 331 218.001 322 215.001 315 c 1
 213.001 307 212.001 300 212.001 299 c 0
 212.001 297 211.001 295 210.001 293 c 1
 208.001 291 207.001 289 206.001 287 c 1
 206.001 284 204.001 280 203.001 277 c 0
 201.001 273 199.001 267 199.001 263 c 1
 198.001 259 196.001 251 193.001 246 c 0
 190.001 240 188.001 235 188.001 234 c 0
 188.001 232 186.001 227 183.001 222 c 1
 181.001 217 177.001 208 175.001 203 c 1
 174.001 198 170.001 191 168.001 188 c 0
 166.001 185 164.001 179 163.001 175 c 1
 163.001 170 161.001 164 160.001 161 c 1
 158.001 158 157.001 153 157.001 151 c 0
 157.001 149 156.001 144 154.001 140 c 2
 153.001 136 149.001 130 146.001 126 c 0
 142.001 120 140.001 115 140.001 108 c 1
 138.001 98 l 2
 138.001 97 136.001 93 134.001 89 c 0
 132.001 86 129.001 79 128.001 75 c 0
 127.001 71 124.001 65 122.001 62 c 0
 120.001 59 118.001 53 117.001 48 c 0
 117.001 44 115.001 37 114.001 33 c 1
 112.001 29 110.001 24 109.001 22 c 1
 107.001 20 106.001 18 106.001 17 c 0
 106.001 16 104.001 13 102.001 11 c 0
 99.001 8 94.001 5 89.001 4 c 0
 84.6084 2.53613 80.2158 1.6084 70.3311 1.6084 c 0
 66.7129 1.6084 62.3594 1.74512 57 2.00098 c 0
 35.002 3.05078 31 4.00098 28 6.00098 c 0
 26 8.00098 25 11.001 24 21.001 c 0
 23.707 23.9297 23.5859 26.2578 23.5859 28.1865 c 0
 23.5859 32.8438 24.293 35.1719 25 38 c 1
 27 40 30 48 32 56 c 2
 35 63 37 71 37 73 c 0
 37 75 39 82 42 88 c 0
 45 94 48 100 49 101 c 1
 50 103 52 108 54 114 c 0
 55 119 57 125 58 127 c 1
 59 128 62 133 64 137 c 0
 67 141 70 147 70 150 c 1
 71 154 73 159 74 161 c 0
 75 164 77 169 77 173 c 1
 78 177 81 186 84 193 c 0
 87 200 90 207 91 208 c 1
 96 218 l 1
 97 222 100 230 102 235 c 1
 103 240 105 249 106 253 c 0
 107 258 109 265 110 267 c 0
 112 270 115 277 118 283 c 0
 121 289 123 294 123 295 c 0
 123 296 125 300 127 304 c 0
 129 308 132 316 134 323 c 0
 135 329 137 335 137 337 c 0
 137 338 139 342 142 346 c 0
 145 350 147 355 148 360 c 0
 149 364 152 373 155 378 c 0
 158 384 161 389 162 390 c 1
 162 391 164 396 165 401 c 2
 167 406 168 414 169 417 c 0
 170 421 174 428 177 434 c 0
 180 439 183 447 183 451 c 1
 184 455 186 462 189 467 c 1
 191 473 194 480 195 484 c 0
 196 488 198 495 200 500 c 0
 201 504 204 512 207 517 c 0
 209 521 214 533 218 543 c 0
 222 555 225 564 225 568 c 0
 225 572 226 576 227 579 c 0
 228 581 230 585 232 587 c 0
 234 589 235 592 235 593 c 0
 235 595 237 600 240 606 c 0
 243 612 247 621 249 627 c 0
 251 632 255 641 257 645 c 0
 259 650 262 655 265 657 c 1
 268 658 271 660 272 660 c 0
 274 660 276 661 278 661 c 1
 280 662 284 664 287 664 c 2
EndSplineSet
Validated: 1
EndChar

StartChar: uni0030
Encoding: 48 48 17
Width: 569
GlyphClass: 2
Flags: W
LayerCount: 2
Fore
SplineSet
321 629 m 0
 316 633 315 633 292 634 c 0
 280 634 266 633 263 633 c 1
 260 632 255 630 252 628 c 0
 249 626 242 622 237 619 c 0
 232 615 227 610 225 608 c 0
 223 606 220 602 218 599 c 1
 217 596 214 589 212 585 c 1
 211 580 208 574 207 572 c 0
 205 569 203 563 203 556 c 1
 202 550 200 541 198 535 c 2
 197 529 195 522 194 518 c 1
 194 514 192 508 191 503 c 0
 190 498 189 489 189 479 c 0
 189 467 188 461 187 458 c 1
 185 455 185 447 184 430 c 0
 184 416 184 402 185 397 c 0
 186 392 185 386 184 380 c 0
 183 375 181 366 179 361 c 0
 178 357 177.5 354.25 177.5 350.875 c 0
 177.5 347.5 178 343.5 179 337 c 2
 179 328 182 316 184 310 c 0
 186 303 188 298 189 297 c 1
 189 296 191 292 192 288 c 2
 195 282 195 281 193 274 c 0
 191 270 190 261 189 254 c 0
 188 241 188 239 191 232 c 0
 194 226 195 222 195 206 c 0
 196 189 196 187 200 179 c 0
 203 174 206 166 207 161 c 0
 208 157 211 149 213 145 c 0
 215 141 219 135 223 132 c 0
 227 129 231 125 234 123 c 0
 236 122 240 119 242 117 c 1
 243 115 247 113 250 112 c 2
 262 106 l 2
 267 103 272 101 274 99 c 1
 277 98 284 97 292 96 c 0
 297.394 95.1006 300.565 94.6064 302.968 94.6064 c 0
 305.909 94.6064 307.697 95.3486 311 97 c 2
 332 108 l 2
 343 114 347 117 350 121 c 0
 352 125 357 130 360 134 c 2
 364 138 367 142 368 144 c 0
 369 146 372 153 374 159 c 0
 376 166 378 174 378 176 c 0
 378 178 380 183 382 188 c 0
 384 192 387 197 388 200 c 2
 390 203 391 209 391 217 c 0
 392 225 393 233 394 236 c 0
 396 240 397 245 396 260 c 0
 396 278 396 280 399 287 c 0
 402 293 403 297 403 314 c 0
 404 326 404 345 404 358 c 0
 403 370 403 387 402 394 c 0
 401 404 400 412 397 419 c 0
 394 425 393 432 393 435 c 0
 393 438 394 447 395 454 c 0
 396 461 397 475 397 485 c 0
 397 498 396 504 395 507 c 1
 393 509 391 514 389 516 c 1
 388 519 385 525 384 529 c 2
 382 533 380 543 380 551 c 0
 379 559 378 567 377 569 c 0
 376 571 375 574 374 575 c 1
 373 577 371 581 369 586 c 1
 366 591 362 598 358 601 c 1
 345 614 l 1
 341 617 335 621 332 623 c 1
 329 624 324 627 321 629 c 0
251 737 m 0
 254 737.5 260 737.75 267.375 737.75 c 0
 274.75 737.75 283.5 737.5 292 737 c 0
 316 737 324 736 328 735 c 1
 330 733 335 732 340 731 c 1
 345 731 353 729 359 726 c 0
 367 722 373 720 381 720 c 0
 392 719 394 718 398 714 c 0
 401 712 406 708 409 705 c 1
 413 703 418 700 421 698 c 0
 424 696 429 692 433 688 c 1
 437 685 442 681 444 680 c 0
 446 679 449 677 451 675 c 0
 453 673 455 669 457 666 c 1
 458 662 460 658 461 655 c 0
 462 653 465 649 469 646 c 0
 472 644 478 638 481 634 c 0
 484 630 488 623 489 618 c 1
 491 614 493 609 495 606 c 0
 496 604 498 602 498 601 c 1
 505 590 l 2
 512 579 512 579 512 566 c 0
 513 554 514 551 518 541 c 0
 523 532 524 529 524 518 c 0
 525 510 526 504 527 500 c 1
 529 497 530 492 531 488 c 0
 532 485 534 480 534 477 c 2
 535 475 537 463 537 450 c 0
 538 438 539 421 539 414 c 0
 539 407 538 398 537 396 c 0
 536 393 536 370 536 344 c 0
 536 306 535 295 534 289 c 1
 532 285 531 273 530 261 c 0
 530 250 529 240 528 239 c 0
 527 238 526 233 525 227 c 2
 523 221 522 215 521 213 c 1
 520 212 519 206 518 200 c 1
 518 195 515 187 513 183 c 0
 511 178 509 171 508 167 c 1
 508 163 505 155 501 148 c 0
 497 141 494 134 493 134 c 1
 493 133 491 128 490 123 c 0
 489 118 487 111 486 107 c 0
 484 102 481 97 479 94 c 0
 477 90 473 85 469 82 c 1
 465 78 461 74 461 72 c 1
 460 70 458 67 457 66 c 2
 456 64 454 61 452 60 c 2
 450 58 446 56 444 55 c 0
 442 54 438 50 436 48 c 0
 433 45 430 41 428 39 c 0
 426 37 418 31 410 27 c 0
 401 23 392 18 389 15 c 0
 386 13 380 10 376 9 c 2
 372 7 365 5 360 4 c 0
 355 3 351 1 350 1 c 1
 349 0 345 -1 341 -1 c 1
 337 -2 331 -3 328 -5 c 0
 325.657 -6.17188 323.313 -6.65723 319.966 -6.65723 c 0
 317.598 -6.65723 314.728 -6.41406 311 -6 c 0
 304 -6 296 -5 294 -5 c 0
 292 -5 284 -6 276 -6 c 0
 271.857 -6.41406 268.573 -6.65723 265.721 -6.65723 c 0
 261.687 -6.65723 258.515 -6.17188 255 -5 c 0
 251 -3 243 -2 239 -2 c 0
 234 -2 228 -1 225 0 c 0
 221 2 216 4 214 4 c 1
 211 5 206 7 203 9 c 0
 200 11 193 15 189 17 c 0
 184 19 179 21 177 22 c 1
 175 22 167 28 160 33 c 0
 153 39 144 46 140 48 c 0
 136 51 130 56 126 61 c 0
 123 65 118 72 116 75 c 0
 114 79 110 85 107 88 c 0
 104 92 102 95 102 96 c 0
 102 97 99 104 95 112 c 0
 92 120 87 131 84 136 c 0
 81 142 77 152 74 157 c 0
 70 166 68 170 68 175 c 0
 68 180 67 187 65 191 c 1
 64 196 62 202 62 206 c 1
 61 209 60 214 59 216 c 0
 57 219 57 224 57 228 c 0
 57 232 55 240 54 246 c 1
 52 252 51 261 51 267 c 0
 51 275 50 277 45 285 c 0
 39 293 39 294 39 303 c 0
 39 309 40 316 42 322 c 0
 45 330 45 331 43 341 c 0
 42 350 42 354 44 363 c 0
 45 372 45 376 43 383 c 0
 42 388 41 394 41 397 c 0
 41 399 42 405 43 410 c 0
 44 415 46 422 48 426 c 0
 50 432 50 433 48 439 c 0
 47 442 46 446 46 448 c 0
 46 450 47 454 49 458 c 1
 50 462 51 469 52 476 c 1
 52 483 53 491 54 496 c 0
 55 500 57 508 57 514 c 0
 57 522 58 527 61 536 c 0
 64 543 67 550 69 552 c 1
 70 554 72 558 74 560 c 1
 75 563 76 568 76 571 c 0
 76 575 77 582 79 588 c 0
 80 593 82 600 84 603 c 2
 85 606 88 611 90 614 c 0
 92 617 94 621 94 622 c 1
 95 624 97 629 99 634 c 0
 102 640 106 645 112 650 c 0
 116 653 120 657 120 659 c 0
 120 660 126 666 133 673 c 0
 140 680 151 690 157 695 c 0
 163 700 172 705 180 709 c 1
 187 711 195 714 199 715 c 1
 205 715 209 717 214 721 c 0
 218 724 226 729 231 732 c 1
 237 734 245 736 251 737 c 0
EndSplineSet
Validated: 33
EndChar

StartChar: uni0031
Encoding: 49 49 18
Width: 573
GlyphClass: 2
Flags: W
LayerCount: 2
Fore
SplineSet
297 723 m 0
 302 725 306 725 315 725 c 1
 321 724 327 723 329 722 c 1
 331 722 337 721 342 721 c 0
 347 721 354 722 358 723 c 0
 363 725 372 726 385 726 c 0
 405 726 405 726 409 722 c 0
 411 719 413 717 413 716 c 0
 413 715 415 711 416 708 c 1
 418 705 419 699 419 696 c 0
 419 692 418 686 417 681 c 0
 416 677 414 671 413 667 c 0
 412 662 412 658 414 650 c 0
 415 644 416 637 416 635 c 1
 415 633 414 626 413 621 c 0
 412 614 412 610 413 605 c 0
 414 602 416 599 416 598 c 1
 417 598 418 591 418 582 c 0
 418 570 417 565 415 558 c 0
 413 552 412 547 412 544 c 1
 413 542 414 537 416 534 c 0
 417 532 419 526 420 521 c 0
 421 517.5 421.5 515.25 421.5 512.875 c 0
 421.5 510.5 421 508 420 504 c 0
 419 499 418 490 418 484 c 0
 418 478 417 470 415 467 c 1
 414 463 413 456 412 451 c 1
 412 445 412 440 414 434 c 0
 416 426 416 425 414 419 c 0
 412 414 412 410 413 392 c 0
 414 380 415 367 415 363 c 2
 415 346 l 1
 415 323 l 2
 416 315 416 306 417 303 c 0
 418 298 417 294 415 286 c 0
 411 276 411 276 414 267 c 0
 415 262 417 255 417 253 c 2
 418 250 417 246 416 244 c 0
 414 241 413 237 413 235 c 0
 413 233 414 229 415 227 c 1
 417 225 418 219 418 212 c 0
 418 204 417 197 414 191 c 1
 412 182 411 181 413 172 c 0
 415 164 415 159 413 149 c 0
 412 141 412 132 412 127 c 0
 412 122 413 113 415 106 c 0
 417 96 418 91 417 76 c 0
 417 66 417 50 418 41 c 0
 419 31 419 22 419 19 c 1
 418 17 413 10 406 4 c 0
 398.316 -4.45215 396.537 -6.40918 388.867 -6.40918 c 0
 386.555 -6.40918 383.707 -6.23145 380 -6 c 0
 372 -6 359 -4 351 -4 c 0
 343 -3 327 -2 317 -2 c 0
 304 -1 297 -1 294 1 c 0
 292 2 288 4 284 7 c 0
 281 9 277 12 276 15 c 0
 275 17 274 21 274 24 c 0
 274 27 275 33 276 36 c 0
 278 41 278 50 279 66 c 0
 279 79 280 98 280 107 c 0
 280 119 280 129 279 135 c 0
 278 140 276 146 275 149 c 0
 273 153 274 154 276 162 c 0
 279 171 279 174 279 215 c 0
 279 255 279 260 277 268 c 0
 275 274 274 281 274 291 c 0
 274 302 275 308 277 314 c 0
 279 322 279 326 279 369 c 0
 278 406 278 419 276 428 c 0
 274 438 274 440 276 447 c 0
 278 453 278 459 278 479 c 0
 278 493 279 509 279 515 c 2
 280 521 281 535 282 546 c 0
 282 565 282 565 278 570 c 0
 275 574 273 575 267 575 c 1
 262 576 257 576 254 575 c 0
 250 574 246 571 241 567 c 0
 235 562 230 559 225 557 c 1
 220 556 214 553 210 551 c 0
 206 549 202 545 199 541 c 0
 197 537 192 532 189 530 c 0
 186 528 180 524 177 523 c 0
 173 521 168 517 165 515 c 0
 162 513 157 510 154 509 c 2
 151 507 144 505 138 503 c 0
 133 502 125 500 120 500 c 0
 113 500 110 501 106 503 c 1
 103 506 101 509 99 515 c 0
 98.1006 518.146 97.6064 520.081 97.6064 521.802 c 0
 97.6064 523.909 98.3486 525.697 100 529 c 0
 102 534 102 540 102 571 c 0
 102 602 103 608 105 612 c 0
 106 614 109 618 111 620 c 1
 114 621 120 626 125 630 c 0
 133 635 136 637 144 638 c 0
 149 638 157 640 161 642 c 0
 165 645 169 646 170 646 c 1
 176 650 l 2
 179 652 182 655 182 655 c 2
 183 656 186 658 191 660 c 1
 195 663 203 668 209 672 c 0
 216 677 221 680 221 680 c 1
 222 680 226 682 231 684 c 0
 235 686 240 688 241 689 c 1
 243 690 249 693 254 695 c 0
 260 698 265 702 266 703 c 0
 267 704 270 706 274 707 c 1
 277 709 283 712 286 715 c 0
 289 718 294 722 297 723 c 0
EndSplineSet
Validated: 33
EndChar

StartChar: uni0032
Encoding: 50 50 19
Width: 581
GlyphClass: 2
Flags: W
LayerCount: 2
Fore
SplineSet
231 739 m 1
 233.121 739.707 237.244 740.415 247.255 740.415 c 0
 251.401 740.415 256.559 740.294 263.002 740.001 c 0
 279.002 740.001 294.002 739.001 296.002 738.001 c 0
 298.002 737.001 315.002 736.001 334.002 736.001 c 0
 353.002 735.001 369.002 734.001 370.002 733.001 c 1
 371.002 733.001 374.002 731.001 378.002 731.001 c 1
 382.002 730.001 388.002 727.001 391.002 726.001 c 0
 395.002 724.001 404.002 721.001 412.002 719.001 c 0
 421.002 717.001 427.002 714.001 431.002 711.001 c 0
 434.002 709.001 437.002 707.001 438.002 707.001 c 0
 439.002 707.001 440.002 706.001 440.002 706.001 c 1
 440.002 705.001 445.002 702.001 451.002 699.001 c 0
 457.002 696.001 463.002 692.001 466.002 688.001 c 0
 468.002 686.001 474.002 679.001 478.002 674.001 c 0
 483.002 669.001 487.002 664.001 487.002 664.001 c 1
 487.002 663.001 489.002 659.001 492.002 655.001 c 0
 495.002 651.001 499.002 643.001 501.002 639.001 c 0
 503.002 634.001 504.002 630.001 504.002 629.001 c 0
 504.002 628.001 506.002 624.001 508.002 621.001 c 0
 511.002 617.001 513.002 614.001 514.002 614.001 c 1
 514.002 614.001 516.002 612.001 517.002 609.001 c 2
 519.002 606.001 521.002 601.001 521.002 598.001 c 1
 522.002 595.001 523.002 590.001 524.002 587.001 c 0
 526.002 582.001 526.002 575.001 526.002 551.001 c 0
 526.002 535.001 525.002 516.001 525.002 509.001 c 0
 524.002 501.001 523.002 496.001 522.002 494.001 c 0
 521.002 492.001 518.002 488.001 515.002 486.001 c 1
 513.002 483.001 510.002 480.001 508.002 478.001 c 0
 506.002 475.001 505.002 471.001 504.002 462.001 c 0
 504.002 451.001 503.002 449.001 499.002 444.001 c 0
 497.002 441.001 493.002 435.001 490.002 430.001 c 0
 487.002 426.001 484.002 421.001 483.002 420.001 c 0
 482.002 419.001 481.002 418.001 481.002 416.001 c 0
 481.002 415.001 476.002 409.001 470.002 404.001 c 0
 464.002 398.001 458.002 391.001 457.002 388.001 c 0
 456.002 385.001 450.002 378.001 445.002 372.001 c 1
 439.002 367.001 431.002 358.001 426.002 352.001 c 0
 421.002 347.001 416.002 339.001 414.002 336.001 c 0
 412.002 333.001 406.002 326.001 400.002 321.001 c 0
 395.002 316.001 389.002 312.001 389.002 312.001 c 1
 388.002 312.001 384.002 308.001 380.002 303.001 c 1
 375.002 299.001 371.002 295.001 370.002 295.001 c 1
 370.002 295.001 366.002 292.001 362.002 288.001 c 0
 357.002 284.001 353.002 278.001 350.002 272.001 c 0
 348.002 267.001 344.002 261.001 342.002 258.001 c 0
 341.002 256.001 336.002 252.001 332.002 250.001 c 0
 329.002 248.001 323.002 244.001 319.002 241.001 c 0
 316.002 238.001 310.002 234.001 307.002 232.001 c 1
 305.002 229.001 299.002 225.001 296.002 222.001 c 0
 293.002 220.001 289.002 217.001 288.002 217.001 c 1
 288.002 217.001 284.002 215.001 281.002 211.001 c 0
 278.002 208.001 275.002 205.001 275.002 204.001 c 0
 275.002 203.001 274.002 201.001 272.002 200.001 c 2
 270.002 198.001 264.002 194.001 259.002 190.001 c 0
 254.002 186.001 249.002 184.001 249.002 184.001 c 1
 248.002 184.001 247.002 183.001 246.002 182.001 c 1
 245.002 180.001 240.002 177.001 235.002 175.001 c 1
 230.002 172.001 223.002 167.001 220.002 164.001 c 0
 217.002 160.001 213.002 157.001 210.002 155.001 c 1
 207.002 154.001 202.002 152.001 199.002 150.001 c 0
 195.002 148.001 191.002 146.001 189.002 144.001 c 0
 188.002 143.001 186.002 139.001 185.002 136.001 c 2
 183.002 133.001 182.002 126.001 181.002 121.001 c 0
 180.002 115.001 180.002 111.001 182.002 108.001 c 1
 183.002 105.001 185.002 103.001 189.002 102.001 c 0
 192.002 101.001 210.002 100.001 236.002 100.001 c 0
 273.002 101.001 279.002 101.001 284.002 103.001 c 0
 288.002 105.001 295.002 106.001 313.002 106.001 c 0
 327.002 107.001 345.002 107.001 355.002 107.001 c 2
 414.002 107.001 l 2
 423.916 106.733 431.532 106.609 437.447 106.609 c 0
 453.608 106.609 457.072 107.537 460 109.001 c 0
 464 111.001 469 112.001 492 112.001 c 0
 513 112.001 520 111.001 523 109.001 c 1
 526 108.001 529 105.001 530 104.001 c 1
 531 102.001 532 97.001 532 93.001 c 0
 532 89.001 534 81.001 535 75.001 c 0
 537 68.001 538 59.001 538 51.001 c 0
 538 43.001 537 36.001 535 29.001 c 0
 533 22.001 530 17.001 527 14.001 c 0
 524 10.001 520 9.00098 515 8.00098 c 0
 512 8.00098 504 7.00098 499 7.00098 c 0
 494 7.00098 484 9.00098 476 10.001 c 1
 466 13.001 462 13.001 456 12.001 c 0
 451 11.001 444 9.00098 439 8.00098 c 0
 431 6.00098 428 6.00098 414 7.00098 c 0
 405 8.00098 382 9.00098 363 9.00098 c 0
 335 9.00098 327 9.00098 323 11.001 c 0
 320 12.001 316 13.001 314 13.001 c 0
 313 13.001 309 12.001 307 11.001 c 0
 303 9.00098 297 8.00098 275 8.00098 c 0
 253 8.00098 247 7.00098 243 5.00098 c 0
 240 4.00098 235 3.00098 228 3.00098 c 0
 222 3.00098 217 3.00098 214 5.00098 c 1
 211 6.00098 204 8.00098 198 9.00098 c 1
 192 9.00098 183 10.001 177 9.00098 c 0
 169 8.00098 165 9.00098 161 11.001 c 1
 157 12.001 153 13.001 151 13.001 c 0
 149 13.001 145 11.001 141 9.00098 c 0
 137 7.00098 131 6.00098 128 6.00098 c 0
 125 6.00098 121 7.00098 119 8.00098 c 0
 115 10.001 111 10.001 102 10.001 c 0
 95 10.001 87 10.001 84 9.00098 c 0
 81 8.00098 76 6.00098 72 5.00098 c 2
 69.3809 3.69141 67.9053 2.95312 65.8262 2.95312 c 0
 63.1426 2.95312 59.4531 4.18262 51 7 c 0
 42 10 34 14 31 16 c 0
 26 20 26 20 26 34 c 0
 26 41 27 51 28 56 c 0
 29 60 30 80 30 100 c 0
 30 136 30 136 35 144 c 1
 37 150 42 155 46 159 c 1
 50 162 55 167 57 169 c 0
 59 171 64 176 67 181 c 0
 70 185 73 190 75 192 c 0
 77 194 80 196 83 197 c 0
 85 198 88 199 89 200 c 2
 91 201 96 204 101 207 c 0
 106 210 113 216 117 220 c 1
 120 224 124 229 126 231 c 1
 127 234 130 237 132 239 c 0
 133 240 138 244 142 246 c 0
 146 249 152 254 155 257 c 0
 159 261 164 265 167 267 c 0
 170 269 176 274 181 279 c 0
 186 283 193 291 196 295 c 0
 199 300 205 307 210 312 c 0
 215 316 221 322 225 324 c 0
 229 326 235 332 240 336 c 0
 244 340 250 345 254 347 c 0
 257 349 262 353 264 356 c 0
 267 359 270 363 272 366 c 0
 274 369 282 378 290 386 c 2
 311 407 l 1
 314 411 320 416 324 419 c 0
 328 421 332 425 334 427 c 1
 335 430 338 435 341 440 c 0
 344 445 350 453 356 458 c 0
 362 464 368 470 369 473 c 0
 370 475 371 480 371 483 c 0
 371 486 372 490 374 493 c 0
 376 496 378 501 380 504 c 0
 382 508 382 512 382 521 c 0
 382 529 383 535 385 540 c 0
 387 544 388 550 388 563 c 0
 388 578 387 580 384 586 c 0
 382 590 378 596 375 601 c 0
 373 605 370 611 368 613 c 1
 367 616 364 621 362 624 c 0
 359 628 356 630 350 632 c 0
 346 634 341 636 339 638 c 1
 337 639 334 641 332 642 c 0
 330 643 323 644 318 644 c 0
 311 644 305 645 296 648 c 0
 286 651 283 652 278 651 c 0
 275 650 266 650 259 650 c 0
 244 650 244 650 231 639 c 0
 224 633 216 625 214 622 c 2
 211 620 209 616 208 614 c 0
 207 612 205 607 203 603 c 0
 201 598 199 592 198 590 c 0
 197 587 196 583 195 580 c 1
 193 578 192 571 192 566 c 0
 191 557 190 555 187 551 c 0
 185 549 179 546 174 544 c 2
 159 539 l 2
 155 537 149 536 142 536 c 1
 135 537 127 536 123 534 c 1
 119 533 113 532 110 532 c 0
 106 532 99 534 94 536 c 0
 89 538 83 540 80 541 c 0
 77 542 74 542 69 540 c 0
 64 538 62 538 57 539 c 0
 54 540 49 544 46 547 c 0
 40 553 40 553 40 567 c 0
 41 578 42 583 44 586 c 0
 45 588 47 591 48 592 c 1
 49 592 51 595 53 598 c 0
 54 600 57 606 59 611 c 0
 61 617 63 624 64 628 c 1
 64 632 65 636 66 637 c 0
 67 638 69 643 71 649 c 1
 74 655 76 660 77 661 c 0
 78 662 81 666 84 670 c 0
 87 675 91 679 93 680 c 1
 95 682 99 685 103 689 c 2
 107 692 111 696 113 697 c 0
 115 698 120 700 124 701 c 0
 128 702 137 706 142 710 c 0
 151 716 155 717 163 718 c 0
 169 719 176 721 181 724 c 0
 187 727 192 729 198 730 c 1
 203 730 209 731 212 732 c 1
 214 734 218 735 221 736 c 1
 225 736 229 737 231 739 c 1
EndSplineSet
Validated: 33
EndChar

StartChar: uni0033
Encoding: 51 51 20
Width: 572
GlyphClass: 2
Flags: W
LayerCount: 2
Fore
SplineSet
248 744 m 1
 254 746 264 746 279 747 c 0
 298 747 302 746 307 744 c 1
 310 742 315 742 320 742 c 0
 325 742 333 742 337 743 c 0
 343 744 347 743 357 740 c 0
 364 738 376 733 384 729 c 0
 391 726 398 722 399 722 c 1
 400 721 408 717 417 713 c 0
 432.959 705.907 434 704 448 690 c 0
 456 682 463 674 464 673 c 0
 465 672 470 667 476 662 c 0
 482 656 487 650 490 643 c 0
 492 638 495 633 496 633 c 1
 497 632 498 630 499 627 c 1
 501 625 502 618 503 612 c 1
 503 607 504 600 505 597 c 1
 507 594 508 589 508 585 c 1
 509 582 510 577 511 575 c 0
 513 571 514 565 514 552 c 0
 514 538 513 533 511 526 c 0
 509 522 508 516 508 512 c 0
 508 507 506 502 503 494 c 0
 500 488 495 480 492 476 c 0
 489 471 484 465 481 462 c 0
 477 459 473 453 471 451 c 0
 469 448 459.973 439.031 452 432 c 0
 442.969 424.035 435 417 433 416 c 0
 431 415 425 414 421 412 c 1
 415 411 410 410 407 411 c 2
 405 411 401 412 399 412 c 0
 397 412 392 410 389 408 c 0
 386 406 381 402 378 399 c 1
 376 395 374 392 374 389 c 0
 374 385 375 382 378 379 c 0
 380 376 384 373 386 371 c 0
 388 369 392 366 395 364 c 0
 399 362 404 360 408 359 c 1
 411 359 419 357 425 355 c 0
 431 353 438 350 440 349 c 0
 442 348 444 347 445 347 c 1
 445 346 448 344 450 342 c 0
 453 340 461 333 468 326 c 0
 475 319 481 312 482 310 c 0
 483 308 485 305 486 303 c 1
 486 301 491 298 495 295 c 0
 500 292 504 288 505 286 c 0
 506 284 507 278 508 273 c 1
 508 267 510 260 511 257 c 0
 512 254 515 248 517 243 c 0
 520 235 521 230 522 215 c 0
 522 203 522 194 521 188 c 0
 520 184 517 176 515 171 c 0
 513 166 509 157 507 151 c 0
 505 144 502 138 502 137 c 1
 501 137 500 132 498 127 c 1
 497 122 493 114 491 108 c 1
 488 102 482 93 477 88 c 2
 473 82 464 73 459 68 c 0
 453 63 445 57 441 55 c 0
 436 53 430 48 426 44 c 1
 422 41 415 36 410 33 c 0
 405 30 400 27 400 26 c 1
 399 26 397 24 394 23 c 0
 392 22 385 20 380 18 c 1
 375 17 367 15 362 15 c 1
 358 14 349 11 342 8 c 0
 333 5 328 4 315 3 c 0
 305 2 298 1 295 -1 c 0
 291 -3 285 -3 261 -3 c 0
 242 -3 232 -2 228 -1 c 0
 224 0 217 1 211 1 c 0
 205 1 199 2 195 4 c 0
 192 6 182 8 173 9 c 0
 163 11 155 13 151 15 c 0
 148 17 143 19 140 20 c 1
 138 20 132 23 127 25 c 0
 123 27 118 29 116 30 c 1
 114 30 108 34 103 38 c 0
 98 41 91 47 87 51 c 1
 83 54 77 59 72 61 c 0
 68 63 63 67 61 69 c 1
 60 71 58 75 57 78 c 1
 57 81 54 86 51 89 c 0
 48 92 44 97 42 100 c 0
 40 103 37 111 34 118 c 0
 30 127 28 134 28 142 c 1
 27 148 26 157 25 162 c 0
 24 166 23 173 23 177 c 0
 23 183 23 184 30 192 c 0
 38 199 38 199 51 200 c 0
 54 200.5 59.5 200.75 65.875 200.75 c 0
 72.25 200.75 79.5 200.5 86 200 c 0
 98.0059 199.076 118 199 129 199 c 0
 146 200 149 200 153 197 c 0
 155 196 159 193 161 191 c 0
 163 188 165 185 166 183 c 1
 166 181 167 176 168 172 c 0
 169 167 171 161 173 157 c 0
 175 154 178 150 178 148 c 1
 179 147 180 143 181 140 c 0
 183 135 185 132 189 129 c 0
 193 126 198 122 200 119 c 0
 202 117 206 113 209 111 c 1
 212 110 219 105 225 101 c 0
 235 95 235 95 260 94 c 0
 282 94 286 94 294 97 c 2
 299 98 306 100 309 101 c 1
 314 101 317 103 323 109 c 1
 329 113 334 116 339 118 c 0
 345 120 349 122 354 127 c 0
 360 133 361 137 365 149 c 0
 368 157 371 168 373 172 c 1
 374 177 375 182 375 184 c 0
 375 186 376 190 378 192 c 1
 379 195 380 199 381 202 c 1
 381 205 380 209 379 214 c 1
 376 220 375 226 375 234 c 0
 375 241 375 248 374 251 c 0
 373 254 371 258 369 260 c 0
 366 263 363 269 361 273 c 1
 360 277 356 282 354 285 c 0
 352 289 350 292 350 292 c 1
 350 293 348 296 345 298 c 0
 343 300 337 304 332 305 c 1
 328 307 323 309 321 310 c 1
 320 311 315 313 311 315 c 0
 306 317 298 319 293 320 c 0
 287 321 282 322 280 323 c 1
 278 325 269 326 257 326 c 0
 243 326 235 326 227 324 c 0
 217 322 215 322 210 324 c 0
 207 325 203 328 202 330 c 2
 200 331 198 335 196 338 c 0
 194 342 193 348 193 361 c 0
 192 375 191 383 189 389 c 0
 187 394 186 402 186 406 c 0
 186 410 186 413 187 414 c 1
 188 414 191 418 193 423 c 1
 196 427 199 432 201 434 c 0
 202 435 205 438 207 439 c 0
 210 440 215 441 219 441 c 0
 222 441 226 441 227 440 c 0
 228 439 232 437 237 436 c 2
 241 434 247 433 251 433 c 0
 255 433 259 434 263 437 c 0
 268 440 271 441 282 441 c 1
 289 442 296 443 299 444 c 0
 301 445 306 447 311 448 c 0
 318 450 320 451 332 462 c 0
 339 469 348 479 352 484 c 0
 356 490 363 498 368 502 c 0
 376 510 376 510 376 551 c 0
 376 574 375 594 374 596 c 0
 373 599 372 601 371 601 c 1
 361 613 l 2
 355 620 349 627 347 630 c 0
 344 633 340 635 336 636 c 0
 332 637 327 639 325 640 c 0
 323 641 321 642 320 643 c 2
 318 644 314 647 310 649 c 0
 305 652 301 653 294 653 c 2
 274 653 l 2
 265 654 261 654 258 652 c 0
 256 651 252 649 249 647 c 0
 246 645 241 644 239 643 c 0
 236 642 228 639 220 635 c 0
 213 632 205 627 203 625 c 0
 201 623 197 617 195 611 c 1
 192 606 188 599 185 595 c 0
 182 591 180 586 179 582 c 1
 179 578 177 573 176 571 c 0
 175 569 173 565 171 563 c 0
 169 561 166 558 164 557 c 0
 162 556 153 555 139 555 c 2
 110 555 l 1
 74 555 l 2
 45 555 45 555 39 561 c 0
 35 566 33 569 32 575 c 1
 30 581 30 584 32 590 c 0
 33 594 37 601 40 605 c 0
 42 609 46 617 48 624 c 1
 51 630 54 638 56 641 c 0
 59 644 62 648 63 651 c 0
 64 653 69 660 74 665 c 0
 79 671 85 678 87 681 c 0
 89 684 94 690 97 694 c 1
 101 698 105 701 105 701 c 1
 106 701 110 704 115 707 c 0
 119 710 128 715 133 717 c 0
 139 720 148 723 153 725 c 0
 159 727 165 729 167 730 c 1
 170 730 177 733 183 736 c 0
 194 741 194 741 217 742 c 0
 232 742 242 743 248 744 c 1
EndSplineSet
Validated: 33
EndChar

StartChar: uni0034
Encoding: 52 52 21
Width: 578
GlyphClass: 2
Flags: W
LayerCount: 2
Fore
SplineSet
326 568 m 0
 322 570 318 572 315 572 c 0
 311 572 309 570 299 560 c 0
 293 553 287 547 287 545 c 1
 280 538 l 2
 278 535 275 530 274 528 c 0
 273 525 272 520 272 517 c 0
 272 514 271 510 269 507 c 0
 267 504 263 498 260 493 c 0
 257 488 254 484 253 484 c 1
 253 483 249 476 245 468 c 0
 241 460 236 451 235 449 c 1
 233 447 231 443 229 440 c 0
 227 438 225 435 223 433 c 0
 222 432 217 429 214 426 c 2
 210 424 205 420 202 417 c 0
 200 415 197 409 195 405 c 0
 193 401 191 395 190 391 c 0
 189 388 186 382 184 380 c 0
 181 377 176 372 173 368 c 2
 169 364 163 356 159 350 c 2
 154 345 150 340 150 339 c 1
 150 339 148 334 145 330 c 0
 142 325 137 319 134 315 c 1
 129 310 127 305 126 301 c 1
 126 298 124 293 123 290 c 0
 122 287.5 121.5 286 121.5 284.75 c 0
 121.5 283.5 122 282.5 123 281 c 0
 124 279 128 276 132 275 c 2
 136 272 139 272 146 272 c 1
 150 273 159 274 164 276 c 0
 173 279 177 279 186 278 c 0
 194 278 198 278 203 280 c 1
 208 281 215 282 229 282 c 0
 245 282 248 282 253 279 c 2
 256 278 259 276 260 275 c 1
 260 274 263 273 265 273 c 0
 267 273 271 274 273 275 c 1
 277 276 280 276 285 275 c 0
 291 274 295 274 305 275 c 1
 312 277 319 278 320 279 c 2
 321 279 324 283 327 286 c 0
 330 290 332 295 332 299 c 2
 333 303 332 307 331 310 c 1
 329 313 328 318 328 325 c 0
 328 331 327 342 325 350 c 0
 324 357 322 368 322 373 c 0
 322 379 323 386 325 389 c 2
 326 392 328 397 330 400 c 0
 333 404 333 404 331 413 c 1
 329 417 328 425 327 429 c 0
 326 435 326 444 327 459 c 0
 328 471 328 488 328 497 c 0
 328 507 329 514 330 518 c 1
 332 521 333 529 333 540 c 0
 333 549 333 558 332 560 c 2
 332 562 329 566 326 568 c 0
425 742 m 0
 427 743 431.999 743 434.999 744 c 1
 439.999 744 441.999 743 445.999 740 c 1
 452.999 730 l 2
 455.999 726 455.999 723 455.999 711 c 0
 455.999 701 455.999 696 457.999 690 c 0
 460.999 683 460.999 682 458.999 675 c 0
 456.999 671 455.999 660 454.999 649 c 0
 452.999 631 452.999 631 456.999 623 c 0
 459.999 617 460.999 615 459.999 608 c 1
 459.999 603 457.999 595 456.999 590 c 0
 455.348 585.046 454.605 581.606 454.605 574.177 c 0
 454.605 568.11 455.101 559.384 456 545 c 0
 457 525 458 500 458 489 c 0
 458 472 458 468 455 460 c 0
 452 452 452 451 453 445 c 1
 455 440 455 423 455 363 c 0
 455 287 455 287 459 283 c 0
 461 281 465 279 468 278 c 0
 472 277 477 275 479 275 c 2
 483 274 486 274 491 277 c 0
 496 280 500 281 519 282 c 0
 539 282 542 282 546 280 c 0
 549 279 553 275 556 271 c 0
 560 265 560 265 561 228 c 0
 561 191 561 191 556 185 c 0
 553 181 549 177 547 176 c 0
 544 174 539 173 533 173 c 0
 526 173 521 174 518 176 c 1
 515 177 509 178 503 179 c 1
 498 179 491 180 489 181 c 1
 487 183 484 184 483 184 c 0
 482 184 477 182 472 179 c 2
 467 177 461 174 460 172 c 2
 458 171 455 166 454 161 c 2
 452 156 452 151 452 148 c 1
 453 145 454 139 455 134 c 0
 455 130 456 116 456 103 c 0
 456 87 457 80 458 76 c 1
 460 72 461 66 461 58 c 0
 461 51 460 41 458 36 c 2
 457 31 455 25 453 23 c 0
 451 20 448 17 446 16 c 0
 444 15 439 13 435 11 c 1
 431 10 424 9 418 9 c 0
 412 9 407 10 404 11 c 1
 401 13 395 14 382 14 c 0
 369 14 362 14 355 12 c 0
 347 10 346 10 339 12 c 1
 336 14 330 17 328 20 c 2
 324 23 323 26 322 31 c 0
 321 35 320 40 319 43 c 1
 317 46 317 50 317 53 c 0
 317 56 318 62 319 66 c 0
 322 73 322 78 322 110 c 0
 322 141 322 148 320 156 c 0
 318 162 316 169 316 171 c 1
 315 173 313 176 311 178 c 0
 309 180 305 182 302 183 c 0
 299 184 289 184 275 184 c 0
 263 183 253 182 252 181 c 0
 251 180 246 179 242 179 c 0
 238 179 233 177 230 176 c 1
 227 174 223 173 220 173 c 0
 218 173 212 175 207 176 c 0
 200 178 193 179 173 179 c 2
 138 179 l 1
 132 178 125 178 120 179 c 0
 116 180 110 181 106 182 c 0
 100 184 98 184 91 182 c 0
 87 180 79 179 73 179 c 0
 68 179 59 178 54 178 c 1
 49 177 43 178 40 178 c 1
 37 179 33 181 32 182 c 0
 30 184 27 187 26 189 c 0
 25 191 23 197 20 203 c 1
 18 210 17 217 17 222 c 0
 17 227 18 233 19 236 c 1
 21 239 22 243 21 251 c 0
 21 258 20 265 19 268 c 0
 18 271 17 278 17 284 c 0
 17 292 17 296 20 301 c 0
 23 306 27 312 31 316 c 0
 35 320 39 327 43 337 c 0
 48 348 50 352 57 360 c 1
 62 364 69 374 73 380 c 0
 77 387 83 395 85 399 c 0
 87 402 91 408 94 411 c 2
 96 415 99 419 100 420 c 1
 101 420 103 425 106 430 c 1
 108 435 113 442 116 447 c 1
 120 451 127 458 131 463 c 0
 137 469 139 472 140 477 c 1
 140 482 142 485 147 490 c 0
 150 493 154 497 157 499 c 0
 159 500 162 505 164 509 c 0
 166 513 168 516 168 517 c 0
 168 518 169 522 171 526 c 0
 173 530 177 535 179 539 c 1
 182 542 185 547 186 550 c 0
 187 553 192 559 196 563 c 0
 200 567 206 575 209 580 c 0
 212 585 216 593 218 598 c 0
 221 604 224 609 230 614 c 0
 235 619 240 625 242 631 c 0
 244 636 248 641 253 645 c 0
 257 649 261 654 263 656 c 1
 264 659 267 663 268 665 c 0
 270 668 275 675 279 683 c 0
 283 690 287 698 289 700 c 1
 290 702 292 704 292 705 c 1
 292 705 294 709 297 713 c 0
 300 717 302 721 302 721 c 1
 302 722 304 724 307 726 c 0
 309 728 314 731 317 733 c 0
 321 735 326 737 330 738 c 0
 335 739 351 740 379 740 c 0
 402 741 422 741 425 742 c 0
EndSplineSet
Validated: 33
EndChar

StartChar: uni0035
Encoding: 53 53 22
Width: 572
GlyphClass: 2
Flags: W
LayerCount: 2
Fore
SplineSet
97 742 m 1
 104 742 112 743.001 116 743.001 c 1
 120 742.001 126 741.001 128 739.001 c 1
 133 736.001 137 736.001 159 735.001 c 0
 178 735.001 189 735.001 202 737.001 c 0
 212 739.001 224 740.001 230 740.001 c 2
 237 741.001 241 740.001 245 738.001 c 0
 250 736.001 256 736.001 302 736.001 c 0
 311.914 735.733 320.464 735.609 327.881 735.609 c 0
 348.144 735.609 359.947 736.537 368 738.001 c 0
 376 739.001 390 740.001 398 740.001 c 0
 408 741.001 415 740.001 417 739.001 c 0
 419 738.001 425 737.001 431 736.001 c 0
 441 735.001 444 735.001 451 738.001 c 2
 456 739.001 461 741.001 461 741.001 c 2
 462 741.001 468 738.001 474 736.001 c 1
 480 733.001 486 728.001 489 725.001 c 0
 494 720.001 494 720.001 494 703.001 c 0
 494 691.001 493 684.001 492 680.001 c 1
 490 676.001 490 672.001 490 666.001 c 1
 491 660.001 491 656.001 489 653.001 c 1
 488 650.001 487 648.001 486 648.001 c 1
 484 646.001 l 1
 484 644.001 481 641.001 477 640.001 c 2
 471 636.001 470 636.001 455 637.001 c 0
 446 637.001 436 638.001 432 639.001 c 0
 426 641.001 426 641.001 418 637.001 c 0
 413 634.001 410 633.001 406 634.001 c 1
 403 634.001 396 636.001 392 639.001 c 1
 383 642.001 382 643.001 352 643.001 c 0
 341.386 643.367 334.12 643.6 328.684 643.6 c 0
 319.268 643.6 315.34 642.903 309 641.001 c 0
 302 639.001 293 638.001 286 638.001 c 0
 279 638.001 272 639.001 267 640.001 c 1
 260 643.001 255 643.001 230 643.001 c 0
 202 643.001 200 643.001 194 639.001 c 0
 191 637.001 186 633.001 183 630.001 c 0
 181 627.001 177 621.001 176 618.001 c 2
 174 615.001 172 606.001 172 598.001 c 0
 171 590.001 171 574.001 171 563.001 c 0
 171 551.001 173 540.001 174 536.001 c 0
 176 529.001 176 528.001 173 520.001 c 0
 171 515.001 168 508.001 168 506.001 c 2
 167 503.001 166 496.001 165 490.001 c 1
 165 484.001 164 478.001 163 477.001 c 0
 162 476.001 161 473.001 160 469.001 c 0
 159 464.001 158 462.001 160 457.001 c 0
 161 453.001 163 449.001 164 447.001 c 1
 166 445.001 170 442.001 174 440.001 c 0
 178 438.001 183 436.001 185 436.001 c 0
 187 436.001 194 439.001 201 443.001 c 0
 208 446.001 217 452.001 222 456.001 c 0
 226 460.001 233 466.001 238 469.001 c 0
 244 473.001 247 474.001 259 475.001 c 0
 266 476.001 275 476.001 277 476.001 c 1
 280 475.001 287 477.001 300 481.001 c 0
 310 485.001 320 488.001 323 488.001 c 0
 325 488.001 330 487.001 334 486.001 c 0
 338 485.001 345 483.001 350 483.001 c 1
 354 482.001 362 480.001 367 478.001 c 0
 371 476.001 378 473.001 381 473.001 c 1
 383 472.001 390 469.001 396 466.001 c 1
 402 464.001 410 461.001 414 460.001 c 1
 418 460.001 423 458.001 426 456.001 c 0
 428 454.001 432 449.001 434 446.001 c 0
 437 442.001 441 437.001 444 436.001 c 2
 447 434.001 451 432.001 455 431.001 c 0
 459 430.001 463 428.001 471 420.001 c 0
 480 412.001 484 406.001 491 393.001 c 0
 496 384.001 501 373.001 503 369.001 c 1
 504 365.001 506 359.001 506 355.001 c 1
 507 352.001 508 347.001 510 346.001 c 1
 511 344.001 513 341.001 514 339.001 c 1
 516 337.001 517 331.001 518 323.001 c 0
 518 316.001 519 309.001 521 306.001 c 1
 522 303.001 524 297.001 524 291.001 c 0
 524 286.001 526 279.001 527 276.001 c 0
 528 273.001 529 268.001 529 265.001 c 0
 529 262.001 528 257.001 527 253.001 c 0
 526 250.001 524 239.001 524 229.001 c 0
 523 219.001 522 209.001 521 207.001 c 0
 520 205.001 519 198.001 519 192.001 c 1
 518 186.001 517 180.001 516 178.001 c 1
 515 177.001 513 172.001 511 167.001 c 0
 509 162.001 507 155.001 506 152.001 c 1
 506 149.001 504 143.001 502 139.001 c 0
 500 135.001 499 131.001 498 131.001 c 1
 498 130.001 496 127.001 493 124.001 c 0
 491 121.001 489 116.001 489 113.001 c 1
 488 111.001 486 105.001 484 101.001 c 0
 482 97.001 478 91.001 475 89.001 c 2
 473 86.001 470 84.001 470 84.001 c 1
 469 84.001 466 82.001 462 79.001 c 0
 459 76.001 455 73.001 454 71.001 c 0
 453 68.001 451 65.001 448 63.001 c 0
 446 62.001 441 57.001 436 53.001 c 0
 431 50.001 425 44.001 422 42.001 c 1
 420 39.001 417 37.001 416 37.001 c 1
 416 37.001 413 35.001 411 33.001 c 0
 408 31.001 403 28.001 399 26.001 c 1
 395 25.001 391 23.001 389 22.001 c 1
 388 21.001 379 17.001 370 12.001 c 0
 353 3.00098 353 3.00098 331 3.00098 c 0
 314 2.00098 308 2.00098 304 0.000976562 c 0
 301 -1.99902 297 -2.99902 295 -2.99902 c 0
 292 -2.99902 287 -3.99902 283 -5.99902 c 1
 279.404 -6.89844 277.223 -7.39355 275.184 -7.39355 c 0
 272.687 -7.39355 270.404 -6.65137 266 -5 c 2
 250 -1 l 2
 245 1 236 2 216 2 c 0
 190 2 190 2 177 8 c 0
 170 12 159 16 154 19 c 0
 149 22 142 25 140 27 c 0
 137 29 133 31 130 31 c 1
 127 32 122 34 119 36 c 0
 116 38 111 43 107 47 c 1
 104 51 100 54 99 54 c 0
 98 54 89 62 79 72 c 0
 70 81 60 92 58 95 c 0
 56 98 52 105 50 111 c 0
 49 116 45 123 43 125 c 0
 41 128 37 134 35 138 c 0
 33 143 32 149 32 152 c 0
 32 156 33 160 34 163 c 0
 35 165 39 169 43 173 c 0
 46 176 51 179 52 180 c 1
 54 181 60 182 66 182 c 0
 71 182 78 181 83 180 c 1
 89 177 90 177 97 180 c 0
 101 181 107 182 110 182 c 0
 114 182 120 181 123 180 c 0
 129 178 130 178 136 180 c 0
 140 181 144 182 145 182 c 0
 146 182 151 180 156 178 c 0
 161 176 167 172 168 170 c 2
 170 168 173 164 175 161 c 1
 176 158 178 154 178 152 c 0
 178 150 179 147 181 144 c 0
 183 141 186 137 189 134 c 0
 192 132 196 127 199 123 c 0
 202 119 205 115 206 114 c 1
 206 113 209 109 212 106 c 0
 216 102 221 98 224 97 c 2
 227 95 232 94 235 94 c 0
 238 94 244 95 248 96 c 0
 254 97 259 97 268 96 c 0
 278 94 281 94 288 96 c 0
 292 97 301 99 307 100 c 0
 313 101 320 103 325 105 c 0
 330 107 336 111 339 114 c 0
 342 117 347 121 349 123 c 0
 350 124 354 128 356 131 c 0
 358 135 360 139 361 140 c 2
 375 167 l 2
 387 192 387 192 387 205 c 0
 387 212 388 221 389 225 c 0
 390 228 390 233 390 235 c 1
 389 237 391 243 393 248 c 0
 397 257 397 258 395 264 c 0
 394 267 393 270 392 271 c 1
 392 272 388 280 385 289 c 0
 380 302 379 307 379 315 c 0
 379 320 378 326 377 329 c 1
 377 331 373 335 370 339 c 0
 367 342 363 347 361 351 c 0
 359 354 354 359 351 361 c 0
 347 363 342 367 339 370 c 0
 337 372 332 376 329 377 c 2
 326 379 320 382 316 384 c 0
 311 387 303 389 295 390 c 0
 288 390 278 391 272 391 c 1
 267 390 260 389 257 388 c 1
 254 386 249 385 245 384 c 1
 240 384 235 382 230 379 c 0
 226 376 220 373 217 372 c 0
 214 371 210 368 207 365 c 0
 204 362 201 358 201 357 c 1
 200 356 199 353 197 351 c 2
 196 349 193 344 190 341 c 1
 188 337 184 331 182 327 c 0
 179 322 176 318 173 316 c 0
 169 314 162 314 112 314 c 0
 59 315 55 315 51 317 c 1
 49 319 46 322 45 324 c 0
 43 327 42 332 42 345 c 0
 41 355 42 364 43 369 c 0
 45 375 45 379 44 392 c 0
 43 401 42 410 42 412 c 1
 41 415 42 420 43 424 c 2
 43 428 45 436 46 441 c 0
 48 449 49 463 49 516 c 0
 50 576 50 582 53 589 c 0
 55 596 55 600 55 611 c 0
 55 618 54 626 53 628 c 1
 52 632 53 636 55 648 c 0
 59 662 59 663 57 673 c 0
 56 679 55 687 54 691 c 0
 53 695 53 703 54 712 c 0
 54 725 55 727 59 731 c 0
 61 733 65 735 68 736 c 1
 71 736 76 738 79 739 c 0
 82 740 90 741 97 742 c 1
EndSplineSet
Validated: 33
EndChar

StartChar: uni0036
Encoding: 54 54 23
Width: 574
GlyphClass: 2
Flags: W
LayerCount: 2
Fore
SplineSet
316 376 m 1
 314 377 311 378 309 378 c 1
 307 377 304 377 301 375 c 0
 299 374 293 373 288 373 c 0
 283 373 276 372 271 371 c 0
 267 370 260 368 257 367 c 1
 253 367 246 364 242 361 c 0
 238 358 230 352 225 347 c 0
 220 343 215 337 214 335 c 0
 213 333 211 329 209 327 c 1
 208 325 205 320 204 316 c 1
 202 312 199 305 196 300 c 0
 194 296 190 287 188 282 c 0
 186 277 185 271 185 268 c 0
 185 266 186 261 187 257 c 0
 189 251 189 249 188 244 c 1
 186 240 186 235 187 228 c 2
 187 222 188 205 189 191 c 0
 190 165 190 165 195 156 c 0
 198 150 201 144 201 142 c 1
 202 139 206 134 212 128 c 0
 218 123 227 115 232 111 c 0
 238 107 247 102 254 100 c 0
 260 98 268 95 272 95 c 1
 275 94 282 92 286 91 c 0
 290.393 89.5361 294.249 88.6084 297.177 88.6084 c 0
 298.249 88.6084 299.196 88.7324 300 89 c 2
 303 89 308 91 310 92 c 0
 312 93 318 94 323 94 c 0
 328 94 334 95 336 96 c 0
 339 97 344 100 347 103 c 0
 349 106 353 109 355 110 c 0
 357 111 364 117 370 123 c 0
 377 129 385 138 388 143 c 2
 392 147 395 154 396 157 c 0
 397 161 399 166 400 169 c 1
 402 172 403 181 404 192 c 0
 405 201 406 214 407 219 c 0
 408.464 224.124 409.392 229.784 409.392 239.119 c 0
 409.392 242.536 409.268 246.445 409 251 c 0
 409 272 408 273 403 285 c 0
 400 292 397 301 397 305 c 1
 396 309 395 313 393 315 c 1
 392 317 389 321 387 325 c 0
 384 330 375 340 366 349 c 0
 352 362 348 366 343 367 c 0
 341 367 337 368 337 369 c 1
 336 370 331 371 327 372 c 0
 322 374 317 375 316 376 c 1
272 736 m 0
 282 741 282 741 321 741 c 0
 355 741 359 740 366 738 c 0
 372 736 378 735 386 735 c 0
 397 735 398 735 412 728 c 0
 419 724 428 719 430 717 c 0
 432 715 437 713 441 712 c 1
 445 712 452 709 456 707 c 0
 461 704 466 701 468 700 c 1
 469 698 472 696 474 695 c 2
 480 692 l 1
 481 691 484 688 486 685 c 1
 489 683 492 680 493 678 c 2
 494 677 497 671 500 665 c 0
 503 660 508 651 510 646 c 0
 512 641 515 633 518 628 c 2
 520 623 525 615 528 610 c 0
 532 604 534 599 534 596 c 0
 534 593 534 589 533 587 c 0
 532 585 530 581 527 578 c 0
 525 575 521 572 519 570 c 1
 515 568 511 567 464 567 c 0
 414 567 414 567 405 572 c 0
 400 575 395 579 394 580 c 1
 389 590 l 2
 388 593 386 600 385 604 c 1
 385 609 383 613 382 615 c 1
 380 617 377 619 374 621 c 1
 371 622 367 624 365 625 c 0
 363 626 360 627 359 628 c 2
 357 629 354 631 351 633 c 0
 347 636 344 637 331 637 c 0
 323 638 314 639 311 640 c 0
 308 641 299 642 291 643 c 0
 277 643 277 643 267 636 c 0
 261 632 253 628 248 626 c 0
 242 624 236 621 233 619 c 0
 231 618 225 613 221 609 c 0
 216 604 214 601 212 595 c 0
 211 591 208 582 206 575 c 0
 205 568 202 556 201 549 c 0
 200 542 198 531 197 526 c 0
 196 521 194 515 193 512 c 0
 192 510 189 504 187 499 c 0
 184 491 184 488 184 462 c 0
 184 436 184 433 187 430 c 1
 189 426 192 425 199 424 c 0
 207 422 207 422 219 428 c 0
 225 431 232 434 234 435 c 1
 235 436 240 440 244 443 c 0
 248 446 253 450 255 451 c 0
 257 452 260 453 262 453 c 1
 264 454 273 458 282 462 c 0
 297 470 297 470 316 471 c 0
 327 472 340 472 345 472 c 0
 350 472 362 472 372 471 c 0
 389 470 390 470 395 465 c 1
 399 463 408 459 417 455 c 0
 427 452 437 447 444 443 c 1
 449 439 457 434 459 431 c 1
 471 423 l 2
 475 421 483 414 488 408 c 0
 494 402 500 395 502 391 c 0
 503 388 506 383 509 379 c 0
 511 376 514 371 515 369 c 1
 517 367 519 360 520 354 c 1
 522 348 525 338 528 332 c 0
 531 326 534 320 534 319 c 2
 535 317 536 310 536 303 c 0
 536 294 537 287 539 280 c 0
 540 275 542 269 542 267 c 0
 542 264 543 257 545 252 c 1
 546 246 548 238 548 234 c 0
 548 229 547 224 546 222 c 1
 544 220 543 215 542 212 c 1
 542 208 540 202 538 198 c 0
 536 194 534 185 532 179 c 1
 531 173 530 164 530 160 c 0
 530 153 529 149 526 143 c 0
 523 138 521 133 520 131 c 1
 520 129 517 124 515 121 c 0
 512 118 508 111 505 107 c 0
 502 102 497 94 495 89 c 1
 492 84 489 79 486 78 c 1
 484 76 477 70 470 64 c 1
 464 57 454 49 449 46 c 0
 444 42 439 39 439 38 c 1
 438 38 436 36 433 34 c 0
 431 32 428 31 428 31 c 1
 427 31 421 28 413 24 c 0
 406 20 398 16 396 13 c 1
 393 11 388 8 384 6 c 1
 380 5 373 3 368 2 c 1
 363 2 357 0 354 -1 c 0
 351 -2 344 -3 337 -3 c 0
 328 -3 322 -4 315 -6 c 0
 310.562 -7.90234 307.732 -8.59863 304.217 -8.59863 c 0
 302.187 -8.59863 299.928 -8.36621 297 -8 c 0
 292 -8 280 -7 269 -7 c 0
 259 -7 244 -6 237 -5 c 2
 229 -5 221 -3 214 0 c 0
 208 3 196 7 188 10 c 0
 181 12 171 16 168 19 c 1
 164 21 158 25 154 26 c 1
 150 28 142 32 136 36 c 0
 130 39 122 45 119 49 c 0
 116 52 110 59 106 65 c 0
 103 70 98 76 96 79 c 0
 94 82 89 90 86 97 c 0
 82 104 77 115 75 122 c 0
 73 129 70 135 69 137 c 1
 68 138 67 140 66 142 c 1
 66 144 64 147 63 149 c 1
 62 150 61 153 60 156 c 1
 60 159 59 168 57 177 c 0
 56 185 55 194 54 195 c 1
 53 197 51 202 50 207 c 0
 49 212 46 218 44 221 c 0
 42 224 40 228 40 230 c 2
 39 232 40 237 41 240 c 0
 42 243 43 248 43 250 c 0
 43 251 42 255 41 257 c 0
 39 261 39 270 38 306 c 0
 38 330 38 357 39 365 c 0
 40 373 42 384 43 388 c 0
 44 393 45 399 45 401 c 0
 45 403 43 408 42 413 c 1
 39 421 39 421 42 428 c 0
 44 433 45 439 45 450 c 0
 45 463 45 465 49 472 c 0
 51 477 52 481 52 484 c 1
 51 487 52 491 53 493 c 1
 53 495 55 500 55 503 c 2
 56 507 58 518 59 528 c 0
 61 538 63 548 64 549 c 0
 65 550 66 555 68 561 c 0
 69 566 71 573 72 575 c 0
 74 578 78 584 82 589 c 0
 85 593 90 601 92 605 c 0
 95 610 96 614 96 616 c 0
 96 617 99 624 103 632 c 0
 107 640 111 648 112 651 c 1
 114 654 119 659 126 664 c 0
 134 670 139 675 143 680 c 0
 146 685 150 690 153 693 c 0
 155 695 167 701 178 707 c 0
 194 715 201 717 207 718 c 1
 212 718 218 720 219 721 c 2
 221 722 225 724 228 726 c 0
 232 728 238 730 248 730 c 0
 258 731 265 733 272 736 c 0
EndSplineSet
Validated: 33
EndChar

StartChar: uni0037
Encoding: 55 55 24
Width: 577
GlyphClass: 2
Flags: W
LayerCount: 2
Fore
SplineSet
58 724 m 1
 73.001 724 l 2
 82.001 724 86.001 724 91.001 721 c 1
 95.001 720 102.001 718 107.001 718 c 2
 114.001 717 118.001 718 125.001 720 c 0
 134.001 723 136.001 723 163.001 723 c 0
 179.001 723 196.001 722 202.001 721 c 0
 207.001 720 215.001 718 220.001 717 c 0
 227.001 716 232.001 716 239.001 717 c 0
 244.001 718 250.001 720 253.001 721 c 0
 256.001 722 262.001 723 266.001 723 c 0
 271.001 723 278.001 722 282.001 721 c 0
 287.001 720 289.001 720 294.001 722 c 0
 297.001 723 304.001 723 311.001 723 c 0
 318.001 723 328.001 722 334.001 721 c 0
 341.001 719 352.001 718 380.001 718 c 0
 410.001 718 418.001 719 423.001 721 c 0
 427.001 722 433.001 723 436.001 723 c 0
 440.001 723 447.001 722 452.001 720 c 0
 459.001 718 463.001 717 469.001 718 c 0
 473.001 718 479.001 720 482.001 721 c 0
 486.001 722 494.001 723 501.001 723 c 0
 512.001 723 513.001 723 519.001 718 c 0
 522.001 715 525.001 711 527.001 706 c 0
 529.001 700 530.001 693 530.001 660 c 0
 530.001 633 530.001 620 529.001 619 c 1
 528.001 617 525.001 612 523.001 607 c 0
 521.001 601 519.001 595 519.001 593 c 0
 519.001 591 518.001 587 516.001 584 c 1
 515.001 581 513.001 573 512.001 568 c 0
 511.001 562 509.001 555 508.001 553 c 0
 506.001 550 504.001 547 504.001 545 c 1
 503.001 544 501.001 541 500.001 540 c 0
 498.001 538 496.001 533 494.001 529 c 0
 491.001 524 490.001 519 490.001 516 c 0
 490.001 514 489.001 511 487.001 509 c 1
 486.001 507 484.001 501 483.001 495 c 0
 482.001 489 479.001 481 476.001 476 c 0
 474.001 472 469.001 460 465.001 451 c 0
 462.001 441 459.001 433 459.001 433 c 1
 459.001 432 457.001 428 454.001 424 c 0
 451.001 420 449.001 416 449.001 415 c 1
 449.001 415 446.001 409 443.001 402 c 0
 439.001 395 437.001 389 437.001 387 c 0
 437.001 386 436.001 382 435.001 379 c 1
 433.001 376 431.001 373 430.001 371 c 1
 428.001 369 425.001 363 423.001 356 c 0
 421.001 350 416.001 341 414.001 337 c 0
 411.001 333 409.001 328 409.001 327 c 1
 409.001 327 407.001 322 405.001 318 c 0
 403.001 314 400.001 306 399.001 301 c 0
 397.001 295 394.001 288 393.001 284 c 1
 391.001 281 390.001 276 389.001 273 c 1
 389.001 270 388.001 267 387.001 265 c 1
 386.001 264 384.001 257 382.001 251 c 2
 373.001 229 l 1
 370.001 224 366.001 216 364.001 211 c 0
 362.001 206 360.001 200 360.001 196 c 1
 359.001 192 358.001 189 357.001 189 c 1
 357.001 188 355.001 185 354.001 180 c 0
 353.001 176 351.001 171 350.001 168 c 0
 349.001 166 347.001 162 346.001 161 c 1
 345.001 159 343.001 154 340.001 149 c 0
 338.001 145 336.001 141 335.001 141 c 1
 335.001 141 332.001 137 330.001 131 c 1
 327.001 126 323.001 118 320.001 113 c 0
 317.001 109 314.001 103 313.001 99 c 1
 313.001 96 312.001 90 312.001 86 c 0
 312.001 81 311.001 78 311.001 77 c 1
 310.001 77 308.001 73 307.001 68 c 0
 306.001 63 302.001 55 299.001 50 c 0
 296.001 45 292.001 38 289.001 35 c 1
 287.001 31 285.001 24 284.001 19 c 0
 283.001 14 281.001 8 280.001 6 c 1
 278.001 4 273.001 1 268.001 -1 c 0
 261.334 -3.66699 259.111 -4.55566 251.853 -4.55566 c 0
 248.223 -4.55566 243.334 -4.33301 236.001 -4 c 0
 229.044 -3.68359 224.102 -3.40137 220.186 -3.40137 c 0
 213.402 -3.40137 209.706 -4.09766 204 -6 c 0
 195 -8 189 -9 170 -9 c 0
 149 -9 147 -9 139 -5 c 0
 135 -3 130 0 129 2 c 0
 128 4 126 8 126 11 c 2
 125 14 126 17 128 22 c 0
 130 26 132 30 133 31 c 0
 134 32 136 36 137 40 c 0
 138 44 140 50 141 54 c 1
 143 57 148 63 152 68 c 0
 158 75 160 79 161 83 c 0
 162 86 163 92 164 95 c 0
 166 99 168 106 170 110 c 0
 172 114 176 121 179 125 c 1
 181 130 184 136 185 140 c 0
 186 144 189 151 192 157 c 0
 195 162 197 167 197 168 c 0
 197 169 200 175 203 181 c 0
 206 187 209 193 211 195 c 1
 212 197 214 203 214 208 c 1
 215 213 216 219 217 221 c 0
 218 224 219 228 220 231 c 0
 221 235 223 239 228 244 c 0
 232 249 238 258 242 265 c 0
 247 274 249 280 250 286 c 1
 250 291 252 298 254 303 c 0
 256 307 258 313 259 315 c 0
 260 317 262 319 262 319 c 1
 262 319 265 322 267 326 c 0
 270 330 274 338 276 344 c 0
 278 350 280 356 280 358 c 0
 280 359 282 365 285 371 c 2
 287 377 291 384 293 386 c 1
 294 388 296 392 296 395 c 1
 297 399 298 401 299 402 c 1
 299 402 301 406 302 410 c 0
 303 415 305 421 308 423 c 1
 310 426 313 432 315 437 c 0
 317 441 319 448 319 452 c 1
 320 456 322 461 323 463 c 1
 325 465 327 468 328 470 c 2
 329 471 332 476 334 481 c 0
 336 486 340 495 343 502 c 0
 346 508 349 517 350 520 c 0
 351 524 353 530 354 535 c 1
 356 540 359 545 363 549 c 0
 367 553 372 561 375 566 c 0
 378 572 382 580 385 584 c 0
 388 588 390 593 390 595 c 0
 390 597 388 600 384 604 c 0
 381 607 373 612 368 615 c 0
 361 618 355 619 349 620 c 1
 341 620 337 620 330 617 c 1
 322 615 317 614 292 614 c 0
 266 614 261 615 254 617 c 0
 247 620 245 620 239 619 c 0
 236 618 233 616 232 616 c 1
 231 615 220 614 208 614 c 0
 191 614 185 615 182 616 c 1
 179 618 176 619 175 619 c 0
 174 619 171 618 169 617 c 0
 167 616 160 614 154 613 c 0
 149.333 613 140.222 612.556 129.926 612.556 c 0
 124.777 612.556 119.333 612.667 114 613 c 0
 91 613 85 613 81 611 c 1
 77 610 72 608 69 608 c 0
 65 608 60 610 58 611 c 0
 56 612 52 616 49 619 c 1
 47 623 43 630 41 636 c 0
 39 645 38 649 39 659 c 0
 39 666 40 673 41 674 c 1
 42 676 42 679 41 684 c 1
 39 688 38 694 38 697 c 0
 38 700 39 704 41 707 c 2
 42 710 46 715 49 718 c 0
 52 721 56 723 58 724 c 1
EndSplineSet
Validated: 33
EndChar

StartChar: uni0038
Encoding: 56 56 25
Width: 567
GlyphClass: 2
Flags: W
LayerCount: 2
Fore
SplineSet
315 323 m 1
 312 325 305 325 289 326 c 0
 268 326 266 326 256 323 c 0
 251 321 245 319 244 319 c 0
 242 319 237 317 231 315 c 0
 226 313 218 309 215 307 c 0
 212 305 207 300 204 297 c 0
 201 294 196 287 193 281 c 2
 189 276 186 269 185 266 c 0
 184 263 182 257 179 254 c 1
 177 250 174 245 173 242 c 0
 172 238 171 225 171 201 c 0
 171 167 171 167 175 156 c 0
 178 149 182 141 186 137 c 0
 190 133 195 125 199 120 c 0
 202 115 207 108 211 106 c 1
 214 103 219 98 223 96 c 2
 226 93 232 90 236 89 c 0
 240 88 246 87 249 86 c 0
 254 84 264 83 288 83 c 0
 319 83 322 83 331 86 c 0
 337 88 345 92 349 95 c 1
 360 106 l 2
 362 108 365 113 368 115 c 0
 370 117 373 119 374 120 c 1
 376 120 381 125 386 131 c 0
 391 136 396 143 397 145 c 1
 397 147 398 152 398 157 c 0
 398 162 399 169 401 172 c 1
 402 177 403 185 403 203 c 0
 403 221 403 230 401 233 c 0
 400 235 399 242 398 247 c 0
 397 253 395 261 393 265 c 0
 391 269 386 276 383 280 c 1
 379 283 372 289 368 292 c 0
 363 295 357 301 353 305 c 1
 350 310 345 314 341 316 c 0
 338 318 332 319 327 320 c 0
 323 320 318 322 315 323 c 1
297 643 m 0
 289 643 279.999 644 275.999 644 c 0
 274.827 644.293 273.57 644.414 272.277 644.414 c 0
 269.156 644.414 265.828 643.707 263 643 c 1
 259 641 254 639 250 637 c 0
 247 635 240 632 236 630 c 1
 232 629 226 626 223 625 c 0
 220 624 215 620 212 617 c 0
 208 614 203 610 200 607 c 0
 197 605 192 599 190 593 c 2
 187 588 184 578 182 571 c 0
 178 559 178 557 179 546 c 0
 180 539 181 533 182 532 c 1
 182 531 183 526 184 520 c 1
 184 515 186 506 187 500 c 0
 188 494 191 484 194 479 c 0
 198 471 202 466 210 458 c 0
 217 452 225 446 228 444 c 0
 232 442 237 441 241 441 c 0
 244 441 251 440 255 438 c 2
 260 437 268 434 272 433 c 0
 279 431 286 430 299 430 c 0
 315 430 318 431 325 434 c 0
 329 436 334 439 335 440 c 2
 337 441 344 445 351 449 c 0
 358 453 365 457 367 459 c 0
 369 461 372 465 375 469 c 0
 378 474 382 480 385 483 c 0
 388 486 391 491 392 494 c 0
 393 497 394 503 394 508 c 1
 395 514 397 521 398 524 c 0
 400 528 402 533 402 536 c 1
 403 539 401 547 396 561 c 0
 392 573 388 585 386 589 c 0
 384 593 380 599 377 603 c 0
 374 607 371 611 370 611 c 1
 369 612 363 616 358 622 c 0
 352 628 346 633 344 634 c 0
 341 635 336 637 331 637 c 1
 326 638 320 639 317 640 c 0
 314 641 306 642 297 643 c 0
323.999 738 m 0
 325.999 739 328.999 739 331.999 739 c 0
 335.999 739 339.999 738 343.999 735 c 0
 349.999 731 353.999 730 360.999 729 c 0
 366.999 728 374.999 727 380.999 725 c 0
 385.999 724 391.999 722 394.999 720 c 1
 397.999 719 404.999 716 410.999 714 c 0
 416.999 712 423.999 710 426.999 709 c 0
 428.999 708 436.999 702 444.999 696 c 0
 452.999 690 462.999 684 466.999 681 c 0
 470.999 679 475.999 676 477.999 674 c 0
 480.999 672 483.999 670 485.999 668 c 0
 487.999 666 489.999 663 490.999 660 c 1
 492.999 658 493.999 652 494.999 648 c 0
 495.999 642 497.999 638 502.999 633 c 0
 505.999 630 507.999 626 507.999 626 c 1
 507.999 625 509.999 620 512.999 616 c 1
 514.999 611 518.999 605 520.999 601 c 0
 522.999 597 525.999 592 527.999 589 c 1
 529.999 584 529.999 579 529.999 567 c 0
 529.999 558 530.999 547 531.999 542 c 0
 533.999 534 533.999 533 529.999 528 c 0
 526.999 523 525.999 520 524.999 513 c 1
 524.999 508 523.999 502 522.999 500 c 1
 521.999 499 519.999 494 518.999 491 c 0
 516.999 487 513.999 482 510.999 478 c 0
 508.999 475 503.999 468 500.999 462 c 1
 498.999 456 494.999 448 492.999 446 c 0
 490.999 443 486.999 439 483.999 438 c 1
 480.999 436 474.999 431 470.999 427 c 1
 465.999 424 459.999 419 455.999 417 c 1
 451.999 416 445.999 414 441.999 413 c 0
 436.999 412 431.999 411 427.999 410 c 0
 424.999 409 418.999 409 414.999 409 c 0
 411.999 409 405.999 408 402.999 406 c 1
 398.999 405 397.999 403 396.999 398 c 0
 395.999 394 393.999 390 393.999 389 c 1
 392.999 388 391.999 385 391.999 383 c 0
 391.999 380 394.999 377 400.999 372 c 0
 405.999 368 411.999 364 412.999 363 c 1
 414.999 362 419.999 360 424.999 358 c 0
 428.999 356 434.999 354 437.999 353 c 1
 440.999 353 443.999 352 444.999 351 c 0
 445.999 350 450.999 348 455.999 346 c 0
 461.999 343 465.999 340 469.999 334 c 1
 473.999 330 479.999 325 483.999 322 c 0
 487.999 319 492.999 315 494.999 313 c 0
 496.999 310 502.999 304 507.999 300 c 0
 511.999 296 516.999 291 517.999 289 c 0
 518.999 287 520.999 280 522.999 274 c 0
 524.999 268 526.999 259 527.999 254 c 0
 527.999 250 530.999 241 532.999 235 c 0
 534.999 229 536.999 219 537.999 214 c 0
 537.999 210 538.443 205.556 538.443 201.556 c 0
 538.443 199.556 538.332 197.667 537.999 196 c 0
 536.999 192 535.999 185 535.999 180 c 0
 535.999 175 534.999 168 532.999 163 c 0
 531.999 159 528.999 151 526.999 145 c 0
 525.999 140 522.999 131 521.999 126 c 1
 519.999 121 516.999 113 514.999 109 c 0
 512.999 105 507.999 97 502.999 92 c 0
 497.999 86 492.999 80 491.999 79 c 2
 490.999 77 488.999 74 486.999 71 c 0
 484.999 69 475.999 62 467.999 55 c 0
 458.999 49 450.999 42 448.999 40 c 1
 447.999 38 442.999 34 437.999 30 c 0
 432.999 27 427.999 23 426.999 23 c 2
 424.999 22 420.999 21 416.999 20 c 0
 412.999 19 405.999 17 400.999 15 c 0
 396.999 13 391.999 11 389.999 10 c 0
 387.999 9 383.999 7 378.999 6 c 2
 374.999 4 367.999 3 363.999 3 c 0
 359.999 3 353.999 1 348.999 0 c 1
 344.999 -2 339.999 -3 336.999 -3 c 0
 334.999 -3 327.999 -4 321.999 -6 c 0
 315.999 -8 308.999 -9 304.999 -9 c 0
 300.999 -9 295.999 -8 291.999 -7 c 1
 288.999 -5 283.999 -5 281.999 -5 c 1
 279.999 -6 273.999 -8 269.999 -11 c 1
 264.999 -13 258.999 -15 255.999 -15 c 0
 253.999 -15 249.999 -14 245.999 -13 c 0
 242.999 -12 238.999 -10 236.999 -9 c 1
 235.999 -7 231.999 -6 229.999 -5 c 0
 227.999 -4 222.999 -3 217.999 -3 c 0
 212.999 -3 206.999 -2 197.999 2 c 0
 190.999 5 182.999 8 176.999 8 c 1
 171.999 9 163.999 10 158.999 12 c 1
 152.999 13 146.999 15 144.999 15 c 1
 141.999 16 136.999 20 130.999 25 c 1
 125.999 31 119.999 36 115.999 39 c 0
 111.999 41 103.999 48 96.999 55 c 0
 89.999 62 84.999 68 84.999 69 c 1
 84.999 69 80.999 74 75.999 78 c 0
 70.999 82 66.999 86 66.999 87 c 0
 66.999 88 65.999 90 63.999 92 c 0
 62.999 93 57.999 102 52.999 111 c 0
 48.999 120 42.999 134 39.999 142 c 0
 36.999 151 33.999 162 32.999 167 c 0
 31.999 173 31.999 180 31.999 184 c 0
 31.999 188 31.999 198 32.999 206 c 0
 33.999 214 35.999 223 35.999 225 c 2
 36.999 228 37.999 235 38.999 241 c 1
 38.999 247 40.999 254 41.999 257 c 0
 42.999 260 45.999 266 47.999 270 c 0
 49.999 275 54.999 282 59.999 287 c 0
 63.999 292 68.999 296 68.999 297 c 1
 69.999 297 70.999 300 72.999 303 c 0
 74.999 306 76.999 311 78.999 314 c 0
 80.999 318 86.999 326 92.999 332 c 0
 99.999 339 107.999 345 112.999 348 c 1
 117.999 350 123.999 353 125.999 353 c 1
 128.999 354 132.999 355 134.999 355 c 0
 136.999 355 141.999 356 145.999 357 c 0
 149.999 358 155.999 359 157.999 360 c 0
 160.999 361 164.999 363 167.999 365 c 1
 169.999 368 171.999 372 172.999 375 c 0
 173.999 379 173.999 382 172.999 386 c 0
 171.999 390 169.999 393 164.999 396 c 2
 161.999 399 153.999 402 148.999 404 c 1
 142.999 405 135.999 409 131.999 411 c 0
 127.999 414 119.999 418 113.999 421 c 0
 103.999 425 99.999 429 84.999 443 c 2
 64.999 463 l 1
 63.999 465 60.999 469 59.999 472 c 0
 58.999 476 55.999 483 53.999 488 c 1
 52.999 493 49.999 501 48.999 505 c 0
 47.999 509 45.999 518 44.999 525 c 0
 43.999 532 42.999 541 41.999 545 c 0
 39.999 551 39.999 553 40.999 557 c 1
 42.999 559 43.999 563 44.999 566 c 1
 44.999 569 45.999 572 46.999 572 c 1
 46.999 573 49.999 579 51.999 585 c 0
 53.999 591 55.999 600 56.999 604 c 1
 56.999 607 58.999 613 59.999 615 c 0
 60.999 617 62.999 621 64.999 623 c 0
 66.999 625 68.999 629 69.999 631 c 1
 71.999 632 74.999 637 77.999 640 c 0
 80.999 643 84.999 650 87.999 655 c 0
 90.999 660 94.999 667 97.999 670 c 0
 100.999 674 103.999 677 104.999 677 c 1
 104.999 678 109.999 681 113.999 685 c 1
 118.999 688 125.999 694 130.999 697 c 0
 134.999 700 139.999 703 141.999 704 c 1
 143.999 704 148.999 706 152.999 706 c 1
 156.999 707 161.999 708 163.999 710 c 0
 164.999 711 167.999 713 169.999 715 c 1
 171.999 716 175.999 717 178.999 718 c 0
 181.999 719 187.999 721 192.999 724 c 0
 199.999 727 203.999 728 216.999 729 c 0
 224.999 730 233.999 731 236.999 732 c 0
 241.999 734 253.999 735 281.999 736 c 0
 302.999 736 321.999 737 323.999 738 c 0
EndSplineSet
Validated: 33
EndChar

StartChar: uni0039
Encoding: 57 57 26
Width: 573
GlyphClass: 2
Flags: W
LayerCount: 2
Fore
SplineSet
314 640 m 0
 312 641 306 642 301 643 c 1
 295 643 287 643 281 641 c 1
 275 640 262 639 251 638 c 0
 235 637 231 636 223 633 c 0
 218 631 212 628 211 627 c 0
 210 626 207 622 203 617 c 0
 200 613 195 606 193 603 c 0
 191 599 187 594 185 592 c 0
 183 589 179 584 177 581 c 0
 175 578 172 572 171 568 c 0
 170 564 168 556 166 551 c 0
 163 542 163 539 164 524 c 0
 164 509 164 505 162 502 c 0
 160 499 160 493 160 488 c 0
 160 482 161 475 163 469 c 0
 165 463 169 456 172 452 c 0
 174 449 179 442 181 437 c 0
 183 432 186 426 187 424 c 0
 188 422 191 418 192 416 c 1
 194 414 196 413 197 413 c 0
 198 413 200 411 201 410 c 2
 209 402 l 2
 212 400 218 396 224 394 c 2
 229 391 237 389 241 388 c 0
 246 387 252 386 255 385 c 0
 258 384 266 384 272 384 c 0
 279 384 286 384 288 385 c 0
 291 386 297 387 302 388 c 0
 307 389 313 390 315 391 c 0
 318 393 322 394 325 395 c 1
 327 395 334 399 340 402 c 1
 345 406 351 410 353 412 c 1
 354 414 357 417 359 420 c 1
 360 423 364 430 367 435 c 0
 370 440 374 447 375 450 c 2
 377 453 379 459 380 465 c 0
 381 471 382 476 383 477 c 1
 385 491 l 1
 385 499 387 511 388 518 c 0
 388.707 523.657 389.414 529.314 389.414 532.85 c 0
 389.414 537.196 384.82 544.573 383 547 c 0
 380 552 379 557 379 560 c 0
 379 562 377 571 376 579 c 0
 374 588 372 597 370 599 c 1
 369 602 366 607 363 610 c 0
 360 613 355 618 351 619 c 1
 348 621 342 624 337 626 c 0
 333 628 326 631 323 634 c 0
 320 636 316 639 314 640 c 0
226 739 m 1
 228 740 234 741 241 741 c 0
 248 741 256 740 261 738 c 1
 267 737 274 736 287 736 c 2
 312 736 l 1
 317 737 324 737 328 736 c 2
 332 736 340 735 346 733 c 0
 352 731 359 729 362 729 c 0
 364 729 370 728 375 727 c 0
 380 726 386 725 388 725 c 0
 391 725 394 723 398 720 c 0
 401 717 406 713 410 711 c 0
 414 709 419 706 421 702 c 0
 423 699 431 692 438 687 c 0
 445 682 451 676 453 674 c 1
 454 671 461 664 467 658 c 0
 473 651 481 642 485 637 c 0
 492 628 492 626 493 616 c 0
 494 609 496 601 498 595 c 1
 501 590 503 585 504 584 c 1
 504 584 505 580 505 578 c 0
 505 575 506 570 507 567 c 0
 508 564 512 557 515 551 c 1
 522 542 523 540 523 532 c 0
 523 528 523 518 524 511 c 0
 525 503 526 496 527 494 c 0
 528 492 529 478 529 463 c 0
 529 442 530 434 532 429 c 0
 533 426 534 419 534 415 c 0
 534 410 533 405 532 402 c 1
 530 399 529 392 529 378 c 0
 528 362 529 356 531 349 c 0
 533 341 533 339 531 331 c 0
 530 326 529 316 528 308 c 0
 528 297 528 291 526 285 c 0
 524 280 523 273 523 265 c 0
 523 257 522 249 520 243 c 0
 518 237 515 231 514 228 c 0
 513 225 512 220 511 216 c 1
 511 212 510 207 508 204 c 1
 507 201 506 194 505 187 c 1
 505 178 504 172 502 168 c 0
 500 164 498 157 497 152 c 1
 497 147 495 141 493 138 c 2
 492 135 488 128 486 123 c 2
 476 102 l 2
 473 96 467 87 463 82 c 0
 459 77 453 69 450 64 c 0
 447 59 442 54 439 52 c 0
 436 50 432 48 432 48 c 1
 431 48 427 46 423 42 c 1
 419 39 412 35 406 33 c 0
 401 31 396 28 394 27 c 1
 393 25 391 23 390 22 c 0
 389 21 383 18 377 15 c 2
 359 6 l 2
 352 2 350 1 340 1 c 0
 333 1 324 0 320 -1 c 0
 316 -2 308 -3 301 -3 c 0
 293 -3 287 -4 281 -6 c 0
 277 -8 272 -9 270 -9 c 0
 269 -9 264 -8 261 -6 c 1
 255 -4 250 -3 214 -3 c 0
 177 -3 173 -3 169 -1 c 1
 167 1 164 3 162 5 c 0
 161 6 157 7 154 8 c 1
 151 8 145 11 140 13 c 1
 135 14 126 19 121 22 c 0
 116 25 108 29 104 31 c 0
 100 34 93 39 88 44 c 0
 83 49 75 57 71 62 c 0
 66 67 60 75 58 80 c 0
 56 85 54 90 54 91 c 0
 54 92 51 97 49 102 c 0
 46 109 44 115 43 121 c 0
 43 125 41 131 40 134 c 1
 38 137 38 143 38 151 c 0
 38 163 38 164 42 168 c 0
 44 170 48 172 52 173 c 0
 55 174 62 175 67 175 c 2
 88 175 l 2
 98 175 101 174 108 170 c 0
 112 168 117 166 118 166 c 0
 120 166 123 167 126 169 c 0
 129 171 132 173 134 174 c 0
 136 175 142 176 148 176 c 0
 157 176 158 176 167 170 c 0
 172 167 178 162 180 160 c 0
 183 158 185 152 187 148 c 1
 188 144 189 140 189 139 c 0
 189 138 191 134 194 131 c 0
 197 127 199 122 200 120 c 1
 200 118 201 116 202 115 c 1
 202 114 206 111 210 108 c 0
 214 105 222 100 226 98 c 0
 235 95 237 95 261 95 c 0
 284 95 287 95 293 98 c 0
 297 100 304 103 309 105 c 0
 314 107 318 109 319 109 c 1
 319 109 324 111 330 113 c 1
 335 116 342 119 346 121 c 0
 351 123 352 125 354 131 c 0
 355 135 357 140 359 142 c 2
 360 145 364 150 367 153 c 0
 370 157 374 161 375 164 c 2
 377 167 378 173 378 181 c 2
 379 188 380 195 380 197 c 1
 381 199 383 202 385 204 c 1
 386 206 388 210 389 214 c 0
 390 218 390 221 387 227 c 1
 385 234 384 238 385 252 c 0
 385 261 387 272 388 276 c 0
 390 282 390 290 390 304 c 0
 390 314 390 325 389 327 c 0
 388 329 386 331 383 332 c 0
 380 333 376 334 374 334 c 0
 372 334 367 332 364 329 c 0
 361 327 358 325 357 325 c 1
 357 325 352 322 348 319 c 1
 344 315 339 312 338 310 c 1
 336 309 334 307 332 305 c 1
 330 304 322 301 315 298 c 0
 305 293 301 292 288 291 c 0
 279 290 271 289 268 287 c 1
 263 285 262 285 257 286 c 1
 253 288 249 288 247 287 c 1
 244 287 233 286 221 285 c 0
 209 285 197 285 196 286 c 1
 194 286 190 288 187 290 c 0
 183 293 177 295 173 296 c 0
 168 297 159 300 152 302 c 1
 146 305 139 308 138 309 c 0
 137 310 134 312 131 313 c 2
 128 315 121 318 116 321 c 2
 111 323 103 329 98 334 c 0
 93 339 89 344 89 344 c 1
 89 345 87 348 85 351 c 0
 83 354 80 358 79 359 c 0
 77 361 76 363 74 364 c 1
 73 366 70 370 67 373 c 0
 64 377 60 382 58 385 c 1
 57 388 53 394 51 400 c 1
 48 405 46 410 45 412 c 1
 44 413 43 417 43 421 c 2
 42 425 41 432 40 437 c 1
 38 442 36 450 35 456 c 2
 33 461 31 469 29 475 c 0
 26 483 26 488 26 509 c 0
 26 530 26 535 29 543 c 0
 31 549 34 559 37 565 c 0
 40 573 42 581 43 588 c 1
 43 595 45 601 47 606 c 1
 49 609 54 617 57 622 c 2
 64 633 l 1
 64 634 71 642 79 650 c 0
 88 659 95 667 95 668 c 0
 95 669 101 677 109 685 c 0
 117 692 127 701 131 703 c 0
 135 705 140 708 142 708 c 1
 145 709 150 711 154 712 c 0
 157 713 162 716 163 717 c 0
 165 719 168 720 171 721 c 0
 173 722 178 723 181 724 c 1
 185 724 192 727 198 730 c 2
 204 732 212 735 215 736 c 1
 219 736 224 737 226 739 c 1
EndSplineSet
Validated: 33
EndChar

StartChar: uni003A
Encoding: 58 58 27
Width: 243
GlyphClass: 2
Flags: W
LayerCount: 2
Fore
SplineSet
91 125 m 0
 92.5 125.5 97.25 125.751 103.625 125.751 c 0
 110 125.751 118 125.501 126 125.001 c 0
 153 125.001 156 124.001 162 121.001 c 0
 166 119.001 170 116.001 172 114.001 c 0
 174 111.001 175 108.001 175 100.001 c 0
 175 95.001 174 88.001 174 86.001 c 2
 173 82.001 173 78.001 175 70.001 c 0
 176.464 64.1445 177.392 58.8242 177.392 53.2549 c 0
 177.392 51.2168 177.268 49.1445 177 47.001 c 0
 177 41.001 175 34.001 174 31.001 c 0
 173 28.001 169 24.001 165 20.001 c 0
 158 14.001 158 14.001 145 15.001 c 0
 138 16.001 129 16.001 126 16.001 c 0
 123 16.001 113 16.001 105 15.001 c 0
 97.9707 13.8291 93.6865 13.3438 90.3379 13.3438 c 0
 87.9707 13.3438 86.0713 13.5859 84 14 c 0
 81 15 76 18 74 21 c 0
 71 25 69 28 68 38 c 0
 67 43 66.5 46.25 66.5 48.875 c 0
 66.5 51.5 67 53.5 68 56 c 0
 70 60 71 69 72 85 c 0
 72 101 73 111 75 114 c 1
 76 117 78 120 81 121 c 2
 83 123 87 124 91 125 c 0
80 468.001 m 0
 84 472.001 88 475.001 90 475.001 c 0
 92 475.001 97 474.001 100 473.001 c 0
 104.393 471.537 109.856 470.609 120.315 470.609 c 0
 124.144 470.609 128.641 470.733 134 471.001 c 0
 158 471.001 160 471.001 166 468.001 c 0
 169 466.001 173 463.001 174 460.001 c 1
 177 456.001 177 453.001 176 437.001 c 0
 175 426.001 174 415.001 173 412.001 c 0
 171 408.001 171 404.001 171 401.001 c 1
 172 398.001 173 393.001 174 390.001 c 0
 175 384.001 175 383.001 173 378.001 c 0
 172 376.001 167 370.001 164 366.001 c 1
 157 359.001 157 359.001 148 360.001 c 2
 108 360.001 l 2
 77 360.001 77 360.001 74 364.001 c 0
 72 367.001 72 372.001 71 388.001 c 0
 71 399.001 70 412.001 69 417.001 c 1
 69 429.001 l 1
 70 431.001 71 439.001 72 447.001 c 0
 73 460.001 73 460.001 80 468.001 c 0
EndSplineSet
Validated: 41
EndChar

StartChar: uni003B
Encoding: 59 59 28
Width: 202
GlyphClass: 2
Flags: W
LayerCount: 2
Fore
SplineSet
111 103 m 0
 115 104 119 106 120 106 c 0
 121 106 125 105 128 104 c 0
 133 102 138 102 145 102 c 0
 155 103 157 103 161 100 c 0
 164 98 168 94 169 92 c 0
 170 89 171 84 171 81 c 0
 171 78 171 74 169 72 c 1
 168 70 166 66 164 64 c 0
 162 62 161 58 160 55 c 1
 160 52 158 46 157 43 c 0
 155 39 151 32 147 26 c 0
 143 21 138 13 136 9 c 0
 134 4 131 -2 131 -4 c 1
 130 -7 128 -12 127 -16 c 1
 120 -27 l 2
 118 -31 116 -34 116 -35 c 1
 115 -37 114 -41 112 -44 c 0
 110 -48 107 -53 106 -55 c 0
 104 -58 102 -60 102 -61 c 0
 102 -62 101 -65 99 -69 c 0
 97 -73 95 -77 93 -79 c 1
 92 -81 90 -86 90 -90 c 0
 89 -96 88 -98 84 -101 c 0
 81 -103 77 -106 75 -108 c 2
 73 -109 71 -111 69 -113 c 1
 67 -114 62 -115 52 -115 c 0
 44 -115 37 -114 37 -113 c 1
 36 -113 32 -111 28 -110 c 0
 24 -109 19 -108 17 -106 c 2
 15 -105 13 -102 12 -100 c 0
 10 -97 9 -92 9 -88 c 0
 9 -84 10 -79 12 -76 c 0
 13 -74 15 -67 17 -63 c 0
 19 -58 21 -53 22 -52 c 1
 23 -50 26 -44 28 -38 c 0
 31 -30 32 -23 32 -15 c 0
 33 -6 34 -2 38 8 c 0
 41 15 44 25 45 29 c 1
 45 34 47 39 47 41 c 1
 48 43 49 48 50 52 c 1
 50 56 52 63 53 67 c 0
 54 71 56 75 57 76 c 1
 58 78 60 81 61 84 c 0
 62 87 63 90 64 90 c 0
 65 90 66 91 66 92 c 0
 66 94 70 96 74 98 c 0
 77 100 83 102 87 103 c 1
 91 103 96 103 99 102 c 0
 103 101 107 102 111 103 c 0
119 458 m 1
 120 458 123 459 127 459 c 0
 131 459 137 457 141 456 c 1
 144 454 149 451 151 449 c 0
 153 446 156 442 157 439 c 0
 158 437 160 430 162 425 c 1
 163 417 163 415 161 409 c 0
 160 404 159 400 160 395 c 0
 160 391 162 386 163 383 c 1
 165 381 166 377 166 374 c 0
 166 372 164 365 161 360 c 0
 158 354 154 349 152 346 c 1
 147 343 146 343 111 343 c 0
 76 343 76 343 72 347 c 1
 70 348 68 353 67 357 c 0
 66 361 64 364 64 365 c 2
 63 367 62 372 62 378 c 1
 63 384 63 399 63 412 c 0
 62 433 63 436 65 440 c 0
 67 443 71 447 77 449 c 1
 85 453 90 454 103 455 c 0
 112 456 119 457 119 458 c 1
EndSplineSet
Validated: 33
EndChar

StartChar: uni003C
Encoding: 60 60 29
Width: 539
GlyphClass: 2
Flags: W
LayerCount: 2
Fore
SplineSet
489 565 m 1
 492 566 498 567.001 501 567.001 c 0
 506 567.001 508 566.001 511 564.001 c 1
 513 561.001 515 557.001 515 553.001 c 2
 515.5 551.501 515.75 546.501 515.75 539.626 c 0
 515.75 532.751 515.5 524.001 515 515.001 c 0
 514 492.001 513 483.001 512 479.001 c 1
 510 476.001 508 472.001 506 470.001 c 2
 505 468.001 499 464.001 493 461.001 c 0
 487 458.001 482 455.001 481 454.001 c 1
 481 454.001 476 451.001 470 449.001 c 0
 465 447.001 458 445.001 454 444.001 c 0
 450 443.001 443 441.001 439 439.001 c 0
 435 437.001 426 434.001 420 432.001 c 1
 414 431.001 405 428.001 401 426.001 c 0
 396 424.001 389 421.001 386 420.001 c 1
 383 418.001 377 415.001 373 414.001 c 0
 369 413.001 362 410.001 358 407.001 c 0
 351 403.001 348 402.001 343 402.001 c 0
 339 402.001 333 402.001 330 401.001 c 0
 327 400.001 321 397.001 316 395.001 c 1
 312 392.001 304 389.001 298 387.001 c 0
 293 386.001 286 384.001 282 383.001 c 1
 279 381.001 268 378.001 258 375.001 c 0
 248 373.001 237 369.001 233 368.001 c 0
 229 367.001 222 364.001 217 361.001 c 1
 212 359.001 203 356.001 198 355.001 c 1
 193 353.001 186 350.001 182 348.001 c 0
 179 346.001 176 342.001 175 339.001 c 0
 174 336.001 174 331.001 174 328.001 c 1
 175 325.001 177 322.001 185 316.001 c 0
 193 309.001 196 307.001 206 305.001 c 0
 212 304.001 221 303.001 226 302.001 c 1
 235 302.001 237 301.001 244 296.001 c 0
 249 293.001 256 289.001 264 287.001 c 0
 270 285.001 278 283.001 282 283.001 c 1
 285 282.001 289 281.001 291 280.001 c 0
 293 279.001 298 278.001 301 277.001 c 0
 304 276.001 314 273.001 322 269.001 c 0
 329 265.001 338 261.001 340 261.001 c 1
 343 260.001 347 259.001 351 257.001 c 0
 354 256.001 359 253.001 363 252.001 c 2
 367 250.001 372 248.001 375 248.001 c 1
 378 247.001 384 245.001 388 244.001 c 0
 393 242.001 397 240.001 398 239.001 c 1
 399 239.001 403 237.001 407 236.001 c 1
 411 236.001 419 233.001 425 230.001 c 0
 430 227.001 437 225.001 440 224.001 c 0
 444 223.001 453 221.001 461 218.001 c 0
 469 215.001 476 213.001 478 213.001 c 0
 480 213.001 484 212.001 487 210.001 c 2
 491 209.001 497 203.001 501 199.001 c 0
 506 194.001 510 187.001 512 184.001 c 0
 515 178.001 515 177.001 512 170.001 c 1
 511 165.001 510 159.001 511 152.001 c 2
 511 146.001 512 140.001 513 138.001 c 1
 514 137.001 515 131.001 515 126.001 c 0
 515 119.001 514 114.001 511 109.001 c 2
 510 106.001 507 101.001 505 100.001 c 2
 503 98.001 500 97.001 498 97.001 c 0
 496 97.001 491 98.001 487 100.001 c 0
 482 102.001 476 104.001 473 105.001 c 1
 471 107.001 465 108.001 461 108.001 c 1
 457 109.001 452 110.001 449 111.001 c 0
 447 112.001 442 113.001 439 114.001 c 1
 436 114.001 430 118.001 424 123.001 c 0
 417 129.001 413 131.001 408 131.001 c 1
 404 132.001 399 133.001 397 133.001 c 0
 395 133.001 390 136.001 386 138.001 c 0
 383 140.001 378 143.001 375 143.001 c 1
 372 144.001 368 145.001 366 146.001 c 0
 364 147.001 362 148.001 360 148.001 c 0
 359 148.001 353 150.001 347 152.001 c 0
 340 154.001 332 158.001 328 161.001 c 0
 325 164.001 319 166.001 316 167.001 c 1
 312 167.001 307 169.001 304 170.001 c 0
 301 171.001 298 173.001 297 174.001 c 0
 296 175.001 289 178.001 283 180.001 c 0
 277 182.001 271 184.001 270 184.001 c 2
 270 184.001 266 185.001 263 186.001 c 0
 259 188.001 252 191.001 246 193.001 c 0
 239 195.001 231 199.001 227 202.001 c 0
 223 205.001 218 207.001 215 208.001 c 1
 213 208.001 208 211.001 205 214.001 c 0
 201 217.001 196 219.001 193 220.001 c 1
 190 220.001 186 221.001 184 222.001 c 2
 183 222.001 177 223.001 171 224.001 c 0
 166 225.001 159 226.001 157 227.001 c 0
 155 228.001 152 230.001 150 231.001 c 1
 148 231.001 145 233.001 143 234.001 c 1
 142 235.001 139 237.001 137 239.001 c 0
 134 241.001 129 242.001 125 243.001 c 0
 122 244.001 116 245.001 112 246.001 c 0
 109 247.001 104 248.001 102 248.001 c 0
 99 248.001 93 250.001 89 252.001 c 2
 85 253.001 80 256.001 78 257.001 c 1
 76 259.001 72 260.001 69 261.001 c 1
 65 261.001 60 263.001 57 265.001 c 0
 55 266.001 50 269.001 46 271.001 c 1
 37 280.001 l 1
 36 283.001 33 289.001 32 295.001 c 2
 30 300.001 28 310.001 26 315.001 c 1
 24.8281 320.273 24.3428 323.486 24.3428 325.847 c 0
 24.3428 327.516 24.585 328.758 24.999 330 c 0
 25.999 332 26.999 339 26.999 345 c 0
 26.999 351 25.999 359 24.999 363 c 0
 24.2354 365.292 23.9092 366.854 23.9092 368.244 c 0
 23.9092 370.493 24.7637 372.292 26 376 c 1
 28 379 31 383 33 385 c 0
 35 388 41 391 53 396 c 0
 62 399 73 404 78 406 c 1
 82 409 90 411 94 412 c 1
 99 412 106 414 110 416 c 0
 114 418 122 422 127 423 c 0
 133 425 138 427 139 428 c 1
 140 428 144 429 148 430 c 0
 154 431 159 434 164 438 c 0
 168 441 173 444 175 445 c 0
 177 446 182 448 187 450 c 0
 191 451 198 453 201 454 c 1
 207 454 209 456 215 462 c 0
 220 467 224 469 228 470 c 1
 231 470 239 472 246 474 c 0
 254 476 261 479 264 481 c 0
 266 482 275 485 282 487 c 1
 290 488 301 492 306 494 c 1
 311 497 316 499 316 499 c 1
 316 500 318 501 320 503 c 1
 322 504 326 506 329 507 c 2
 332 509 335 510 336 511 c 0
 337 512 341 514 345 515 c 0
 350 516 356 518 360 518 c 1
 364 519 369 520 372 521 c 0
 374 522 378 523 379 523 c 1
 380 522 383 523 386 523 c 1
 389 524 393 526 395 528 c 0
 397 530 400 532 402 533 c 0
 404 534 408 537 413 539 c 0
 418 541 423 542 428 542 c 0
 432 542 438 543 440 544 c 1
 442 546 445 547 447 548 c 0
 449 549 454 552 458 555 c 0
 463 559 467 560 474 561 c 1
 479 561 486 563 489 565 c 1
EndSplineSet
Validated: 33
EndChar

StartChar: uni003D
Encoding: 61 61 30
Width: 538
GlyphClass: 2
Flags: W
LayerCount: 2
Fore
SplineSet
105 289 m 0
 108 291 111 291.999 111 291.999 c 1
 111 291.999 117 290.999 125 289.999 c 1
 132 287.999 140 285.999 142 284.999 c 0
 144 283.999 152 282.999 158 282.999 c 0
 164 282.999 173 283.999 178 285.999 c 1
 183 286.999 198 287.999 224 287.999 c 0
 234.5 288.499 246.5 288.749 257.25 288.749 c 0
 268 288.749 277.5 288.499 283 287.999 c 0
 290 287.499 296.75 287.249 303.375 287.249 c 0
 310 287.249 316.497 287.534 323 287.999 c 0
 337 288.999 345 288.999 350 287.999 c 0
 352.5 287.499 359 287.249 369.125 287.249 c 0
 379.25 287.249 393 287.499 410 287.999 c 0
 429.333 287.999 449.556 288.443 463.556 288.443 c 0
 470.556 288.443 476 288.332 479 287.999 c 0
 495 286.999 495 286.999 502 280.999 c 0
 506 276.999 510 272.999 510 271.999 c 2
 510.5 271.499 510.75 267.249 510.75 260.874 c 0
 510.75 254.499 510.5 245.999 510 236.999 c 0
 509 206.999 509 202.999 506 196.999 c 0
 504 193.999 501 189.999 500 187.999 c 1
 498 185.999 494 182.999 491 181.999 c 0
 488.929 181.585 487.372 181.343 485.69 181.343 c 0
 483.312 181.343 480.686 181.828 475.999 183 c 0
 467.999 185 452.999 185 306.999 185 c 2
 94.999 185 l 2
 57.999 185 40.999 185 37.999 187 c 0
 35.999 188 32.999 190 30.999 193 c 0
 28.999 196 25.999 200 24.999 203 c 0
 24.2354 204.91 23.9092 206.236 23.9092 207.48 c 0
 23.9092 209.493 24.7637 211.292 26 215 c 0
 28 221 28 226 28 245 c 0
 28 261 28 269 29 271 c 0
 30 273 34 277 37 279 c 0
 40 282 44 284 46 284 c 0
 47 284 53 285 58 286 c 0
 66 288 69 288 75 287 c 0
 79 286 86 285 90 285 c 0
 95 285 100 286 105 289 c 0
166 509.999 m 1
 167 510.999 171.001 510.999 174.001 510.999 c 0
 177.001 510.999 183.001 509.999 188.001 507.999 c 0
 196.001 505.999 199.001 504.999 243.001 504.999 c 0
 268.001 504.999 297.001 505.999 307.001 505.999 c 2
 392.001 505.999 l 2
 429.001 506.999 462.001 506.999 464.001 506.999 c 1
 466.001 507.999 471.001 508.999 474.001 509.999 c 0
 478.001 510.999 481.001 510.999 485.001 508.999 c 2
 488.001 508.999 493.001 505.999 495.001 503.999 c 2
 504.001 494.999 l 1
 507.001 490.999 509.001 485.999 510.001 480.999 c 0
 511.001 475.999 512.001 470.999 513.001 467.999 c 0
 514.001 465.999 515.001 461.999 515.001 458.999 c 0
 515.001 454.999 514.001 450.999 513.001 448.999 c 0
 512.001 445.999 511.001 437.999 511.001 429.999 c 0
 511.001 414.999 511.001 413.999 506.001 409.999 c 0
 504.001 407.999 500.001 404.999 497.001 404.999 c 0
 495.001 404.999 489.001 403.999 484.001 402.999 c 0
 479.001 401.999 472.001 399.999 469.001 398.999 c 0
 466.001 397.999 461.001 396.999 459.001 396.999 c 0
 457.001 396.999 452.001 397.999 447.001 399.999 c 0
 440.001 401.999 434.001 401.999 390.001 401.999 c 0
 363.001 401.999 317.001 401.999 288.001 402.999 c 0
 260.001 402.999 233.001 402.999 230.001 401.999 c 1
 226.001 401.999 219.001 400.999 214.001 400.999 c 0
 208.001 400.999 204.001 401.999 201.001 402.999 c 1
 199.001 404.999 196.001 404.999 191.001 404.999 c 1
 188.001 403.999 169.001 402.999 151.001 402.999 c 0
 132.001 401.999 114.001 400.999 110.001 400.999 c 0
 107.001 400.999 91.001 401.999 74.001 401.999 c 0
 52.001 402.999 44.001 403.999 40.001 405.999 c 0
 37.001 406.999 33.001 409.999 32.001 411.999 c 2
 30.001 413.999 28.001 416.999 27.001 419.999 c 0
 26.001 423.999 26.001 426.999 27.001 434.999 c 1
 29.001 439.999 30.001 448.999 30.001 455.999 c 0
 30.001 462.999 29.001 471.999 27.001 475.999 c 1
 26.001 479.999 25.001 484.999 26.001 486.999 c 2
 26.001 488.999 29.001 492.999 31.001 495.999 c 0
 34.001 498.999 38.001 501.999 42.001 502.999 c 0
 47.001 504.999 54.001 505.999 83.001 505.999 c 0
 90.9092 506.292 97.2734 506.413 102.47 506.413 c 0
 115.016 506.413 120.758 505.706 125 504.999 c 1
 130 502.999 136 502.999 138 502.999 c 1
 140 503.999 147 504.999 152 505.999 c 0
 158 506.999 164 508.999 166 509.999 c 1
EndSplineSet
Validated: 33
EndChar

StartChar: uni003E
Encoding: 62 62 31
Width: 534
GlyphClass: 2
Flags: W
LayerCount: 2
Fore
SplineSet
36 595 m 0
 38 597 43 598 45 598 c 0
 48 598 52 596 55 594 c 0
 58 592 65 589 70 588 c 1
 75 586 81 584 83 582 c 1
 85 581 90 578 94 577 c 0
 97 576 102 575 104 573 c 1
 106 572 109 570 111 569 c 2
 112 568 116 566 120 564 c 0
 124 562 131 560 136 559 c 0
 141 558 148 556 151 555 c 0
 155 553 163 550 168 547 c 1
 174 545 181 542 185 542 c 1
 188 541 196 539 203 536 c 0
 210 534 218 530 221 528 c 0
 223 526 230 523 235 522 c 2
 240 520 246 519 248 519 c 0
 250 519 253 518 256 516 c 0
 259 514 263 513 266 512 c 1
 269 512 273 510 276 508 c 0
 278 507 282 505 283 504 c 1
 285 503 290 501 296 499 c 0
 301 497 306 494 307 493 c 0
 308 492 312 490 315 490 c 1
 319 489 326 487 332 486 c 1
 338 484 346 482 348 480 c 2
 351 479 354 476 355 475 c 1
 356 475 360 472 365 470 c 2
 370 467 378 465 383 464 c 1
 388 464 394 462 397 461 c 0
 400 460 403 458 404 457 c 1
 404 456 410 454 417 452 c 0
 423 450 431 448 433 448 c 0
 435 448 440 447 444 445 c 0
 447 443 452 441 453 440 c 0
 454 439 460 437 465 435 c 0
 471 433 479 430 484 428 c 0
 488 427 493 424 496 421 c 0
 499 418 502 413 505 409 c 0
 509 402 509 402 508 388 c 0
 507 380 507 372 507 370 c 0
 507 368 508 364 509 361 c 1
 511 359 512 354 512 350 c 0
 512 347 511 341 509 338 c 1
 508 334 507 328 506 323 c 1
 506 318 505 313 503 311 c 1
 502 309 499 306 497 305 c 2
 495 303 492 301 490 300 c 0
 488 299 483 296 479 294 c 0
 476 293 471 291 468 290 c 0
 465 289 461 288 459 286 c 1
 457 285 452 283 448 282 c 2
 444 280 438 279 435 279 c 0
 432 279 425 277 418 275 c 0
 411 273 403 269 400 266 c 0
 397 264 389 259 382 256 c 2
 376 252 366 248 361 247 c 1
 356 245 350 243 347 242 c 1
 344 242 338 240 332 239 c 1
 327 237 319 235 315 233 c 2
 310 232 304 229 300 227 c 0
 297 226 294 225 293 225 c 0
 292 225 288 222 283 219 c 0
 278 216 272 213 270 211 c 1
 267 210 261 208 257 207 c 0
 252 206 248 205 247 204 c 0
 246 203 242 201 237 199 c 1
 232 198 225 196 221 195 c 1
 217 195 213 193 212 192 c 0
 211 191 207 189 204 188 c 1
 202 186 196 185 192 184 c 0
 188 183 182 180 178 177 c 0
 172 173 170 172 159 172 c 0
 147 171 146 171 135 164 c 2
 119 153 l 2
 116 151 110 150 106 149 c 0
 101 148 95 147 92 145 c 2
 88 144 83 141 80 138 c 0
 77 136 69 132 63 130 c 0
 57 128 50 126 49 126 c 0
 47 126 43 128 39 129 c 1
 36 131 31 134 29 137 c 0
 27 139 25 143 24 145 c 1
 24 157 l 1
 25 161 26 174 26 184 c 0
 26 203 26 203 32 216 c 0
 35 223 40 231 42 233 c 0
 44 235 48 238 52 239 c 2
 55 241 60 242 62 242 c 0
 65 242 72 245 79 248 c 0
 85 251 94 255 99 257 c 0
 104 259 113 263 119 265 c 2
 125 268 131 270 133 270 c 0
 135 270 139 271 143 273 c 1
 147 274 154 276 159 276 c 1
 164 277 177 281 188 285 c 0
 199 289 211 294 215 295 c 0
 219 296 226 298 230 299 c 1
 234 301 240 304 243 305 c 0
 247 307 253 310 258 313 c 1
 263 315 272 318 277 320 c 0
 283 322 292 324 296 324 c 0
 301 325 307 326 309 327 c 0
 311 328 314 331 317 332 c 1
 319 334 324 336 328 338 c 0
 331 340 337 341 341 341 c 0
 345 341 350 342 352 342 c 1
 354 343 360 347 364 350 c 0
 368 353 372 357 373 359 c 0
 375 362 375 364 372 369 c 0
 370 372 367 376 365 377 c 2
 363 379 356 381 350 383 c 1
 344 384 339 385 338 386 c 0
 337 387 332 388 328 389 c 1
 324 389 314 393 305 396 c 0
 296 400 287 403 286 403 c 0
 285 403 282 404 280 405 c 0
 277 406 272 407 267 408 c 0
 261 409 253 411 243 417 c 0
 234 421 224 425 221 425 c 1
 217 426 213 427 212 428 c 1
 212 428 207 430 202 431 c 0
 197 432 188 436 181 440 c 2
 165 448 l 2
 162 449 158 450 155 450 c 0
 152 450 146 452 142 454 c 0
 137 456 124 462 113 465 c 0
 102 469 90 474 86 476 c 0
 82 478 78 479 76 479 c 0
 75 479 71 480 68 481 c 0
 65 482 59 484 54 485 c 1
 40 492 l 1
 37 495 33 499 31 502 c 0
 29 505 27 512 26 520 c 0
 25 527 25 536 25 539 c 2
 25 561 l 2
 25 572 26 578 28 584 c 0
 30 590 33 593 36 595 c 0
EndSplineSet
Validated: 33
EndChar

StartChar: uni003F
Encoding: 63 63 32
Width: 454
GlyphClass: 2
Flags: W
LayerCount: 2
Fore
SplineSet
149 113 m 2
 152 114 156 114 159 114 c 1
 162 113 175 113 188 112 c 0
 207 111 212 111 218 108 c 0
 221 107 225 103 227 101 c 0
 229 98 230 93 230 88 c 0
 230 84 229 78 227 75 c 1
 226 72 225 65 224 60 c 1
 224 54 224 47 225 42 c 1
 227 37 227 31 227 30 c 0
 227 28 225 25 222 24 c 1
 219 21 215 21 188 20 c 0
 162 20 158 20 152 22 c 1
 149 24 144 26 142 28 c 1
 139 29 136 32 135 34 c 0
 134 36 132 43 131 50 c 0
 130.5 54.5 130.25 58.5 130.25 62.125 c 0
 130.25 65.75 130.5 69 131 72 c 0
 132 77 133 86 133 91 c 0
 133 96 134 102 135 104 c 0
 136 106 138 108 141 110 c 0
 143 111 147 113 149 113 c 2
161 697 m 1
 166 698 172 699.001 174 699.001 c 1
 174.536 699.269 175.359 699.393 176.373 699.393 c 0
 179.144 699.393 183.34 698.464 187 697 c 0
 192 696 202 694 209 692 c 0
 215 691 230.008 689.09 242 688 c 0
 253 687 266 686 270 685 c 0
 274 684 278 682 280 681 c 0
 282 680 291 676 300 673 c 0
 309 669 319 664 323 663 c 1
 327 661 332 658 335 656 c 0
 337 655 341 652 343 650 c 2
 345 649 348 645 349 643 c 0
 351 640 354 636 357 634 c 0
 359 632 362 630 363 630 c 1
 363 630 366 629 369 626 c 0
 371 624 377 617 382 610 c 0
 386 603 390 597 390 596 c 0
 390 595 392 592 394 589 c 0
 396 586 399 579 400 575 c 0
 401 570 404 560 407 551 c 0
 410 543 412 534 412 532 c 0
 412 530 411 524 409 520 c 0
 407 514 406 507 406 499 c 0
 406 489 405 486 401 476 c 0
 397 469 395 462 395 457 c 1
 394 450 393 449 386 441 c 1
 381 437 374 428 369 422 c 0
 365 416 357 406 351 399 c 0
 346 392 338 383 334 379 c 1
 329 376 323 371 319 368 c 0
 314 365 305 358 298 350 c 0
 291 343 284 335 282 332 c 0
 279 328 275 322 272 319 c 0
 268 315 264 310 263 308 c 1
 261 306 257 303 254 301 c 1
 250 300 244 295 240 291 c 0
 234 285 232 282 231 276 c 0
 230 271 228 265 227 263 c 0
 225 259 225 252 224 224 c 2
 224 189 l 1
 224 189 222 186 219 183 c 0
 217 180 212 177 210 175 c 1
 206 173 201 173 183 173 c 0
 162 173 161 173 153 177 c 0
 149 179 144 183 142 186 c 0
 139 190 139 192 138 213 c 2
 138 253 l 2
 138 266 139 274 141 283 c 0
 144 291 146 296 151 302 c 2
 154 307 158 312 160 315 c 0
 162 317 165 322 166 326 c 1
 168 329 171 334 174 337 c 0
 176 340 182 345 186 347 c 0
 191 350 195 353 198 358 c 0
 200 362 208 371 215 378 c 0
 222 386 232 399 238 407 c 0
 243 416 250 425 253 428 c 1
 255 432 259 437 260 439 c 0
 262 442 265 449 268 454 c 2
 270 459 275 468 277 474 c 2
 282 483 283 485 282 492 c 0
 281 497 281 501 283 505 c 0
 284 508 285 513 285 516 c 0
 285 520 284 527 283 532 c 0
 282 537 282 544 282 547 c 0
 283 553 282 555 279 559 c 0
 276 563 271 568 267 573 c 1
 262 577 259 581 259 581 c 1
 259 582 257 584 256 587 c 1
 250 593 l 2
 249 594 242 598 235 601 c 0
 224 607 222 608 208 609 c 0
 197 609 192 610 185 613 c 0
 180 615 172 618 163 619 c 0
 155 620 145 620 141 620 c 0
 136 619 131 618 128 617 c 1
 125 615 117 614 111 614 c 1
 104 613 95 612 91 611 c 1
 87 609 81 608 79 608 c 0
 76 608 69 607 64 606 c 0
 55 604 54 604 51 606 c 1
 48 607 45 610 44 613 c 0
 42 617 42 621 42 634 c 0
 42 649 43 651 48 663 c 0
 51 670 55 677 57 679 c 0
 59 681 64 683 66 685 c 1
 70 687 76 688 93 688 c 0
 105 689 116 690 118 691 c 0
 121 692 129 693 137 693 c 0
 146 693 156 695 161 697 c 1
EndSplineSet
Validated: 33
EndChar

StartChar: uni0040
Encoding: 64 64 33
Width: 1020
GlyphClass: 2
Flags: W
LayerCount: 2
Fore
SplineSet
567 365 m 0
 563 367 559 367 546 367 c 0
 536 367 528 366 524 365 c 0
 521 364 514 362 510 361 c 0
 505 360 499 357 495 355 c 0
 492 353 488 351 487 350 c 1
 485 349 483 348 480 347 c 0
 478 346 472 341 468 336 c 2
 463 332 458 325 456 322 c 0
 454 318 451 313 449 310 c 0
 446 305 445 302 445 296 c 0
 445 289 446 285 449 278 c 0
 451 272 454 267 456 266 c 1
 457 264 459 262 460 261 c 1
 460 260 462 258 463 256 c 0
 464 254 468 250 473 247 c 0
 478 244 483 241 484 239 c 1
 485 238 489 236 493 236 c 2
 497 235 504 235 508 235 c 1
 512 236 517 237 519 238 c 2
 527 242 l 2
 530 244 535 247 539 251 c 1
 544 254 547 257 547 257 c 1
 547 258 550 262 555 267 c 0
 559 271 563 277 564 279 c 1
 564 281 567 285 569 288 c 0
 572 292 574 296 575 299 c 0
 576 302 578 307 579 310 c 0
 581 314 581 319 581 333 c 0
 581 351 581 351 577 357 c 0
 574 360 570 363 567 365 c 0
452 750 m 0
 456 752 463 752 507 752 c 0
 547 752 559 752 564 750 c 0
 567 749 577 748 586 747 c 0
 595 747 605 745 608 744 c 0
 611 743 618 741 623 741 c 1
 629 740 637 738 643 737 c 1
 649 735 656 733 659 731 c 2
 663 730 667 728 668 727 c 1
 670 727 677 724 684 722 c 1
 690 719 698 716 701 715 c 0
 704 714 709 711 712 708 c 0
 715 706 720 703 722 701 c 0
 724 699 728 695 732 693 c 0
 736 691 745 683 752 676 c 0
 759 669 769 661 773 658 c 0
 778 655 794 640 809 625 c 0
 833 600 836 596 838 590 c 0
 840 586 843 577 847 570 c 0
 850 563 853 557 853 556 c 0
 853 555 854 554 855 553 c 0
 856 552 858 548 860 543 c 1
 863 539 866 531 867 525 c 1
 869 520 872 514 872 513 c 1
 873 512 876 507 878 503 c 0
 880 498 883 489 885 483 c 1
 886 477 888 471 889 470 c 1
 889 469 890 464 891 458 c 0
 892 453 893 446 895 443 c 0
 897 439 897 432 897 375 c 0
 896 318 896 312 894 304 c 0
 892 299 891 293 891 291 c 0
 891 288 889 279 886 270 c 0
 884 261 881 250 880 247 c 1
 880 243 877 236 875 230 c 0
 873 225 870 216 867 210 c 0
 865 205 861 196 858 192 c 0
 855 187 852 181 852 179 c 1
 851 176 849 171 847 167 c 0
 845 163 841 156 838 151 c 0
 835 146 825 134 815 124 c 0
 799 107 796 106 782 99 c 0
 769 92 765 91 757 91 c 1
 752 90 745 89 742 88 c 0
 738 86 734 85 724 85 c 0
 716 85 709 86 706 88 c 1
 702 89 695 90 684 91 c 0
 672 91 665 92 656 95 c 0
 649 97 638 102 632 106 c 0
 625 110 619 113 619 113 c 1
 618 113 612 118 606 124 c 0
 598 132 593 138 591 143 c 0
 589 147 586 156 583 163 c 0
 580 172 578 175 576 176 c 0
 574 177 571 177 568 177 c 1
 566 176 561 173 558 169 c 1
 554 166 551 162 551 162 c 1
 551 161 549 160 546 158 c 1
 543 157 536 156 531 155 c 1
 526 155 520 153 518 152 c 0
 514 150 507 150 469 150 c 0
 424 150 424 150 417 153 c 0
 413 155 407 159 404 161 c 0
 401 164 396 166 394 167 c 1
 391 167 388 169 385 170 c 0
 383 171 378 175 375 178 c 1
 373 182 368 189 365 195 c 1
 363 201 360 207 359 208 c 1
 358 208 357 210 357 211 c 0
 357 212 356 214 355 216 c 1
 353 218 350 224 348 229 c 0
 346 234 343 240 343 242 c 1
 342 243 340 250 338 256 c 0
 336 264 335 272 335 283 c 0
 335 294 336 299 338 303 c 0
 339 305 340 313 341 321 c 0
 342 329 344 338 346 345 c 0
 348 350 351 357 353 359 c 1
 354 361 356 364 357 367 c 0
 358 370 360 372 360 372 c 1
 361 372 362 373 362 375 c 1
 363 377 366 381 369 384 c 0
 373 388 377 391 379 393 c 1
 383 395 l 1
 394 402 l 2
 399 405 408 411 413 414 c 0
 418 417 424 420 426 421 c 0
 428 422 433 424 438 426 c 0
 442 428 449 429 454 429 c 0
 459 429 466 430 471 431 c 0
 476 432 483 434 487 436 c 0
 494 440 496 440 525 441 c 0
 554.999 442.034 555 442 564 447 c 0
 569 450 574 455 577 458 c 0
 581 464 581 465 581 479 c 0
 581 491 581 495 577 504 c 0
 574 511 570 517 563 525 c 0
 556 532 553 535 548 536 c 0
 545 537 533 538 520 538 c 0
 497 537 497 537 484 524 c 0
 477 517 469 506 466 500 c 0
 463 494 458 488 455 485 c 0
 452 483 448 480 446 480 c 1
 444 479 438 478 433 476 c 0
 425 474 419 473 401 473 c 0
 382 473 378 474 373 476 c 1
 370 478 368 480 368 481 c 0
 368 482 367 484 365 485 c 1
 363 487 363 491 364 513 c 0
 365 533 365 542 367 545 c 1
 368 548 373 554 378 559 c 0
 383 564 387 569 387 570 c 0
 387 571 390 573 394 576 c 0
 397 578 404 582 407 586 c 1
 411 589 416 593 418 593 c 0
 420 593 430 594 441 594 c 0
 458 594 462 595 468 598 c 0
 472 600 477 601 480 601 c 0
 482 601 488 602 491 603 c 0
 495 605 502 606 510 606 c 0
 518 606 524 606 529 608 c 0
 535 611 537 611 548 609 c 0
 554 608 566 607 575 606 c 0
 584 606 592 604 595 603 c 0
 598 602 604 600 608 600 c 0
 612 600 616 599 617 598 c 1
 617 597 622 596 627 594 c 1
 634 593 637 591 640 587 c 0
 643 584 650 576 656 570 c 0
 665 560 667 557 668 552 c 0
 669 549 669 546 668 545 c 1
 668 545 670 538 673 530 c 0
 678 515 677.792 514.992 679 486 c 0
 680 462 680 455 682 451 c 0
 684 448 685 443 685 435 c 0
 685 426 684 420 682 414 c 0
 679 406 679 406 682 396 c 0
 684 391 685 384 685 381 c 0
 685 377 684 371 682 366 c 0
 680 359 680 352 679 298 c 0
 679 241 679 237 682 229 c 0
 684 224 685 217 686 213 c 0
 687 209 688 204 689 202 c 0
 690 200 691 194 692 191 c 1
 692 186 694 182 697 178 c 1
 700 176 704 173 707 172 c 0
 712 170 714 170 719 172 c 0
 723 173 728 178 739 188 c 0
 747 197 755 206 757 209 c 0
 759 211 761 215 762 217 c 1
 762 219 764 222 765 223 c 1
 766 225 769 232 772 241 c 0
 775 249 779 261 781 267 c 1
 784 272 786 281 787 287 c 0
 788 292 790 299 792 303 c 1
 793 307 795 314 796 318 c 1
 799 324 799 331 799 361 c 0
 799 391 799 399 797 403 c 0
 795 407 794 413 793 417 c 1
 793 421 791 426 790 428 c 0
 789 430 788 435 787 440 c 1
 787 445 785 453 783 458 c 1
 780 463 777 470 775 473 c 0
 773 477 770 483 768 488 c 0
 766 492 764 498 764 501 c 1
 763 504 760 510 757 515 c 0
 754 519 749 526 745 530 c 1
 742 534 739 538 739 539 c 1
 739 539 738 542 735 545 c 0
 733 548 726 556 720 562 c 2
 706 576 l 1
 706 577 704 580 702 583 c 0
 701 585 696 590 691 594 c 2
 673 605 l 1
 668 607 663 610 661 611 c 1
 660 612 656 615 653 618 c 0
 650 621 642 626 635 629 c 0
 628 633 619 638 613 642 c 0
 608 645 602 648 598 649 c 1
 595 649 590 651 588 652 c 0
 585 653 579 655 573 655 c 1
 566 656 560 657 557 659 c 0
 554 661 551 662 551 663 c 0
 551 664 548 665 544 666 c 0
 539 667 531 667 521 667 c 0
 512 666 503 665 501 664 c 0
 498 663 486 662 470 661 c 0
 448 661 444 660 437 657 c 0
 433 655 429 653 428 653 c 1
 427 652 424 650 421 648 c 0
 417 646 413 643 411 643 c 1
 408 642 403 640 399 638 c 0
 395 636 389 632 386 630 c 0
 383 627 377 624 374 622 c 0
 371 620 364 616 359 613 c 0
 355 611 346 607 341 604 c 0
 336 601 327 595 321 589 c 0
 315 583 304 572 296 565 c 0
 289 557 281 547 278 542 c 0
 275 537 271 530 270 528 c 0
 268 525 266 520 265 518 c 0
 264 516 260 510 255 506 c 0
 249 500 246 496 245 492 c 1
 245 488 243 483 242 481 c 0
 240 478 239 472 238 467 c 0
 238 463 236 457 235 455 c 0
 233 452 232 449 231 449 c 0
 230 449 229 445 228 440 c 0
 227 436 225 430 224 428 c 0
 223 426 221 419 221 414 c 1
 220 409 219 403 218 401 c 1
 217 400 216 396 216 393 c 0
 216 389 217 385 218 383 c 0
 219 380 220 366 221 342 c 0
 222 307 222 306 226 296 c 0
 228 290 231 284 232 283 c 0
 233 282 235 277 237 272 c 0
 239 267 243 261 245 258 c 0
 247 255 250 249 251 245 c 0
 252 240 255 234 258 230 c 0
 260 227 264 221 266 217 c 0
 268 213 271 207 273 205 c 1
 274 203 276 200 277 198 c 1
 277 197 279 195 280 193 c 0
 281 191 290 181 299 171 c 0
 310 160 321 150 326 146 c 1
 332 143 338 137 341 134 c 0
 344 131 351 125 358 121 c 0
 364 117 372 112 375 111 c 0
 377 110 383 108 388 107 c 0
 392 106 398 104 400 103 c 0
 402 102 406 99 408 98 c 1
 410 96 415 95 420 94 c 0
 425 93 432 91 436 90 c 1
 440 88 448 85 454 83 c 0
 459 81 466 78 470 78 c 2
 473 77 478 77 481 77 c 1
 484 78 490 80 494 84 c 0
 497 87 505 91 509 94 c 0
 514 97 521 100 525 102 c 0
 531 105 533 106 554 106 c 0
 574 106 576 105 581 102 c 1
 584 101 588 96 591 92 c 2
 595 88 598 82 600 79 c 1
 602 74 603 69 603 52 c 0
 603 31 603 31 595 22 c 0
 591 17 583 9 578 5 c 0
 573 1 566 -3 561 -5 c 0
 556 -7 546 -8 538 -9 c 0
 529 -9 522 -11 519 -12 c 1
 516 -14 511 -15 505 -15 c 0
 500 -15 493 -14 490 -12 c 1
 485 -10 479 -10 454 -10 c 0
 428 -10 423 -9 419 -7 c 0
 417 -6 411 -4 407 -4 c 1
 403 -3 398 -2 398 -2 c 1
 397 -1 393 0 389 1 c 0
 385 2 379 4 377 6 c 1
 374 7 371 9 370 10 c 1
 368 11 363 13 357 15 c 0
 352 17 347 19 346 19 c 1
 346 19 339 22 331 26 c 0
 323 30 313 35 309 38 c 0
 304 41 298 45 295 48 c 0
 292 50 286 54 282 56 c 0
 277 59 272 63 268 66 c 0
 265 69 260 73 257 74 c 1
 254 76 243 86 233 96 c 0
 221 109 213 119 209 127 c 2
 205 132 200 141 197 145 c 0
 194 149 186 160 180 169 c 0
 174 178 167 190 165 195 c 0
 163 201 159 207 158 210 c 2
 156 213 154 219 152 225 c 0
 151 230 149 235 149 236 c 1
 148 237 147 241 146 245 c 0
 145 250 143 254 142 256 c 1
 141 257 139 262 138 266 c 0
 137 270 135 278 135 284 c 1
 134 289 133 294 132 296 c 0
 131 298 130 311 129 331 c 0
 129 358 128 365 126 369 c 0
 124 373 124 377 124 389 c 0
 124 401 124 407 126 413 c 0
 129 420 129 425 129 437 c 0
 129 446 130 453 131 453 c 1
 131 454 133 458 134 462 c 0
 135 466 136 471 137 472 c 1
 138 474 140 480 141 486 c 2
 143 491 145 500 146 505 c 0
 147 510 149 518 151 522 c 0
 154 527 157 535 159 540 c 0
 161 544 163 549 163 549 c 1
 163 550 166 553 169 556 c 0
 172 560 175 566 178 572 c 1
 180 580 183 585 189 591 c 0
 193 595 198 602 200 606 c 0
 202 609 218 626 235 642 c 0
 255 662 270 676 278 681 c 0
 284 686 290 689 291 689 c 1
 300 696 l 2
 304 700 311 704 317 706 c 0
 322 708 331 713 337 717 c 0
 342 720 350 724 353 726 c 1
 357 727 363 729 366 730 c 1
 370 730 374 732 376 733 c 0
 378 734 383 735 386 736 c 1
 389 736 394 737 396 739 c 1
 399 740 404 741 409 741 c 1
 414 742 420 743 422 744 c 0
 424 745 431 747 437 747 c 0
 443 747 450 749 452 750 c 0
EndSplineSet
Validated: 33
EndChar

StartChar: uni0041
Encoding: 65 65 34
Width: 747
GlyphClass: 2
Flags: W
LayerCount: 2
Fore
SplineSet
363 599 m 0
 362 600 360.001 599.999 358.001 599.999 c 0
 357.001 599.999 354.001 598.999 352.001 596.999 c 0
 350.001 594.999 348.001 590.999 347.001 587.999 c 1
 345.001 585.999 342.001 577.999 338.001 570.999 c 0
 335.001 563.999 332.001 554.999 331.001 550.999 c 0
 330.001 546.999 326.001 536.999 322.001 528.999 c 0
 317.001 518.999 315.001 511.999 314.001 505.999 c 1
 314.001 500.999 313.001 495.999 312.001 494.999 c 1
 311.001 492.999 309.001 488.999 307.001 483.999 c 0
 305.001 478.999 303.001 474.999 303.001 473.999 c 0
 303.001 472.999 302.001 471.999 301.001 470.999 c 0
 300.001 469.999 298.001 465.999 297.001 461.999 c 0
 296.001 457.999 294.001 451.999 292.001 448.999 c 2
 288.001 440.999 l 1
 286.001 438.999 285.001 434.999 285.001 430.999 c 1
 284.001 426.999 283.001 419.999 281.001 415.999 c 2
 280.001 411.999 277.001 404.999 274.001 399.999 c 0
 271.001 394.999 268.001 388.999 268.001 384.999 c 1
 267.001 381.999 265.001 376.999 264.001 373.999 c 0
 263.001 371.999 261.001 366.999 260.001 362.999 c 1
 260.001 358.999 257.001 349.999 254.001 343.999 c 0
 251.001 336.999 248.001 329.999 246.001 327.999 c 1
 245.001 324.999 244.001 319.999 243.001 315.999 c 1
 243.001 311.999 241.001 304.999 239.001 300.999 c 0
 237.001 296.999 235.001 290.999 235.001 288.999 c 0
 235.001 286.999 237.001 282.999 240.001 278.999 c 0
 243.001 275.999 247.001 271.999 249.001 270.999 c 0
 252.001 269.999 268.001 269.999 289.001 269.999 c 0
 320.001 269.999 325.001 269.999 332.001 272.999 c 0
 339.001 274.999 344.001 274.999 360.001 274.999 c 0
 376.001 274.999 381.001 274.999 390.001 271.999 c 0
 395.501 270.499 398.251 269.749 401.001 269.749 c 0
 403.751 269.749 406.501 270.499 412.001 271.999 c 0
 421.001 274.999 424.001 274.999 428.001 272.999 c 0
 431.001 271.999 439.001 271.999 447.001 271.999 c 0
 455.001 271.999 464.001 272.999 469.001 274.999 c 0
 473.001 275.999 479.001 278.999 480.001 280.999 c 1
 482.001 282.999 484.001 286.999 484.001 290.999 c 0
 484.415 292.656 484.657 294.142 484.657 295.526 c 0
 484.657 297.484 484.172 299.242 483 301 c 2
 482 304 479 308 478 310 c 1
 476 312 474 317 472 320 c 0
 471 322 469 328 469 332 c 0
 468 338 465 346 459 358 c 0
 454 368 450 377 450 378 c 0
 450 379 447 386 443 392 c 0
 439 399 436 405 435 406 c 1
 434 408 432 411 431 414 c 0
 429 418 428 424 427 429 c 1
 427 434 425 441 424 445 c 1
 422 448 420 453 419 456 c 2
 417 459 416 466 416 470 c 0
 415 475 413 483 411 488 c 0
 409 493 406 499 405 501 c 0
 404 504 403 507 403 508 c 0
 403 509 401 513 399 518 c 0
 397 522 395 527 394 529 c 1
 393 530 392 534 392 537 c 1
 391 541 389 547 387 551 c 0
 385 555 382 561 381 565 c 0
 379 570 375 578 372 585 c 0
 369 591 365 597 363 599 c 0
313.001 720.999 m 0
 314.001 721.999 318.001 721.999 321.001 721.999 c 1
 323.001 720.999 329.001 720.999 332.001 720.999 c 0
 336.001 720.999 342.001 720.999 346.001 721.999 c 1
 351.001 721.999 354.001 721.999 359.001 719.999 c 0
 365.001 717.999 366.001 717.999 372.001 719.999 c 0
 377.001 721.999 385.001 721.999 405.001 721.999 c 0
 423.001 721.999 432.001 721.999 434.001 720.999 c 0
 436.001 719.999 439.001 716.999 441.001 715.999 c 1
 443.001 713.999 445.001 710.999 446.001 708.999 c 2
 448.001 706.999 450.001 698.999 453.001 692.999 c 2
 455.001 685.999 458.001 677.999 459.001 675.999 c 0
 461.001 672.999 462.001 669.999 462.001 668.999 c 0
 462.001 667.999 463.001 664.999 465.001 661.999 c 0
 467.001 658.999 470.001 652.999 472.001 648.999 c 2
 479.001 631.999 l 2
 481.001 626.999 484.001 619.999 485.001 615.999 c 0
 486.001 611.999 487.001 607.999 488.001 606.999 c 0
 489.001 605.999 490.001 601.999 491.001 598.999 c 0
 492.001 594.999 494.001 588.999 496.001 585.999 c 2
 497.001 582.999 500.001 579.999 501.001 577.999 c 2
 502.001 576.999 504.001 570.999 506.001 565.999 c 0
 509.001 559.999 511.001 554.999 512.001 553.999 c 1
 512.001 552.999 513.001 548.999 514.001 545.999 c 1
 514.001 541.999 517.001 533.999 520.001 526.999 c 0
 523.001 520.999 526.001 513.999 527.001 511.999 c 0
 528.001 509.999 529.001 506.999 530.001 505.999 c 0
 531.001 504.999 533.001 500.999 534.001 497.999 c 0
 535.001 494.999 537.001 488.999 538.001 483.999 c 0
 539.001 478.999 542.001 469.999 545.001 463.999 c 0
 549.001 456.999 553.001 448.999 556.001 445.999 c 0
 559.001 441.999 560.001 438.999 561.001 432.999 c 0
 561.001 428.999 563.001 422.999 564.001 420.999 c 0
 565.001 417.999 568.001 412.999 569.001 408.999 c 0
 571.001 403.999 572.001 398.999 572.001 395.999 c 0
 572.001 392.999 573.001 387.999 573.001 384.999 c 1
 574.001 380.999 578.001 372.999 583.001 366.999 c 1
 587.001 359.999 592.001 352.999 593.001 349.999 c 0
 594.001 347.999 596.001 342.999 597.001 338.999 c 0
 598.001 335.999 600.001 330.999 602.001 328.999 c 2
 603.001 326.999 606.001 322.999 608.001 320.999 c 1
 610.001 319.999 613.001 314.999 614.001 310.999 c 2
 616.001 307.999 618.001 301.999 619.001 297.999 c 0
 620.001 294.999 623.001 285.999 626.001 278.999 c 0
 629.001 271.999 631.001 263.999 631.001 259.999 c 0
 631.001 256.999 631.001 251.999 632.001 247.999 c 0
 633.001 244.999 635.001 240.999 636.001 239.999 c 0
 637.001 238.999 640.001 232.999 642.001 225.999 c 0
 644.001 219.999 646.001 213.999 647.001 212.999 c 1
 647.001 211.999 648.001 208.999 649.001 205.999 c 0
 650.001 203.999 652.001 196.999 655.001 191.999 c 0
 657.001 187.999 661.001 180.999 663.001 176.999 c 1
 666.001 173.999 669.001 166.999 671.001 162.999 c 1
 672.001 158.999 673.001 153.999 673.001 151.999 c 0
 673.001 149.999 676.001 141.999 680.001 132.999 c 0
 684.001 122.999 688.001 112.999 690.001 109.999 c 2
 697.001 98.999 l 2
 700.001 94.999 701.001 91.999 702.001 83.999 c 0
 702.001 75.999 703.001 72.999 708.001 65.999 c 0
 711.001 61.999 715.001 52.999 717.001 46.999 c 0
 719.001 40.999 722.001 33.999 723.001 30.999 c 1
 725.001 27.999 725.001 21.999 726.001 15.999 c 1
 726.001 4.99902 725.001 4.99902 721.001 0.999023 c 0
 717.001 -3.00098 716.001 -3.00098 697.001 -4.00098 c 0
 686.001 -5.00098 663.001 -5.00098 647.001 -5.00098 c 0
 616.001 -5.00098 616.001 -5.00098 611.001 -0.000976562 c 0
 608.001 1.99902 602.001 5.99902 598.001 7.99902 c 0
 594.001 9.99902 590.001 13.999 589.001 15.999 c 2
 588.001 16.999 586.001 20.999 586.001 23.999 c 1
 585.001 26.999 583.001 32.999 580.001 37.999 c 0
 577.001 42.999 575.001 49.999 574.001 52.999 c 1
 574.001 55.999 572.001 60.999 570.001 64.999 c 0
 569.001 67.999 567.001 71.999 567.001 72.999 c 0
 567.001 73.999 566.001 76.999 564.001 78.999 c 0
 562.001 81.999 560.001 84.999 559.001 86.999 c 0
 558.001 88.999 555.001 97.999 553.001 105.999 c 0
 550.001 114.999 547.001 123.999 545.001 125.999 c 1
 544.001 128.999 541.001 134.999 540.001 140.999 c 1
 537.001 148.999 535.001 151.999 528.001 158.999 c 0
 523.001 162.999 518.001 166.999 517.001 166.999 c 2
 470.001 166.999 l 1
 394.001 166.999 l 2
 367.001 166.999 363.001 166.999 359.001 168.999 c 0
 354.001 170.999 350.001 171.999 334.001 171.999 c 0
 323.001 170.999 311.001 170.999 307.001 169.999 c 0
 302.001 167.999 280.001 166.999 249.001 166.999 c 0
 199.001 165.999 199.001 165.999 191.001 161.999 c 0
 184.001 157.999 181.001 155.999 180.001 151.999 c 1
 179.001 149.999 178.001 144.999 178.001 140.999 c 0
 178.001 135.999 177.001 130.999 173.001 125.999 c 1
 171.001 120.999 168.001 114.999 167.001 111.999 c 1
 167.001 107.999 165.001 102.999 164.001 100.999 c 0
 162.001 97.999 160.001 93.999 159.001 92.999 c 0
 158.001 91.999 156.001 86.999 155.001 81.999 c 0
 154.001 76.999 151.001 68.999 149.001 64.999 c 0
 146.001 59.999 141.001 45.999 137.001 33.999 c 0
 133.001 19.999 129.001 10.999 126.001 6.99902 c 0
 124.001 3.99902 119.001 0.999023 116.001 -1.00098 c 1
 111.001 -2.00098 104.001 -4.00098 93.001 -4.00098 c 0
 83.001 -5.00098 72.001 -6.00098 68.001 -7.00098 c 0
 63.001 -9.00098 57.001 -10.001 54.001 -10.001 c 0
 52.001 -10.001 46.001 -8.00098 41.001 -7.00098 c 1
 37.001 -5.00098 30.001 -4.00098 27.001 -4.00098 c 0
 22.001 -4.00098 20.001 -3.00098 14.001 1.99902 c 0
 11.001 4.99902 7.00098 9.99902 6.00098 11.999 c 0
 5.33398 13.332 5.00098 14.4434 5.00098 15.8135 c 0
 5.00098 18.5547 6.33398 22.332 9.00098 30.999 c 0
 12.001 38.999 16.001 48.999 17.001 52.999 c 0
 18.001 56.999 21.001 61.999 22.001 63.999 c 2
 26.001 71.999 l 2
 27.001 74.999 28.001 78.999 28.001 80.999 c 0
 28.001 82.999 30.001 89.999 33.001 96.999 c 0
 36.001 103.999 41.001 112.999 44.001 115.999 c 1
 47.001 120.999 50.001 125.999 52.001 133.999 c 0
 53.001 139.999 55.001 147.999 56.001 151.999 c 0
 57.001 154.999 58.001 158.999 59.001 159.999 c 1
 60.001 161.999 61.001 164.999 62.001 167.999 c 1
 64.001 170.999 66.001 177.999 68.001 183.999 c 2
 71.001 189.999 73.001 197.999 74.001 199.999 c 0
 75.001 202.999 77.001 207.999 78.001 209.999 c 0
 80.001 212.999 82.001 216.999 83.001 218.999 c 2
 84.001 219.999 86.001 225.999 86.001 230.999 c 1
 87.001 234.999 88.001 240.999 89.001 241.999 c 2
 89.001 243.999 91.001 246.999 93.001 247.999 c 1
 94.001 249.999 98.001 256.999 102.001 263.999 c 0
 106.001 271.999 109.001 279.999 110.001 282.999 c 1
 110.001 285.999 112.001 291.999 113.001 295.999 c 1
 115.001 299.999 117.001 304.999 118.001 306.999 c 1
 118.001 308.999 121.001 313.999 123.001 318.999 c 0
 125.001 323.999 128.001 328.999 129.001 329.999 c 1
 130.001 329.999 132.001 335.999 134.001 341.999 c 2
 137.001 347.999 140.001 354.999 141.001 358.999 c 2
 143.001 361.999 145.001 367.999 145.001 371.999 c 0
 145.001 375.999 146.001 379.999 147.001 381.999 c 0
 148.001 383.999 150.001 388.999 152.001 394.999 c 1
 155.001 399.999 157.001 404.999 158.001 405.999 c 1
 159.001 407.999 160.001 408.999 160.001 409.999 c 1
 160.001 409.999 162.001 412.999 163.001 414.999 c 0
 165.001 417.999 167.001 424.999 168.001 430.999 c 2
 170.001 436.999 172.001 445.999 173.001 449.999 c 0
 174.001 453.999 176.001 458.999 177.001 460.999 c 0
 178.001 462.999 180.001 465.999 182.001 467.999 c 0
 184.001 470.999 186.001 474.999 186.001 478.999 c 1
 187.001 482.999 188.001 487.999 189.001 490.999 c 0
 190.001 493.999 192.001 495.999 193.001 496.999 c 0
 194.001 497.999 197.001 503.999 198.001 508.999 c 0
 200.001 514.999 203.001 520.999 204.001 522.999 c 1
 206.001 524.999 208.001 528.999 209.001 532.999 c 0
 210.001 535.999 213.001 543.999 216.001 549.999 c 1
 218.001 555.999 221.001 563.999 222.001 567.999 c 1
 222.001 573.999 224.001 577.999 227.001 581.999 c 0
 229.001 584.999 234.001 593.999 237.001 600.999 c 0
 240.001 608.999 244.001 617.999 246.001 620.999 c 0
 248.001 623.999 250.001 627.999 251.001 629.999 c 1
 251.001 631.999 252.001 633.999 253.001 634.999 c 1
 253.001 635.999 255.001 639.999 256.001 643.999 c 0
 257.001 647.999 259.001 653.999 261.001 657.999 c 0
 262.001 660.999 267.001 668.999 271.001 673.999 c 2
 285.001 695.999 l 1
 288.001 702.999 292.001 709.999 295.001 711.999 c 0
 297.001 713.999 301.001 716.999 305.001 717.999 c 0
 308.001 718.999 312.001 719.999 313.001 720.999 c 0
EndSplineSet
Validated: 33
EndChar

StartChar: uni0042
Encoding: 66 66 35
Width: 678
GlyphClass: 2
Flags: W
LayerCount: 2
Fore
SplineSet
338 331 m 1
 331 330 319 330 312 330 c 0
 305 330 292 331 283 331 c 2
 249 331 l 2
 237 330 229 329 222 326 c 0
 216 324 210 321 207 319 c 1
 205 316 203 314 203 311 c 0
 203 308 204 305 206 303 c 1
 207 300 208 290 208 251 c 0
 208 215 207 202 206 197 c 1
 204 192 204 188 205 183 c 0
 206 179 207 161 208 144 c 0
 208 127 209 112 209 112 c 1
 214 107 l 2
 217 104 220 103 224 102 c 1
 228 102 235 101 241 100 c 2
 247 100 254 99 258 99 c 1
 261 100 284 100 308 100 c 0
 344 101 353 101 361 103 c 0
 370 106 372 106 379 104 c 0
 387 102 387 102 396 107 c 0
 401 109 408 112 412 113 c 0
 415 114 421 116 424 118 c 0
 427 120 431 122 434 124 c 0
 436 126 442 128 447 130 c 1
 452 131 458 135 462 137 c 0
 466 140 471 146 474 150 c 0
 477 154 480 159 482 160 c 1
 483 161 485 165 487 168 c 1
 488 171 491 178 492 182 c 0
 493 186 494 194 494 198 c 0
 494 203 495 209 497 213 c 1
 497.5 215.5 497.75 217.25 497.75 218.875 c 0
 497.75 220.5 497.5 222 497 224 c 1
 496 226 495 229 494 230 c 1
 494 231 493 235 493 239 c 1
 492 243 491 249 489 252 c 0
 488 254 487 259 486 263 c 0
 485 266 481 274 477 281 c 0
 471 292 469 293 461 297 c 0
 456 300 451 303 448 305 c 0
 446 306 442 309 441 310 c 0
 439 312 432 314 425 316 c 2
 396 323 l 2
 387 325 377 327 372 328 c 0
 367 329 360 330 357 330 c 2
 354 331 345 331 338 331 c 1
247 634 m 0
 244 635 238 636 232 636 c 0
 227 636 222 636 220 635 c 2
 218 635 214 632 211 628 c 2
 207 625 205 621 204 618 c 0
 203 615 204 611 206 608 c 1
 207 604 208 601 207 599 c 1
 207 596 206 592 205 590 c 1
 205 587 205 583 206 580 c 0
 206.5 578.5 206.75 575.25 206.75 570 c 0
 206.75 564.75 206.5 557.5 206 548 c 0
 206 529 206 518 207 516 c 1
 207 514 208 498 209 481 c 0
 209 464 210 449 210 448 c 0
 210 447 212 445 214 444 c 0
 216 443 223 439 229 436 c 0
 241 430 241 430 262 429 c 0
 274 428 285 428 288 428 c 0
 290 428 311 428 333 429 c 0
 374 430 375 430 384 434 c 0
 389 436 395 439 397 439 c 1
 398 440 403 441 406 441 c 1
 410 442 417 444 421 446 c 0
 425 448 432 452 435 454 c 0
 438 457 442 461 445 463 c 1
 447 466 449 469 450 472 c 1
 450 474 451 476 452 477 c 0
 453 478 455 483 457 488 c 0
 459 492 462 501 463 507 c 0
 464 513 466 520 466 523 c 0
 466 526 465 533 464 540 c 0
 462 547 460 557 459 562 c 0
 458 568 457 575 456 577 c 0
 455 579 449 585 444 590 c 2
 432 602 l 2
 431 603 428 605 425 607 c 0
 422 609 419 611 417 611 c 1
 415 612 412 614 411 615 c 1
 409 616 406 618 403 619 c 0
 400 620 394 622 388 623 c 0
 382 624 369 625 358 626 c 0
 347 627 332 628 325 629 c 0
 319 630 299 631 283 631 c 0
 259 632 252 632 247 634 c 0
140 727 m 0
 142 728 157.001 729 189.001 729 c 0
 231.001 729 237.001 728 245.001 726 c 1
 249.001 724 257.001 723 261.001 723 c 0
 265.001 723 271.001 724 275.001 726 c 0
 279.438 727.902 281.866 728.599 290.948 728.599 c 0
 296.191 728.599 303.653 728.366 315 728 c 0
 333 728 351 728 355 727 c 1
 358 727 368 728 376 728 c 0
 389 729 392 729 396 727 c 0
 399 725 406 724 416 723 c 0
 426.99 721.901 433 721 439 718 c 0
 443 716 449 713 452 712 c 0
 455 711 461 710 465 710 c 0
 470 710 476 708 483 705 c 0
 488 703 494 701 495 701 c 0
 496 701 500 700 504 698 c 0
 507 697 512 695 514 694 c 1
 517 694 520 692 522 691 c 0
 524 690 532 682 540 675 c 0
 551 664 556 658 559 650 c 0
 563 642 566 639 572 635 c 0
 576 632 581 628 582 626 c 2
 584 624 585 619 586 615 c 1
 586 610 588 604 591 601 c 0
 593 598 596 591 598 585 c 0
 600 580 603 571 603 567 c 2
 605 560 605 552 603 536 c 0
 602 518 601 513 597 501 c 0
 594 493 591 487 591 486 c 0
 591 485 589 479 586 473 c 0
 583 467 579 460 577 458 c 0
 575 455 574 453 574 452 c 1
 574 452 572 449 571 446 c 1
 569 444 566 440 564 438 c 1
 563 436 556 431 550 426 c 0
 544 421 539 416 539 416 c 2
 538 415 535 413 533 411 c 0
 530 409 524 406 519 404 c 1
 515 401 509 397 505 395 c 0
 500 392 499 390 499 387 c 0
 499 384 500 381 501 380 c 1
 511 375 l 2
 514 373 518 371 519 370 c 1
 525 367 l 1
 527 367 530 365 531 365 c 1
 532 364 537 361 542 359 c 1
 547 356 560 348 570 341 c 0
 581 334 591 327 592 326 c 0
 594 324 598 319 601 314 c 1
 605 310 608 304 609 301 c 0
 610 298 612 294 614 292 c 1
 615 290 618 284 619 279 c 1
 621 274 623 269 625 267 c 0
 626 266 628 263 629 259 c 0
 630 256 632 248 633 242 c 1
 633 235 635 221 636 211 c 0
 636.414 203.958 636.657 199.318 636.657 195.943 c 0
 636.657 191.171 636.172 188.929 635 186 c 0
 633 182 632 174 632 167 c 1
 631 161 630 154 630 153 c 1
 629 153 628 149 627 145 c 2
 623 133 l 1
 621 130 620 126 619 125 c 0
 618 124 616 120 615 117 c 0
 614 114 609 106 604 100 c 2
 600 93 591 84 586 79 c 0
 581 73 571 65 565 60 c 0
 559 55 549 48 543 43 c 0
 537 38 529 33 525 31 c 1
 521 30 517 28 516 28 c 1
 515 27 511 26 507 26 c 0
 502 25 497 24 493 22 c 0
 490 21 484 18 480 17 c 0
 475 16 467 13 461 12 c 0
 454 10 442 9 429 8 c 0
 416 7 407 6 404 5 c 1
 401 3 386 3 324 2 c 0
 258 2 247 1 243 -1 c 0
 240 -2 235 -3 227 -3 c 0
 221 -3 213 -2 209 -1 c 0
 205 0 199 1 197 1 c 0
 195 1 191 0 188 -1 c 0
 184 -3 181 -3 174 -2 c 1
 169 -2 160 -1 154 -2 c 1
 148 -2 142 -1 140 0 c 1
 139 1 126 2 113 2 c 0
 90 3 88 3 85 6 c 0
 83 8 80 12 78 15 c 1
 76 20 75 23 76 36 c 0
 77 45 77 55 77 58 c 0
 77 61 77 72 76 83 c 0
 75 94 73 104 72 108 c 1
 70 112 70 117 70 135 c 0
 71 147 71 164 71 174 c 0
 71 184 70.9414 203.996 70 220 c 0
 69.5 228.5 69.25 239.5 69.25 252 c 0
 69.25 264.5 69.5 278.5 70 293 c 0
 70.8623 318.005 71 342 71 345 c 2
 71 358 l 2
 71 361 71 366 72 369 c 1
 72 372 73 377 73 382 c 2
 74 387 74 391 72 395 c 0
 70 400 70 406 70 418 c 0
 70 430 70 436 72 439 c 1
 73 442 74 446 74 450 c 1
 73 454 72 460 71 465 c 0
 70 472 70 474 72 481 c 0
 74 488 75 496 75 564 c 0
 75 632 75 639 78 649 c 0
 80 659 80 660 78 671 c 0
 77 676 75 687 75 695 c 0
 74 707 74 709 77 713 c 0
 79 716 82 720 84 721 c 0
 87 723 93 724 112 725 c 0
 126 725 138 726 140 727 c 0
EndSplineSet
Validated: 33
EndChar

StartChar: uni0043
Encoding: 67 67 36
Width: 662
GlyphClass: 2
Flags: W
LayerCount: 2
Fore
SplineSet
336 740 m 1
 342 743 346 743.001 352 743.001 c 1
 356 742.001 370 742.001 383 742.001 c 0
 399 741.001 407 741.001 408 740.001 c 0
 409 739.001 415 737.001 421 736.001 c 1
 427 736.001 436 735.001 440 735.001 c 0
 445 735.001 451 734.001 454 733.001 c 0
 458 732.001 464 730.001 468 730.001 c 0
 473 729.001 480 727.001 485 725.001 c 1
 490 722.001 497 719.001 501 718.001 c 0
 506 717.001 511 715.001 514 714.001 c 1
 517 712.001 522 709.001 525 706.001 c 2
 529 704.001 535 699.001 539 696.001 c 0
 545 692.001 550 689.001 554 689.001 c 0
 561 688.001 563 686.001 577 672.001 c 0
 593 656.001 593 655.001 603 634.001 c 0
 609 623.001 614 612.001 614 611.001 c 0
 614 610.001 617 606.001 620 602.001 c 1
 624 598.001 628 592.001 629 590.001 c 0
 630 587.001 631 583.001 631 580.001 c 0
 631 577.001 632 571.001 634 567.001 c 1
 635 561.001 636 552.001 636 540.001 c 0
 636 529.001 635 520.001 634 518.001 c 1
 633 517.001 631 514.001 629 512.001 c 1
 628 510.001 624 507.001 620 506.001 c 2
 615 503.001 611 503.001 589 503.001 c 0
 570 503.001 561 503.001 557 505.001 c 0
 553 507.001 548 507.001 543 506.001 c 0
 539 506.001 533 505.001 530 505.001 c 0
 525 504.001 522 505.001 516 508.001 c 0
 511 510.001 506 514.001 503 516.001 c 1
 501 519.001 496 526.001 493 534.001 c 2
 489 541.001 486 552.001 485 558.001 c 0
 484 563.001 481 571.001 480 574.001 c 0
 478 578.001 476 582.001 475 583.001 c 2
 474 585.001 471 590.001 468 594.001 c 1
 465 601.001 461 605.001 454 610.001 c 0
 449 614.001 443 618.001 439 620.001 c 2
 428 627.001 l 1
 425 628.001 418 632.001 411 635.001 c 0
 404 637.001 396 640.001 393 641.001 c 0
 390 642.001 380 643.001 372 643.001 c 0
 361 642.001 356 643.001 351 645.001 c 0
 347 647.001 342 648.001 340 648.001 c 0
 337 648.001 334 647.001 332 646.001 c 1
 331 645.001 326 642.001 322 640.001 c 0
 318 638.001 310 634.001 305 633.001 c 0
 299 631.001 293 628.001 292 627.001 c 0
 291 626.001 288 625.001 285 624.001 c 0
 283 623.001 279 621.001 276 620.001 c 1
 273 618.001 268 614.001 266 612.001 c 0
 264 610.001 258 606.001 254 603.001 c 0
 250 601.001 245 596.001 243 594.001 c 0
 240 591.001 238 587.001 237 586.001 c 1
 237 584.001 234 580.001 232 577.001 c 0
 230 574.001 227 567.001 225 562.001 c 2
 222 557.001 216 545.001 211 535.001 c 0
 206 525.001 202 514.001 201 512.001 c 1
 201 509.001 200 505.001 199 504.001 c 1
 198 502.001 197 496.001 196 490.001 c 0
 195 485.001 194 477.001 193 473.001 c 1
 191 470.001 190 458.001 189 447.001 c 0
 188 436.001 187 424.001 186 421.001 c 0
 185 418.001 184 396.001 183 372.001 c 0
 183 345.001 183 324.001 184 317.001 c 0
 185 311.001 187 297.001 187 287.001 c 0
 188 276.001 190 262.001 191 257.001 c 2
 191 252.001 194 244.001 196 240.001 c 0
 198 236.001 200 228.001 201 221.001 c 0
 202 213.001 203 209.001 205 205.001 c 1
 207 203.001 210 199.001 211 198.001 c 1
 211 196.001 213 194.001 213 192.001 c 1
 214 191.001 216 187.001 217 184.001 c 2
 219 181.001 220 177.001 220 177.001 c 1
 220 176.001 222 172.001 226 167.001 c 0
 229 162.001 232 158.001 232 157.001 c 1
 232 157.001 236 152.001 242 146.001 c 0
 248 140.001 252 135.001 252 133.001 c 2
 252 127.001 l 2
 252 125.001 253 123.001 254 122.001 c 1
 255 120.001 260 118.001 265 118.001 c 1
 270 117.001 276 115.001 279 114.001 c 0
 283 112.001 291 112.001 303 112.001 c 0
 317 112.001 324 111.001 335 108.001 c 0
 343 106.001 352 104.001 355 102.001 c 2
 358 101.001 362 99.001 365 97.001 c 0
 367 96.001 371 95.001 374 95.001 c 0
 379 95.001 381 96.001 388 103.001 c 0
 394 109.001 397 111.001 402 113.001 c 0
 406 114.001 413 116.001 417 117.001 c 0
 422 119.001 428 122.001 429 123.001 c 0
 431 125.001 433 126.001 434 126.001 c 0
 435 126.001 439 130.001 443 134.001 c 0
 448 138.001 455 145.001 460 149.001 c 0
 465 153.001 471 159.001 473 161.001 c 0
 475 163.001 479 169.001 482 174.001 c 0
 485 179.001 490 186.001 492 191.001 c 0
 496 198.001 497 202.001 497 214.001 c 0
 498 228.001 499 230.001 502 232.001 c 1
 503 234.001 509 235.001 513 236.001 c 1
 518 236.001 525 238.001 529 239.001 c 0
 533 240.001 545 241.001 555 242.001 c 0
 565 243.001 573 244.001 574 245.001 c 1
 574 245.001 578 245.001 581 244.001 c 0
 584 243.001 594 242.001 604 241.001 c 0
 618 240.001 622 240.001 625 237.001 c 0
 627 235.001 631 231.001 632 228.001 c 2
 635 223.001 636 220.001 635 214.001 c 0
 635 210.001 634 199.001 633 189.001 c 0
 632 179.001 630 169.001 628 164.001 c 2
 627 159.001 624 154.001 623 153.001 c 0
 622 152.001 620 147.001 618 143.001 c 0
 616 139.001 612 132.001 610 127.001 c 0
 608 123.001 602 114.001 596 108.001 c 0
 591 102.001 585 94.001 583 91.001 c 0
 581 88.001 573 79.001 565 71.001 c 0
 557 64.001 548 56.001 545 54.001 c 0
 542 52.001 538 48.001 535 46.001 c 0
 533 44.001 529 42.001 527 40.001 c 1
 525 39.001 521 38.001 518 37.001 c 1
 516 37.001 512 35.001 509 33.001 c 0
 507 31.001 501 27.001 496 25.001 c 0
 488 22.001 484 21.001 473 20.001 c 0
 462 20.001 457 18.001 450 15.001 c 0
 445 13.001 440 11.001 438 10.001 c 0
 436 9.00098 433 8.00098 431 8.00098 c 2
 428 7.00098 417 7.00098 405 7.00098 c 0
 388 7.00098 382 7.00098 377 5.00098 c 0
 372.607 3.53711 367.68 2.60938 350.446 2.60938 c 0
 344.139 2.60938 336.183 2.7334 326.001 3.00098 c 0
 293.001 3.00098 280.001 3.00098 273.001 5.00098 c 0
 267.001 6.00098 262.001 8.00098 260.001 10.001 c 1
 258.001 11.001 252.001 13.001 247.001 15.001 c 1
 242.001 16.001 232.001 21.001 225.001 24.001 c 0
 218.001 28.001 211.001 31.001 210.001 31.001 c 0
 209.001 31.001 205.001 32.001 201.001 34.001 c 0
 198.001 35.001 195.001 37.001 194.001 38.001 c 1
 194.001 39.001 187.001 43.001 180.001 47.001 c 0
 173.001 51.001 166.001 55.001 164.001 56.001 c 1
 163.001 58.001 158.001 62.001 153.001 66.001 c 0
 148.001 69.001 142.001 75.001 139.001 77.001 c 0
 136.001 79.001 131.001 86.001 128.001 91.001 c 0
 123.001 98.001 118.001 104.001 112.001 108.001 c 0
 105.001 113.001 103.001 116.001 98.001 125.001 c 0
 95.001 131.001 93.001 136.001 92.001 137.001 c 2
 86.001 143.001 l 2
 82.001 148.001 82.001 150.001 82.001 156.001 c 0
 82.001 160.001 80.001 167.001 79.001 170.001 c 0
 78.001 174.001 76.001 179.001 74.001 181.001 c 1
 73.001 183.001 70.001 189.001 67.001 194.001 c 1
 65.001 199.001 61.001 210.001 58.001 219.001 c 0
 55.001 227.001 53.001 235.001 52.001 236.001 c 1
 51.001 236.001 51.001 239.001 51.001 241.001 c 0
 51.001 244.001 49.001 249.001 48.001 254.001 c 1
 46.001 258.001 45.001 268.001 44.001 274.001 c 1
 44.001 280.001 42.001 288.001 42.001 292.001 c 1
 41.001 295.001 39.001 302.001 38.001 306.001 c 0
 37.001 312.001 37.001 323.001 37.001 339.001 c 0
 37.001 353.001 38.001 366.001 37.001 369.001 c 2
 37.001 372.001 36.001 377.001 35.001 380.001 c 0
 34.1016 382.248 33.6064 383.688 33.6064 385.317 c 0
 33.6064 387.313 34.3486 389.596 36 394 c 1
 37 401 38 410 38 430 c 0
 38 451 39 458 41 465 c 0
 42 470 45 477 46 480 c 0
 47 483 49 492 51 500 c 0
 53 507 55 517 56 522 c 1
 56 527 58 534 60 538 c 2
 61 542 64 548 65 551 c 0
 66 553 67 556 67 556 c 1
 67 557 68 559 69 560 c 0
 70 561 73 566 75 572 c 0
 77 577 80 582 81 583 c 1
 82 585 84 589 84 592 c 1
 85 596 87 601 88 604 c 1
 90 606 92 611 94 614 c 0
 96 617 104 626 112 633 c 0
 119 640 128 650 132 655 c 0
 135 660 141 667 145 670 c 2
 149 674 156 679 160 682 c 0
 165 685 173 690 177 693 c 0
 182 697 187 700 189 700 c 1
 192 701 199 706 205 711 c 0
 212 716 220 721 223 722 c 0
 227 723 233 725 239 726 c 2
 244 728 249 729 250 729 c 0
 251 729 256 730 261 732 c 0
 265 733 272 735 276 735 c 1
 280 736 285 737 287 739 c 1
 290 740 296 741 303 741 c 0
 309 741 317 740 321 739 c 0
 327 737 328 738 336 740 c 1
EndSplineSet
Validated: 33
EndChar

StartChar: uni0044
Encoding: 68 68 37
Width: 761
GlyphClass: 2
Flags: W
LayerCount: 2
Fore
SplineSet
257 624 m 0
 252 625 244 626 237 626 c 0
 231 626 224 625 221 624 c 2
 218 624 215 622 214 621 c 0
 213 620 211 619 210 619 c 0
 209 619 207 617 205 615 c 0
 201 611 201 611 201 554 c 0
 201 522 200 480 200 461 c 0
 200 442 199 424 198 420 c 1
 198 415 198 412 199 411 c 0
 201 409 201 389 201 305 c 0
 201 235 201.09 196.009 202 186 c 0
 203 175 203 168 202 160 c 0
 201 150 201 148 204 141 c 0
 206 134 207 130 206 127 c 0
 205 124 205 118 206 113 c 0
 207 107 208 104 211 102 c 0
 213 100 216 97 218 97 c 2
 220 96 229 95 238 95 c 0
 249 95 257 96 263 97 c 1
 267 99 276 101 284 102 c 0
 291 103 307 105 319 106 c 0
 331 106 352 106 366 105 c 0
 380 105 393 104 396 104 c 0
 398 104 404 106 408 108 c 0
 412 110 418 112 423 113 c 0
 427 114 431 116 432 117 c 0
 433 118 434 119 435 119 c 1
 435 119 440 121 444 124 c 0
 449 127 454 131 456 132 c 2
 458 134 462 135 466 136 c 1
 469 136 476 139 480 141 c 0
 485 144 492 148 496 151 c 0
 500 153 507 159 512 163 c 0
 517 166 524 173 526 177 c 0
 529 181 533 188 535 192 c 0
 537 196 539 200 540 201 c 0
 541 202 543 207 545 211 c 1
 546 215 551 224 554 231 c 0
 558 239 561 247 562 249 c 1
 562 251 565 260 568 269 c 0
 573 284 573 284 573 320 c 0
 574 343 574 358 576 362 c 1
 576.5 364 576.75 365.75 576.75 367.625 c 0
 576.75 369.5 576.5 371.5 576 374 c 0
 575 378 574 391 573 404 c 0
 573 417 571 429 570 431 c 0
 569 434 568 440 567 444 c 1
 567 448 566 454 564 457 c 1
 563 460 562 466 562 471 c 1
 561 477 560 483 558 487 c 0
 556 490 552 496 549 499 c 0
 547 502 541 512 537 521 c 0
 532 531 526 539 523 543 c 1
 519 546 515 550 514 553 c 1
 512 555 508 560 505 564 c 1
 501 568 495 574 491 577 c 2
 487 581 482 583 479 584 c 0
 477 585 468 588 460 592 c 2
 438 603 l 1
 434 604 427 606 423 607 c 0
 418 608 411 608 407 608 c 0
 403 608 394 611 383 614 c 0
 366 620 366 620 346 620 c 0
 331 620 324 621 320 622 c 1
 317 624 310 625 303 625 c 0
 296 625 290 624 286 622 c 1
 282 621 278 620 272 621 c 0
 268 621 261 623 257 624 c 0
100 719 m 1
 106 721 113 723.002 116 723.002 c 0
 119 723.002 123 722.002 125 721.002 c 0
 128 720.002 137 720.002 147 719.002 c 0
 157 719.002 171 718.002 179 718.002 c 0
 188 717.002 199 718.002 209 719.002 c 0
 215 719.502 220.25 719.752 225.625 719.752 c 0
 231 719.752 236.5 719.502 243 719.002 c 0
 256 718.002 265 718.002 273 719.002 c 0
 279 720.002 285 721.002 287 721.002 c 0
 288 721.002 292 722.002 295 722.002 c 2
 299 723.002 303 723.002 308 721.002 c 0
 313 719.002 320 718.002 326 718.002 c 0
 331 718.002 337 719.002 339 720.002 c 0
 341 721.002 347 721.002 359 719.002 c 0
 368 718.002 383 717.002 391 717.002 c 0
 399 717.002 409 716.002 414 715.002 c 0
 418 714.002 426 713.002 430 713.002 c 0
 435 713.002 442 712.002 446 710.002 c 0
 451 708.002 459 706.002 465 706.002 c 0
 471 706.002 480 704.002 484 703.002 c 0
 488 702.002 497 699.002 504 697.002 c 0
 512 695.002 522 691.002 527 689.002 c 2
 537 685.002 l 1
 538 685.002 540 684.002 542 682.002 c 1
 544 681.002 550 677.002 556 675.002 c 1
 562 672.002 569 668.002 572 666.002 c 0
 574 664.002 579 660.002 583 659.002 c 1
 587 657.002 596 649.002 604 640.002 c 0
 613 632.002 621 624.002 624 622.002 c 0
 626 620.002 630 616.002 633 612.002 c 0
 635 608.002 639 602.002 641 598.002 c 0
 643 594.002 648 588.002 652 584.002 c 0
 656 580.002 661 572.002 664 567.002 c 0
 667 561.002 671 554.002 673 551.002 c 0
 675 549.002 676 544.002 677 540.002 c 0
 678 536.002 680 532.002 684 528.002 c 0
 686 525.002 689 521.002 690 519.002 c 1
 690 517.002 691 512.002 692 508.002 c 1
 694 504.002 695 496.002 697 491.002 c 1
 698 486.002 700 477.002 701 472.002 c 0
 702 466.002 703 457.002 703 451.002 c 0
 703 444.002 704 437.002 705 431.002 c 1
 707 426.002 708 417.002 709 409.002 c 0
 709 402.002 710 394.002 711 391.002 c 0
 712 388.002 712 384.002 712 381.002 c 0
 712 379.002 712 368.002 713 358.002 c 0
 713 347.002 713 331.002 712 322.002 c 0
 712 313.002 710 301.002 709 296.002 c 1
 707 291.002 705 284.002 704 281.002 c 0
 703 277.002 702 273.002 702 271.002 c 0
 702 269.002 701 264.002 699 259.002 c 0
 697 254.002 696 247.002 696 243.002 c 0
 696 239.002 695 233.002 694 230.002 c 0
 693 227.002 691 221.002 690 216.002 c 0
 689 211.002 686 205.002 684 201.002 c 0
 681 197.002 678 191.002 678 189.002 c 1
 677 186.002 675 182.002 672 179.002 c 0
 670 176.002 665 167.002 661 160.002 c 1
 658 152.002 654 144.002 652 141.002 c 0
 651 139.002 648 135.002 646 133.002 c 0
 645 132.002 643 129.002 643 128.002 c 0
 643 127.002 642 123.002 640 120.002 c 2
 639 115.002 635 112.002 630 108.002 c 0
 625 105.002 620 100.002 617 97.002 c 0
 615 94.002 610 89.002 607 85.002 c 1
 603 82.002 599 79.002 598 79.002 c 2
 598 79.002 593 78.002 588 76.002 c 0
 584 74.002 577 70.002 574 68.002 c 0
 570 66.002 567 63.002 567 63.002 c 1
 566 63.002 563 60.002 559 58.002 c 0
 555 55.002 552 53.002 551 53.002 c 1
 551 53.002 548 51.002 546 49.002 c 1
 543 48.002 539 44.002 536 42.002 c 0
 533 40.002 527 37.002 523 35.002 c 1
 518 34.002 513 32.002 512 32.002 c 0
 511 32.002 503 30.002 496 28.002 c 0
 488 25.002 481 22.002 480 21.002 c 0
 479 20.002 475 18.002 472 17.002 c 0
 469 16.002 460 14.002 454 14.002 c 1
 447 13.002 437 12.002 432 10.002 c 2
 427 9.00195 419 6.00195 415 5.00195 c 0
 408 3.00195 399 2.00195 373 2.00195 c 0
 344 2.00195 339 2.00195 335 0.00195312 c 0
 332 -1.99805 326 -2.99805 323 -2.99805 c 0
 319 -2.99805 313 -1.99805 309 -0.998047 c 0
 306 0.00195312 301 1.00195 297 1.00195 c 0
 294 1.00195 287 0.00195312 281 -1.99805 c 0
 274 -3.99805 266 -4.99805 255 -4.99805 c 0
 243 -4.99805 237 -3.99805 232 -1.99805 c 0
 225 1.00195 224 1.00195 219 -0.998047 c 0
 214 -2.99805 206 -3.99805 177 -3.99805 c 2
 118 -3.99805 l 2
 97 -4.99805 94 -3.99805 90 -1.99805 c 0
 87 0.00195312 82 5.00195 78 9.00195 c 0
 73 14.002 70 19.002 69 21.002 c 1
 69 23.002 68 28.002 69 31.002 c 2
 69 35.002 71 40.002 72 44.002 c 0
 74 49.002 74 53.002 74 59.002 c 1
 73 64.002 72 72.002 71 77.002 c 0
 69 85.002 69 108.002 69 255.002 c 0
 70 348.002 70 429.002 70 436.002 c 1
 69 442.002 69 453.002 69 461.002 c 0
 69 468.002 70 483.002 72 494.002 c 0
 73 504.002 74 515.002 73 517.002 c 2
 73 519.002 72 524.002 70 527.002 c 1
 69.293 530.537 68.5859 536.072 68.5859 551.032 c 0
 68.5859 557.229 68.707 565.042 69 575 c 0
 69 601 70 620 71 626 c 0
 73 633 73 636 71 643 c 0
 70 647 70 652 70 654 c 0
 70 656 70 661 71 664 c 0
 73 669 73 672 71 677 c 1
 70 683 70 686 72 692 c 0
 73 697 76 703 79 706 c 0
 81 709 85 712 87 713 c 2
 88 714 94 716 100 719 c 1
EndSplineSet
Validated: 33
EndChar

StartChar: uni0045
Encoding: 69 69 38
Width: 626
GlyphClass: 2
Flags: W
LayerCount: 2
Fore
SplineSet
276 715 m 0
 279 717 282.001 716.999 290.001 716.999 c 1
 295.001 715.999 303.001 714.999 307.001 713.999 c 0
 314.001 711.999 322.001 710.999 352.001 710.999 c 0
 382.001 710.999 390.001 710.999 394.001 708.999 c 0
 397.001 707.999 403.001 706.999 407.001 706.999 c 0
 411.001 706.999 417.001 707.999 420.001 708.999 c 0
 423.001 709.999 431.001 711.999 439.001 712.999 c 0
 446.001 712.999 453.001 713.999 453.001 712.999 c 1
 454.001 712.999 463.001 712.999 472.001 711.999 c 0
 484.001 711.999 490.001 710.999 493.001 708.999 c 1
 496.001 707.999 499.001 706.999 501.001 706.999 c 0
 504.001 706.999 508.001 707.999 511.001 708.999 c 1
 514.001 710.999 521.001 710.999 528.001 710.999 c 0
 540.001 710.999 541.001 710.999 547.001 706.999 c 0
 551.001 703.999 555.001 699.999 557.001 697.999 c 0
 559.001 695.999 561.001 691.999 563.001 689.999 c 1
 564.001 686.999 565.001 680.999 565.001 667.999 c 0
 566.001 653.999 565.001 648.999 563.001 641.999 c 0
 561.001 636.999 559.001 629.999 557.001 625.999 c 0
 555.001 622.999 552.001 618.999 549.001 616.999 c 0
 547.001 615.999 541.001 612.999 537.001 611.999 c 0
 532.001 609.999 525.001 607.999 520.001 607.999 c 0
 516.001 607.999 507.001 606.999 502.001 605.999 c 0
 496.001 604.999 489.001 603.999 485.001 603.999 c 1
 481.001 604.999 476.001 605.999 473.001 606.999 c 0
 469.001 607.999 462.001 607.999 457.001 607.999 c 0
 451.001 607.999 445.001 608.999 442.001 610.999 c 1
 437.001 612.999 433.001 612.999 424.001 612.999 c 1
 417.001 611.999 411.001 610.999 410.001 609.999 c 1
 408.001 608.999 393.001 607.999 341.001 607.999 c 0
 281.001 607.999 275.001 608.999 266.001 610.999 c 0
 258.001 612.999 253.001 613.999 240.001 612.999 c 0
 225.001 612.999 223.001 611.999 219.001 608.999 c 0
 217.001 606.999 213.001 601.999 211.001 596.999 c 0
 207.001 589.999 207.001 588.999 208.001 573.999 c 0
 208.001 565.999 209.001 548.999 209.001 536.999 c 0
 210.001 524.999 211.001 513.999 211.001 512.999 c 1
 212.001 511.999 213.001 490.999 213.001 467.999 c 0
 214.001 424.999 214.001 424.999 218.001 419.999 c 1
 220.001 415.999 223.001 413.999 227.001 412.999 c 0
 229.829 412.292 238.657 411.585 254.899 411.585 c 0
 261.627 411.585 269.627 411.706 279 411.999 c 0
 304.008 412.78 327 412.999 331 412.999 c 0
 336 412.999 344 412.999 351 411.999 c 0
 361 410.999 364 411.999 372 413.999 c 0
 378 415.999 386 416.999 391 417.999 c 1
 397 417.999 402 416.999 404 415.999 c 0
 406 414.999 410 413.999 413 414.999 c 0
 416 415.999 427 415.999 438 416.999 c 0
 449 416.999 461 416.999 465 415.999 c 0
 469 414.999 475 413.999 477 413.999 c 0
 479 413.999 492 412.999 505 411.999 c 0
 528 410.999 528 410.999 533 406.999 c 0
 536 403.999 539 399.999 540 397.999 c 0
 542 393.999 543 387.999 543 365.999 c 0
 543 339.999 543 337.999 540 333.999 c 0
 538 330.999 534 326.999 530 323.999 c 0
 527 320.999 521 317.999 518 315.999 c 1
 513 313.999 503 313.999 398 313.999 c 0
 301 313.999 281 313.999 272 311.999 c 0
 266 310.999 261 310.999 258 310.999 c 1
 257 311.999 249 311.999 240 310.999 c 0
 231 309.999 224 307.999 221 305.999 c 2
 218 304.999 216 302.999 215 300.999 c 1
 215 299.999 214 286.999 213 271.999 c 0
 212 256.999 212 242.999 212 240.999 c 2
 212 180.999 l 2
 213 150.999 214 122.999 215 119.999 c 0
 216 116.999 218 113.999 222 110.999 c 0
 227 107.999 229 106.999 247 105.999 c 0
 259 105.999 268 104.999 271 102.999 c 0
 273 101.999 278 100.999 283 99.999 c 1
 288 99.999 293 99.999 299 102.999 c 1
 308 104.999 312 105.999 340 105.999 c 0
 364 105.999 373 104.999 378 103.999 c 1
 381 101.999 386 100.999 389 100.999 c 0
 392 100.999 396 101.999 399 103.999 c 1
 402 104.999 409 105.999 414 105.999 c 0
 420 105.999 427 104.999 432 102.999 c 0
 439 100.999 440 100.999 446 103.999 c 1
 453 105.999 457 105.999 492 105.999 c 0
 524 105.999 530 104.999 535 102.999 c 0
 538 101.999 546 99.999 555 99.999 c 0
 563 98.999 571 97.999 572 97.999 c 1
 573 96.999 575 94.999 576 92.999 c 0
 577 90.999 578 87.999 577 85.999 c 0
 576 82.999 576 78.999 575 75.999 c 1
 575 71.999 576 68.999 579 61.999 c 0
 583 53.999 584 51.999 584 39.999 c 0
 584 30.999 583 23.999 581 20.999 c 2
 580 17.999 578 13.999 576 11.999 c 0
 574 8.99902 570 6.99902 563 4.99902 c 0
 554 2.99902 543 2.99902 369 1.99902 c 0
 267 1.99902 184 0.999023 183 0.999023 c 0
 182 0.999023 173 1.99902 163 1.99902 c 0
 153 2.99902 142 3.99902 140 4.99902 c 0
 136 6.99902 131 6.99902 122 5.99902 c 0
 111 4.99902 110 5.99902 104 9.99902 c 0
 101 11.999 97 14.999 96 16.999 c 2
 95 17.999 93 24.999 92 29.999 c 0
 91 35.999 89 40.999 88 41.999 c 1
 87 41.999 87 66.999 87 101.999 c 0
 87 136.999 86 167.999 85 176.999 c 0
 84 185.999 83 193.999 83 195.999 c 1
 84 197.999 84 213.999 85 230.999 c 0
 85 248.999 86 270.999 86 278.999 c 0
 86 289.999 85 295.999 83 299.999 c 0
 81 304.999 81 310.999 81 332.999 c 0
 81 353.999 81 360.999 83 365.999 c 0
 85 369.999 85 374.999 85 386.999 c 0
 84 394.999 83 406.999 83 413.999 c 0
 83 419.999 82 430.999 81 437.999 c 0
 80 444.999 80 460.999 80 474.999 c 0
 80 487.999 80 507.999 79 517.999 c 0
 79 530.999 79 539.999 77 543.999 c 1
 76.5 545.999 76.25 547.999 76.25 550.499 c 0
 76.25 552.999 76.5 555.999 77 559.999 c 0
 77 565.999 78 570.999 79 571.999 c 1
 79 572.999 80 586.999 80 603.999 c 0
 81 619.999 81 643.999 81 654.999 c 0
 81 672.999 81 678.999 84 687.999 c 0
 86 693.999 88 699.999 90 702.999 c 0
 92 704.999 96 707.999 99 708.999 c 0
 103.393 710.463 106.713 711.392 116.415 711.392 c 0
 119.967 711.392 124.373 711.268 130 711 c 0
 143 710 156 710 158 710 c 0
 160 710 187 710 217 711 c 0
 265 712 272 712 276 715 c 0
EndSplineSet
Validated: 33
EndChar

